M48
;GenerationSoftware,Autodesk,EAGLE,9.7.0*%
;CreationDate,2020-08-13T08:15:21Z*%
FMAT,2
ICI,OFF
METRIC,TZ,000.000
T9C0.350
T8C0.700
T7C0.813
T6C1.000
T5C1.016
T4C1.190
T3C1.980
T2C2.540
T1C3.000
%
G90
M71
T1
X13335Y83439
X4445Y83439
X24384Y89027
T2
X45720Y76200
X13335Y77470
X30480Y94615
T3
X43180Y97000
T4
X43180Y88900
X5360Y88900
T5
X4331Y78462
X6871Y78462
X9411Y78462
T6
X29204Y82355
X6350Y97409
X3810Y97409
X8890Y97409
X11430Y97409
X13970Y97409
X25654Y97917
X23114Y97917
X20574Y97917
X18034Y97917
X37459Y98230
X34919Y98230
X39999Y98230
T7
X18136Y84582
X20676Y76962
X25756Y84582
X23216Y84582
X23216Y76962
X18136Y76962
X20676Y84582
X25756Y76962
T8
X31226Y76454
X39624Y73934
X39624Y76434
X29226Y76454
T9
X32309Y74628
X43056Y75438
X44298Y73854
M30