G04 EAGLE Gerber RS-274X export*
G75*
%MOMM*%
%FSLAX34Y34*%
%LPD*%
%INBottom Copper*%
%IPPOS*%
%AMOC8*
5,1,8,0,0,1.08239X$1,22.5*%
G01*
%ADD10C,1.879600*%
%ADD11C,1.320800*%
%ADD12R,1.508000X1.508000*%
%ADD13C,1.508000*%
%ADD14C,1.651000*%
%ADD15R,1.651000X1.651000*%
%ADD16C,1.785000*%
%ADD17C,1.600000*%
%ADD18C,0.254000*%
%ADD19C,0.756400*%
%ADD20C,0.152400*%
D10*
X43307Y784617D03*
X68707Y784617D03*
X94107Y784617D03*
D11*
X257556Y845820D03*
X232156Y845820D03*
X232156Y769620D03*
X257556Y769620D03*
X206756Y845820D03*
X181356Y845820D03*
X206756Y769620D03*
X181356Y769620D03*
D12*
X38100Y974090D03*
D13*
X63500Y974090D03*
X88900Y974090D03*
X114300Y974090D03*
X139700Y974090D03*
D12*
X256540Y979170D03*
D13*
X231140Y979170D03*
X205740Y979170D03*
X180340Y979170D03*
D14*
X396240Y739340D03*
D15*
X396240Y764340D03*
D16*
X431800Y889000D03*
X53600Y889000D03*
D13*
X374588Y982300D03*
D12*
X349188Y982300D03*
D13*
X399988Y982300D03*
X292038Y823550D03*
D17*
X292260Y764540D03*
X312260Y764540D03*
D18*
X396240Y743712D02*
X396240Y739340D01*
X396240Y743712D02*
X350520Y789432D01*
X350520Y981456D01*
X349188Y982300D01*
X71628Y812292D02*
X44196Y784860D01*
X54864Y888492D02*
X53600Y889000D01*
X44196Y784860D02*
X43307Y784617D01*
D19*
X442982Y738541D03*
X430558Y754380D03*
D18*
X442982Y741956D01*
X442982Y738541D01*
X54864Y861354D02*
X54864Y888492D01*
X71628Y844590D02*
X71628Y812292D01*
X71628Y844590D02*
X54864Y861354D01*
X257556Y769620D02*
X286512Y769620D01*
X291084Y765048D01*
X292260Y764540D01*
X374904Y946404D02*
X374904Y981456D01*
X374904Y946404D02*
X431292Y890016D01*
X374904Y981456D02*
X374588Y982300D01*
X431292Y890016D02*
X431800Y889000D01*
X94488Y783336D02*
X94488Y778764D01*
X123444Y749808D01*
X237744Y749808D01*
X257556Y769620D01*
X94488Y783336D02*
X94107Y784617D01*
X195072Y769620D02*
X206756Y769620D01*
X70104Y784860D02*
X68707Y784617D01*
X165862Y798830D02*
X195072Y769620D01*
X165862Y798830D02*
X84074Y798830D01*
X70104Y784860D01*
X205740Y963168D02*
X205740Y979170D01*
X231648Y769620D02*
X232156Y769620D01*
X89916Y973836D02*
X88900Y974090D01*
X89916Y973836D02*
X99940Y973836D01*
X110608Y963168D02*
X205740Y963168D01*
X110608Y963168D02*
X99940Y973836D01*
X205740Y963168D02*
X205740Y860127D01*
X231648Y833037D02*
X231648Y769620D01*
X231648Y833037D02*
X222758Y841927D01*
X222758Y843109D02*
X205740Y860127D01*
X222758Y843109D02*
X222758Y841927D01*
D20*
X216408Y982980D02*
X210312Y989076D01*
X153924Y989076D01*
X140208Y975360D01*
D18*
X139700Y974090D01*
D19*
X323088Y746280D03*
D18*
X323088Y872608D01*
X220806Y974890D01*
X220806Y978582D02*
X216408Y982980D01*
X220806Y978582D02*
X220806Y974890D01*
M02*
