G04 EAGLE Gerber RS-274X export*
G75*
%MOMM*%
%FSLAX34Y34*%
%LPD*%
%INSilkscreen Top*%
%IPPOS*%
%AMOC8*
5,1,8,0,0,1.08239X$1,22.5*%
G01*
%ADD10C,0.203200*%
%ADD11C,0.127000*%
%ADD12C,0.152400*%
G36*
X184809Y803888D02*
X191108Y803888D01*
X192687Y799846D01*
X194600Y799846D01*
X189047Y813670D01*
X186918Y813670D01*
X181276Y799846D01*
X183219Y799846D01*
X184809Y803888D01*
G37*
G36*
X226616Y809029D02*
X226567Y810668D01*
X226518Y811620D01*
X233916Y799846D01*
X236172Y799846D01*
X236172Y813670D01*
X234485Y813670D01*
X234485Y804605D01*
X234514Y803476D01*
X234602Y801818D01*
X227126Y813670D01*
X224948Y813670D01*
X224948Y799846D01*
X226616Y799846D01*
X226616Y809029D01*
G37*
G36*
X245423Y805576D02*
X250761Y813670D01*
X248700Y813670D01*
X244511Y807087D01*
X240302Y813670D01*
X238241Y813670D01*
X243559Y805576D01*
X243559Y799846D01*
X245423Y799846D01*
X245423Y805576D01*
G37*
G36*
X200208Y812140D02*
X204956Y812140D01*
X204956Y813670D01*
X193595Y813670D01*
X193595Y812140D01*
X198344Y812140D01*
X198344Y799846D01*
X200208Y799846D01*
X200208Y812140D01*
G37*
G36*
X212489Y812140D02*
X217238Y812140D01*
X217238Y813670D01*
X205876Y813670D01*
X205876Y812140D01*
X210625Y812140D01*
X210625Y799846D01*
X212489Y799846D01*
X212489Y812140D01*
G37*
G36*
X221434Y813670D02*
X219560Y813670D01*
X219560Y799846D01*
X221434Y799846D01*
X221434Y813670D01*
G37*
%LPC*%
G36*
X185378Y805350D02*
X187144Y809893D01*
X187566Y811053D01*
X187870Y811983D01*
X187958Y812257D01*
X188223Y811443D01*
X188498Y810634D01*
X188772Y809912D01*
X190548Y805350D01*
X185378Y805350D01*
G37*
%LPD*%
G36*
X92669Y921053D02*
X93025Y921187D01*
X93355Y921351D01*
X93661Y921544D01*
X93943Y921768D01*
X94200Y922020D01*
X94433Y922303D01*
X94641Y922615D01*
X94825Y922956D01*
X94984Y923327D01*
X95119Y923728D01*
X95229Y924159D01*
X95315Y924619D01*
X95376Y925109D01*
X95413Y925628D01*
X95425Y926177D01*
X95411Y926767D01*
X95367Y927322D01*
X95293Y927843D01*
X95191Y928331D01*
X95059Y928784D01*
X94898Y929203D01*
X94708Y929588D01*
X94488Y929939D01*
X94242Y930252D01*
X93971Y930523D01*
X93677Y930753D01*
X93358Y930941D01*
X93016Y931087D01*
X92649Y931191D01*
X92258Y931254D01*
X91843Y931275D01*
X91517Y931263D01*
X91212Y931228D01*
X90930Y931169D01*
X90669Y931086D01*
X90428Y930983D01*
X90203Y930862D01*
X89994Y930723D01*
X89802Y930565D01*
X89625Y930391D01*
X89463Y930203D01*
X89314Y929999D01*
X89180Y929781D01*
X88943Y929314D01*
X88738Y928813D01*
X88563Y928285D01*
X88414Y927732D01*
X88147Y926598D01*
X87966Y925819D01*
X87800Y925181D01*
X87648Y924684D01*
X87512Y924329D01*
X87376Y924061D01*
X87225Y923827D01*
X87060Y923625D01*
X86881Y923458D01*
X86683Y923325D01*
X86460Y923231D01*
X86212Y923174D01*
X85940Y923155D01*
X85704Y923168D01*
X85484Y923204D01*
X85278Y923265D01*
X85088Y923350D01*
X84913Y923460D01*
X84752Y923594D01*
X84607Y923752D01*
X84477Y923935D01*
X84362Y924141D01*
X84262Y924369D01*
X84178Y924618D01*
X84109Y924890D01*
X84056Y925183D01*
X84017Y925498D01*
X83994Y925836D01*
X83987Y926195D01*
X83993Y926523D01*
X84014Y926832D01*
X84049Y927124D01*
X84097Y927397D01*
X84159Y927651D01*
X84235Y927888D01*
X84325Y928106D01*
X84429Y928305D01*
X84548Y928488D01*
X84684Y928656D01*
X84836Y928808D01*
X85006Y928945D01*
X85192Y929066D01*
X85395Y929173D01*
X85615Y929263D01*
X85852Y929339D01*
X85563Y930986D01*
X85190Y930864D01*
X84845Y930721D01*
X84528Y930557D01*
X84239Y930372D01*
X83979Y930167D01*
X83748Y929941D01*
X83544Y929694D01*
X83369Y929427D01*
X83218Y929133D01*
X83087Y928809D01*
X82977Y928453D01*
X82886Y928067D01*
X82816Y927650D01*
X82766Y927201D01*
X82735Y926722D01*
X82725Y926212D01*
X82739Y925664D01*
X82779Y925148D01*
X82846Y924665D01*
X82940Y924214D01*
X83061Y923796D01*
X83208Y923411D01*
X83382Y923059D01*
X83584Y922739D01*
X83810Y922455D01*
X84058Y922209D01*
X84330Y922000D01*
X84624Y921830D01*
X84941Y921697D01*
X85280Y921602D01*
X85642Y921545D01*
X86027Y921526D01*
X86363Y921541D01*
X86680Y921584D01*
X86976Y921657D01*
X87253Y921758D01*
X87512Y921887D01*
X87754Y922042D01*
X87979Y922222D01*
X88186Y922428D01*
X88381Y922667D01*
X88566Y922946D01*
X88742Y923265D01*
X88909Y923624D01*
X89071Y924047D01*
X89233Y924558D01*
X89395Y925157D01*
X89557Y925844D01*
X89916Y927377D01*
X90004Y927711D01*
X90102Y928021D01*
X90210Y928307D01*
X90328Y928568D01*
X90459Y928804D01*
X90606Y929012D01*
X90769Y929191D01*
X90950Y929343D01*
X91152Y929464D01*
X91383Y929550D01*
X91643Y929602D01*
X91931Y929619D01*
X92192Y929606D01*
X92437Y929564D01*
X92665Y929495D01*
X92878Y929399D01*
X93074Y929275D01*
X93253Y929124D01*
X93417Y928945D01*
X93564Y928739D01*
X93694Y928507D01*
X93807Y928253D01*
X93903Y927975D01*
X93981Y927674D01*
X94042Y927350D01*
X94085Y927002D01*
X94111Y926632D01*
X94120Y926238D01*
X94112Y925857D01*
X94088Y925496D01*
X94047Y925155D01*
X93990Y924835D01*
X93917Y924535D01*
X93827Y924256D01*
X93721Y923998D01*
X93599Y923760D01*
X93460Y923542D01*
X93302Y923344D01*
X93125Y923165D01*
X92930Y923007D01*
X92717Y922868D01*
X92485Y922748D01*
X92234Y922649D01*
X91966Y922569D01*
X92290Y920948D01*
X92669Y921053D01*
G37*
G36*
X89507Y933025D02*
X89975Y933058D01*
X90426Y933114D01*
X90861Y933192D01*
X91279Y933292D01*
X91681Y933415D01*
X92066Y933560D01*
X92434Y933727D01*
X92784Y933916D01*
X93113Y934125D01*
X93421Y934354D01*
X93709Y934603D01*
X93975Y934873D01*
X94221Y935163D01*
X94446Y935473D01*
X94650Y935803D01*
X94832Y936151D01*
X94989Y936515D01*
X95122Y936895D01*
X95231Y937291D01*
X95316Y937702D01*
X95377Y938129D01*
X95413Y938572D01*
X95425Y939031D01*
X95412Y939479D01*
X95373Y939914D01*
X95308Y940335D01*
X95217Y940742D01*
X95100Y941135D01*
X94957Y941514D01*
X94788Y941880D01*
X94593Y942232D01*
X94373Y942567D01*
X94129Y942883D01*
X93862Y943180D01*
X93571Y943457D01*
X93255Y943715D01*
X92916Y943954D01*
X92554Y944173D01*
X92167Y944373D01*
X91484Y943007D01*
X91795Y942839D01*
X92085Y942661D01*
X92356Y942472D01*
X92607Y942274D01*
X92837Y942066D01*
X93048Y941847D01*
X93238Y941619D01*
X93409Y941380D01*
X93559Y941131D01*
X93689Y940873D01*
X93799Y940604D01*
X93890Y940325D01*
X93960Y940036D01*
X94010Y939737D01*
X94040Y939428D01*
X94050Y939109D01*
X94029Y938617D01*
X93964Y938150D01*
X93856Y937710D01*
X93705Y937295D01*
X93511Y936907D01*
X93274Y936545D01*
X92994Y936209D01*
X92671Y935899D01*
X92312Y935621D01*
X91925Y935380D01*
X91511Y935176D01*
X91069Y935009D01*
X90599Y934879D01*
X90101Y934787D01*
X89576Y934731D01*
X89023Y934713D01*
X88464Y934730D01*
X87936Y934784D01*
X87439Y934873D01*
X86972Y934997D01*
X86536Y935157D01*
X86130Y935353D01*
X85755Y935584D01*
X85410Y935851D01*
X85101Y936150D01*
X84833Y936477D01*
X84607Y936833D01*
X84421Y937217D01*
X84277Y937630D01*
X84174Y938071D01*
X84112Y938541D01*
X84092Y939039D01*
X84101Y939360D01*
X84127Y939670D01*
X84172Y939968D01*
X84234Y940256D01*
X84314Y940532D01*
X84412Y940797D01*
X84528Y941051D01*
X84661Y941295D01*
X84811Y941524D01*
X84977Y941737D01*
X85159Y941934D01*
X85357Y942115D01*
X85571Y942279D01*
X85801Y942427D01*
X86046Y942559D01*
X86308Y942674D01*
X85782Y944259D01*
X85415Y944093D01*
X85071Y943905D01*
X84750Y943694D01*
X84453Y943462D01*
X84179Y943208D01*
X83928Y942932D01*
X83700Y942635D01*
X83496Y942315D01*
X83315Y941974D01*
X83159Y941613D01*
X83026Y941232D01*
X82918Y940830D01*
X82834Y940409D01*
X82773Y939967D01*
X82737Y939504D01*
X82725Y939022D01*
X82732Y938674D01*
X82751Y938336D01*
X82784Y938007D01*
X82830Y937688D01*
X82889Y937379D01*
X82961Y937079D01*
X83046Y936789D01*
X83144Y936508D01*
X83255Y936237D01*
X83379Y935975D01*
X83516Y935723D01*
X83666Y935481D01*
X84006Y935025D01*
X84398Y934607D01*
X84836Y934234D01*
X85315Y933910D01*
X85833Y933636D01*
X86107Y933518D01*
X86391Y933412D01*
X86685Y933319D01*
X86989Y933238D01*
X87303Y933169D01*
X87627Y933113D01*
X87961Y933069D01*
X88305Y933038D01*
X88659Y933020D01*
X89023Y933013D01*
X89507Y933025D01*
G37*
G36*
X95250Y954452D02*
X93884Y954452D01*
X93884Y948216D01*
X82909Y948216D01*
X82909Y946543D01*
X95250Y946543D01*
X95250Y954452D01*
G37*
G36*
X120650Y936190D02*
X120638Y936630D01*
X120602Y937057D01*
X120543Y937471D01*
X120460Y937871D01*
X120352Y938259D01*
X120221Y938633D01*
X120067Y938995D01*
X119888Y939343D01*
X119687Y939675D01*
X119465Y939987D01*
X119222Y940280D01*
X118959Y940554D01*
X118674Y940808D01*
X118368Y941042D01*
X118042Y941258D01*
X117694Y941454D01*
X117329Y941628D01*
X116948Y941779D01*
X116553Y941907D01*
X116143Y942012D01*
X115718Y942093D01*
X115277Y942152D01*
X114823Y942186D01*
X114353Y942198D01*
X113995Y942191D01*
X113649Y942171D01*
X113312Y942138D01*
X112986Y942092D01*
X112670Y942032D01*
X112365Y941958D01*
X112070Y941872D01*
X111785Y941772D01*
X111511Y941659D01*
X111247Y941533D01*
X110994Y941393D01*
X110750Y941240D01*
X110518Y941073D01*
X110295Y940894D01*
X110083Y940701D01*
X109881Y940495D01*
X109691Y940276D01*
X109513Y940046D01*
X109347Y939805D01*
X109194Y939553D01*
X109052Y939290D01*
X108923Y939015D01*
X108807Y938730D01*
X108702Y938433D01*
X108610Y938125D01*
X108530Y937806D01*
X108463Y937475D01*
X108408Y937134D01*
X108365Y936781D01*
X108334Y936417D01*
X108315Y936042D01*
X108309Y935655D01*
X108309Y931574D01*
X120650Y931574D01*
X120650Y936190D01*
G37*
%LPC*%
G36*
X109649Y933247D02*
X109649Y935620D01*
X109668Y936198D01*
X109725Y936741D01*
X109819Y937249D01*
X109950Y937721D01*
X110120Y938159D01*
X110327Y938561D01*
X110571Y938928D01*
X110854Y939260D01*
X111172Y939554D01*
X111524Y939809D01*
X111910Y940025D01*
X112331Y940202D01*
X112785Y940340D01*
X113273Y940438D01*
X113796Y940497D01*
X114353Y940516D01*
X114727Y940508D01*
X115089Y940482D01*
X115439Y940439D01*
X115776Y940378D01*
X116100Y940301D01*
X116412Y940206D01*
X116711Y940094D01*
X116998Y939965D01*
X117270Y939819D01*
X117525Y939659D01*
X117765Y939484D01*
X117987Y939293D01*
X118194Y939088D01*
X118384Y938868D01*
X118557Y938634D01*
X118714Y938384D01*
X118854Y938121D01*
X118975Y937849D01*
X119077Y937566D01*
X119161Y937272D01*
X119226Y936969D01*
X119273Y936655D01*
X119301Y936331D01*
X119310Y935997D01*
X119310Y933247D01*
X109649Y933247D01*
G37*
%LPD*%
G36*
X120650Y944840D02*
X117042Y946259D01*
X117042Y951882D01*
X120650Y953292D01*
X120650Y955000D01*
X108309Y950043D01*
X108309Y948142D01*
X120650Y943106D01*
X120650Y944840D01*
G37*
G36*
X118069Y919053D02*
X118425Y919187D01*
X118755Y919351D01*
X119061Y919544D01*
X119343Y919768D01*
X119600Y920020D01*
X119833Y920303D01*
X120041Y920615D01*
X120225Y920956D01*
X120384Y921327D01*
X120519Y921728D01*
X120629Y922159D01*
X120715Y922619D01*
X120776Y923109D01*
X120813Y923628D01*
X120825Y924177D01*
X120811Y924767D01*
X120767Y925322D01*
X120693Y925843D01*
X120591Y926331D01*
X120459Y926784D01*
X120298Y927203D01*
X120108Y927588D01*
X119888Y927939D01*
X119642Y928252D01*
X119371Y928523D01*
X119077Y928753D01*
X118758Y928941D01*
X118416Y929087D01*
X118049Y929191D01*
X117658Y929254D01*
X117243Y929275D01*
X116917Y929263D01*
X116612Y929228D01*
X116330Y929169D01*
X116069Y929086D01*
X115828Y928983D01*
X115603Y928862D01*
X115394Y928723D01*
X115202Y928565D01*
X115025Y928391D01*
X114863Y928203D01*
X114714Y927999D01*
X114580Y927781D01*
X114343Y927314D01*
X114138Y926813D01*
X113963Y926285D01*
X113814Y925732D01*
X113547Y924598D01*
X113366Y923819D01*
X113200Y923181D01*
X113048Y922684D01*
X112912Y922329D01*
X112776Y922061D01*
X112625Y921827D01*
X112460Y921625D01*
X112281Y921458D01*
X112083Y921325D01*
X111860Y921231D01*
X111612Y921174D01*
X111340Y921155D01*
X111104Y921168D01*
X110884Y921204D01*
X110678Y921265D01*
X110488Y921350D01*
X110313Y921460D01*
X110152Y921594D01*
X110007Y921752D01*
X109877Y921935D01*
X109762Y922141D01*
X109662Y922369D01*
X109578Y922618D01*
X109509Y922890D01*
X109456Y923183D01*
X109417Y923498D01*
X109394Y923836D01*
X109387Y924195D01*
X109393Y924523D01*
X109414Y924832D01*
X109449Y925124D01*
X109497Y925397D01*
X109559Y925651D01*
X109635Y925888D01*
X109725Y926106D01*
X109829Y926305D01*
X109948Y926488D01*
X110084Y926656D01*
X110236Y926808D01*
X110406Y926945D01*
X110592Y927066D01*
X110795Y927173D01*
X111015Y927263D01*
X111252Y927339D01*
X110963Y928986D01*
X110590Y928864D01*
X110245Y928721D01*
X109928Y928557D01*
X109639Y928372D01*
X109379Y928167D01*
X109148Y927941D01*
X108944Y927694D01*
X108769Y927427D01*
X108618Y927133D01*
X108487Y926809D01*
X108377Y926453D01*
X108286Y926067D01*
X108216Y925650D01*
X108166Y925201D01*
X108135Y924722D01*
X108125Y924212D01*
X108139Y923664D01*
X108179Y923148D01*
X108246Y922665D01*
X108340Y922214D01*
X108461Y921796D01*
X108608Y921411D01*
X108782Y921059D01*
X108984Y920739D01*
X109210Y920455D01*
X109458Y920209D01*
X109730Y920000D01*
X110024Y919830D01*
X110341Y919697D01*
X110680Y919602D01*
X111042Y919545D01*
X111427Y919526D01*
X111763Y919541D01*
X112080Y919584D01*
X112376Y919657D01*
X112653Y919758D01*
X112912Y919887D01*
X113154Y920042D01*
X113379Y920222D01*
X113586Y920428D01*
X113781Y920667D01*
X113966Y920946D01*
X114142Y921265D01*
X114309Y921624D01*
X114471Y922047D01*
X114633Y922558D01*
X114795Y923157D01*
X114957Y923844D01*
X115316Y925377D01*
X115404Y925711D01*
X115502Y926021D01*
X115610Y926307D01*
X115728Y926568D01*
X115859Y926804D01*
X116006Y927012D01*
X116169Y927191D01*
X116350Y927343D01*
X116552Y927464D01*
X116783Y927550D01*
X117043Y927602D01*
X117331Y927619D01*
X117592Y927606D01*
X117837Y927564D01*
X118065Y927495D01*
X118278Y927399D01*
X118474Y927275D01*
X118653Y927124D01*
X118817Y926945D01*
X118964Y926739D01*
X119094Y926507D01*
X119207Y926253D01*
X119303Y925975D01*
X119381Y925674D01*
X119442Y925350D01*
X119485Y925002D01*
X119511Y924632D01*
X119520Y924238D01*
X119512Y923857D01*
X119488Y923496D01*
X119447Y923155D01*
X119390Y922835D01*
X119317Y922535D01*
X119227Y922256D01*
X119121Y921998D01*
X118999Y921760D01*
X118860Y921542D01*
X118702Y921344D01*
X118525Y921165D01*
X118330Y921007D01*
X118117Y920868D01*
X117885Y920748D01*
X117634Y920649D01*
X117366Y920569D01*
X117690Y918948D01*
X118069Y919053D01*
G37*
%LPC*%
G36*
X111681Y948344D02*
X110646Y948721D01*
X109816Y948992D01*
X109570Y949071D01*
X110297Y949307D01*
X111020Y949553D01*
X111664Y949798D01*
X115736Y951383D01*
X115736Y946767D01*
X111681Y948344D01*
G37*
%LPD*%
G36*
X146050Y922221D02*
X146038Y922661D01*
X146002Y923088D01*
X145943Y923502D01*
X145860Y923903D01*
X145752Y924290D01*
X145621Y924665D01*
X145467Y925026D01*
X145288Y925374D01*
X145087Y925706D01*
X144865Y926018D01*
X144622Y926311D01*
X144359Y926585D01*
X144074Y926839D01*
X143768Y927074D01*
X143442Y927289D01*
X143094Y927485D01*
X142729Y927659D01*
X142348Y927811D01*
X141953Y927938D01*
X141543Y928043D01*
X141118Y928125D01*
X140677Y928183D01*
X140223Y928218D01*
X139753Y928229D01*
X139395Y928223D01*
X139049Y928203D01*
X138712Y928169D01*
X138386Y928123D01*
X138070Y928063D01*
X137765Y927990D01*
X137470Y927903D01*
X137185Y927803D01*
X136911Y927690D01*
X136647Y927564D01*
X136394Y927424D01*
X136150Y927271D01*
X135918Y927105D01*
X135695Y926925D01*
X135483Y926732D01*
X135281Y926526D01*
X135091Y926307D01*
X134913Y926078D01*
X134747Y925837D01*
X134594Y925584D01*
X134452Y925321D01*
X134323Y925047D01*
X134207Y924761D01*
X134102Y924464D01*
X134010Y924156D01*
X133930Y923837D01*
X133863Y923507D01*
X133808Y923165D01*
X133765Y922812D01*
X133734Y922448D01*
X133715Y922073D01*
X133709Y921687D01*
X133709Y917605D01*
X146050Y917605D01*
X146050Y922221D01*
G37*
G36*
X146050Y935190D02*
X146038Y935630D01*
X146002Y936057D01*
X145943Y936471D01*
X145860Y936871D01*
X145752Y937259D01*
X145621Y937633D01*
X145467Y937995D01*
X145288Y938343D01*
X145087Y938675D01*
X144865Y938987D01*
X144622Y939280D01*
X144359Y939554D01*
X144074Y939808D01*
X143768Y940042D01*
X143442Y940258D01*
X143094Y940454D01*
X142729Y940628D01*
X142348Y940779D01*
X141953Y940907D01*
X141543Y941012D01*
X141118Y941093D01*
X140677Y941152D01*
X140223Y941186D01*
X139753Y941198D01*
X139395Y941191D01*
X139049Y941171D01*
X138712Y941138D01*
X138386Y941092D01*
X138070Y941032D01*
X137765Y940958D01*
X137470Y940872D01*
X137185Y940772D01*
X136911Y940659D01*
X136647Y940533D01*
X136394Y940393D01*
X136150Y940240D01*
X135918Y940073D01*
X135695Y939894D01*
X135483Y939701D01*
X135281Y939495D01*
X135091Y939276D01*
X134913Y939046D01*
X134747Y938805D01*
X134594Y938553D01*
X134452Y938290D01*
X134323Y938015D01*
X134207Y937730D01*
X134102Y937433D01*
X134010Y937125D01*
X133930Y936806D01*
X133863Y936475D01*
X133808Y936134D01*
X133765Y935781D01*
X133734Y935417D01*
X133715Y935042D01*
X133709Y934655D01*
X133709Y930574D01*
X146050Y930574D01*
X146050Y935190D01*
G37*
G36*
X146050Y945216D02*
X140926Y945216D01*
X140926Y949061D01*
X146050Y952266D01*
X146050Y954193D01*
X142997Y952181D01*
X140734Y950690D01*
X140661Y951033D01*
X140568Y951357D01*
X140452Y951662D01*
X140315Y951948D01*
X140223Y952104D01*
X140157Y952215D01*
X139977Y952462D01*
X139775Y952691D01*
X139551Y952901D01*
X139310Y953089D01*
X139055Y953252D01*
X138787Y953390D01*
X138505Y953502D01*
X138209Y953590D01*
X137899Y953653D01*
X137576Y953690D01*
X137239Y953703D01*
X136834Y953685D01*
X136453Y953632D01*
X136094Y953543D01*
X135758Y953419D01*
X135444Y953260D01*
X135154Y953065D01*
X134887Y952834D01*
X134642Y952568D01*
X134423Y952270D01*
X134234Y951942D01*
X134074Y951584D01*
X133942Y951197D01*
X133840Y950779D01*
X133768Y950332D01*
X133724Y949856D01*
X133709Y949350D01*
X133709Y943543D01*
X146050Y943543D01*
X146050Y945216D01*
G37*
%LPC*%
G36*
X135049Y919278D02*
X135049Y921652D01*
X135068Y922230D01*
X135125Y922772D01*
X135219Y923280D01*
X135350Y923753D01*
X135520Y924190D01*
X135727Y924592D01*
X135971Y924959D01*
X136254Y925291D01*
X136572Y925585D01*
X136924Y925841D01*
X137310Y926057D01*
X137731Y926233D01*
X138185Y926371D01*
X138673Y926469D01*
X139196Y926528D01*
X139753Y926548D01*
X140127Y926539D01*
X140489Y926513D01*
X140839Y926470D01*
X141176Y926410D01*
X141500Y926332D01*
X141812Y926237D01*
X142111Y926125D01*
X142398Y925996D01*
X142670Y925850D01*
X142925Y925690D01*
X143165Y925515D01*
X143387Y925325D01*
X143594Y925120D01*
X143784Y924900D01*
X143957Y924665D01*
X144114Y924415D01*
X144254Y924153D01*
X144375Y923880D01*
X144477Y923597D01*
X144561Y923304D01*
X144626Y923000D01*
X144673Y922687D01*
X144701Y922363D01*
X144710Y922028D01*
X144710Y919278D01*
X135049Y919278D01*
G37*
G36*
X135049Y932247D02*
X135049Y934620D01*
X135068Y935198D01*
X135125Y935741D01*
X135219Y936249D01*
X135350Y936721D01*
X135520Y937159D01*
X135727Y937561D01*
X135971Y937928D01*
X136254Y938260D01*
X136572Y938554D01*
X136924Y938809D01*
X137310Y939025D01*
X137731Y939202D01*
X138185Y939340D01*
X138673Y939438D01*
X139196Y939497D01*
X139753Y939516D01*
X140127Y939508D01*
X140489Y939482D01*
X140839Y939439D01*
X141176Y939378D01*
X141500Y939301D01*
X141812Y939206D01*
X142111Y939094D01*
X142398Y938965D01*
X142670Y938819D01*
X142925Y938659D01*
X143165Y938484D01*
X143387Y938293D01*
X143594Y938088D01*
X143784Y937868D01*
X143957Y937634D01*
X144114Y937384D01*
X144254Y937121D01*
X144375Y936849D01*
X144477Y936566D01*
X144561Y936272D01*
X144626Y935969D01*
X144673Y935655D01*
X144701Y935331D01*
X144710Y934997D01*
X144710Y932247D01*
X135049Y932247D01*
G37*
%LPD*%
G36*
X146050Y905934D02*
X142442Y907353D01*
X142442Y912976D01*
X146050Y914386D01*
X146050Y916094D01*
X133709Y911137D01*
X133709Y909236D01*
X146050Y904200D01*
X146050Y905934D01*
G37*
%LPC*%
G36*
X135049Y945216D02*
X135049Y949183D01*
X135058Y949517D01*
X135085Y949830D01*
X135129Y950124D01*
X135191Y950397D01*
X135270Y950651D01*
X135367Y950884D01*
X135482Y951097D01*
X135614Y951290D01*
X135763Y951461D01*
X135929Y951610D01*
X136110Y951735D01*
X136307Y951838D01*
X136521Y951918D01*
X136750Y951975D01*
X136995Y952010D01*
X137256Y952021D01*
X137527Y952010D01*
X137782Y951976D01*
X138021Y951919D01*
X138245Y951840D01*
X138454Y951739D01*
X138647Y951615D01*
X138824Y951468D01*
X138986Y951298D01*
X139131Y951108D01*
X139256Y950900D01*
X139363Y950672D01*
X139449Y950426D01*
X139517Y950161D01*
X139565Y949877D01*
X139594Y949575D01*
X139604Y949253D01*
X139604Y945216D01*
X135049Y945216D01*
G37*
G36*
X137081Y909438D02*
X136046Y909814D01*
X135216Y910086D01*
X134970Y910165D01*
X135697Y910401D01*
X136420Y910646D01*
X137064Y910892D01*
X141136Y912477D01*
X141136Y907861D01*
X137081Y909438D01*
G37*
%LPD*%
G36*
X69850Y948158D02*
X69838Y948599D01*
X69802Y949026D01*
X69743Y949439D01*
X69660Y949840D01*
X69552Y950228D01*
X69421Y950602D01*
X69267Y950963D01*
X69088Y951312D01*
X68887Y951643D01*
X68665Y951956D01*
X68422Y952249D01*
X68159Y952522D01*
X67874Y952777D01*
X67568Y953011D01*
X67242Y953226D01*
X66894Y953422D01*
X66529Y953597D01*
X66148Y953748D01*
X65753Y953876D01*
X65343Y953981D01*
X64918Y954062D01*
X64477Y954120D01*
X64023Y954155D01*
X63553Y954167D01*
X63195Y954160D01*
X62849Y954140D01*
X62512Y954107D01*
X62186Y954060D01*
X61870Y954000D01*
X61565Y953927D01*
X61270Y953841D01*
X60985Y953741D01*
X60711Y953628D01*
X60447Y953501D01*
X60194Y953362D01*
X59950Y953209D01*
X59718Y953042D01*
X59495Y952863D01*
X59283Y952670D01*
X59081Y952463D01*
X58891Y952245D01*
X58713Y952015D01*
X58547Y951774D01*
X58394Y951522D01*
X58252Y951259D01*
X58123Y950984D01*
X58007Y950699D01*
X57902Y950402D01*
X57810Y950094D01*
X57730Y949774D01*
X57663Y949444D01*
X57608Y949102D01*
X57565Y948750D01*
X57534Y948386D01*
X57515Y948011D01*
X57509Y947624D01*
X57509Y943543D01*
X69850Y943543D01*
X69850Y948158D01*
G37*
%LPC*%
G36*
X58849Y945216D02*
X58849Y947589D01*
X58868Y948167D01*
X58925Y948710D01*
X59019Y949218D01*
X59150Y949690D01*
X59320Y950127D01*
X59527Y950530D01*
X59771Y950897D01*
X60054Y951228D01*
X60372Y951523D01*
X60724Y951778D01*
X61110Y951994D01*
X61531Y952171D01*
X61985Y952308D01*
X62473Y952407D01*
X62996Y952466D01*
X63553Y952485D01*
X63927Y952477D01*
X64289Y952451D01*
X64639Y952408D01*
X64976Y952347D01*
X65300Y952270D01*
X65612Y952175D01*
X65911Y952063D01*
X66198Y951933D01*
X66470Y951788D01*
X66725Y951628D01*
X66965Y951452D01*
X67187Y951262D01*
X67394Y951057D01*
X67584Y950837D01*
X67757Y950602D01*
X67914Y950352D01*
X68054Y950090D01*
X68175Y949817D01*
X68277Y949534D01*
X68361Y949241D01*
X68426Y948938D01*
X68473Y948624D01*
X68501Y948300D01*
X68510Y947966D01*
X68510Y945216D01*
X58849Y945216D01*
G37*
%LPD*%
G36*
X69850Y932063D02*
X61652Y932063D01*
X60189Y932019D01*
X59340Y931975D01*
X69850Y938579D01*
X69850Y940594D01*
X57509Y940594D01*
X57509Y939087D01*
X65602Y939087D01*
X66609Y939114D01*
X68090Y939192D01*
X57509Y932518D01*
X57509Y930574D01*
X69850Y930574D01*
X69850Y932063D01*
G37*
G36*
X64105Y916079D02*
X64572Y916113D01*
X65022Y916171D01*
X65457Y916252D01*
X65875Y916356D01*
X66277Y916483D01*
X66664Y916634D01*
X67034Y916807D01*
X67386Y917003D01*
X67717Y917219D01*
X68026Y917455D01*
X68314Y917713D01*
X68581Y917991D01*
X68827Y918289D01*
X69051Y918609D01*
X69254Y918949D01*
X69435Y919307D01*
X69592Y919683D01*
X69724Y920075D01*
X69833Y920484D01*
X69917Y920909D01*
X69977Y921351D01*
X70013Y921810D01*
X70025Y922286D01*
X70017Y922698D01*
X69991Y923103D01*
X69948Y923500D01*
X69888Y923890D01*
X69811Y924272D01*
X69717Y924646D01*
X69606Y925014D01*
X69478Y925373D01*
X69334Y925722D01*
X69176Y926057D01*
X69004Y926378D01*
X68818Y926686D01*
X68617Y926979D01*
X68403Y927259D01*
X68174Y927525D01*
X67932Y927777D01*
X63675Y927777D01*
X63675Y922548D01*
X65077Y922548D01*
X65077Y926236D01*
X67301Y926236D01*
X67600Y925887D01*
X67866Y925488D01*
X68099Y925039D01*
X68300Y924541D01*
X68461Y924008D01*
X68576Y923454D01*
X68645Y922880D01*
X68668Y922286D01*
X68646Y921770D01*
X68583Y921283D01*
X68477Y920825D01*
X68329Y920396D01*
X68139Y919995D01*
X67906Y919624D01*
X67632Y919281D01*
X67314Y918966D01*
X66961Y918685D01*
X66576Y918441D01*
X66161Y918235D01*
X65715Y918066D01*
X65238Y917935D01*
X64730Y917841D01*
X64192Y917785D01*
X63623Y917766D01*
X63052Y917784D01*
X62515Y917837D01*
X62011Y917925D01*
X61539Y918049D01*
X61101Y918208D01*
X60695Y918402D01*
X60323Y918631D01*
X59984Y918896D01*
X59681Y919194D01*
X59418Y919524D01*
X59196Y919885D01*
X59015Y920278D01*
X58873Y920702D01*
X58772Y921157D01*
X58712Y921645D01*
X58692Y922163D01*
X58699Y922500D01*
X58722Y922822D01*
X58759Y923131D01*
X58812Y923425D01*
X58880Y923706D01*
X58963Y923972D01*
X59060Y924224D01*
X59173Y924462D01*
X59303Y924687D01*
X59450Y924899D01*
X59615Y925099D01*
X59797Y925287D01*
X59998Y925462D01*
X60216Y925624D01*
X60452Y925774D01*
X60706Y925912D01*
X60233Y927506D01*
X59865Y927324D01*
X59523Y927123D01*
X59207Y926904D01*
X58917Y926667D01*
X58653Y926412D01*
X58415Y926138D01*
X58203Y925846D01*
X58017Y925535D01*
X57855Y925203D01*
X57715Y924848D01*
X57596Y924468D01*
X57498Y924064D01*
X57423Y923636D01*
X57369Y923183D01*
X57336Y922707D01*
X57325Y922207D01*
X57332Y921847D01*
X57351Y921498D01*
X57383Y921159D01*
X57428Y920830D01*
X57486Y920511D01*
X57557Y920203D01*
X57640Y919905D01*
X57737Y919617D01*
X57846Y919339D01*
X57969Y919071D01*
X58104Y918813D01*
X58252Y918566D01*
X58412Y918329D01*
X58586Y918102D01*
X58972Y917679D01*
X59405Y917301D01*
X59637Y917131D01*
X59880Y916974D01*
X60134Y916829D01*
X60398Y916697D01*
X60673Y916577D01*
X60958Y916470D01*
X61254Y916376D01*
X61560Y916294D01*
X61878Y916225D01*
X62205Y916168D01*
X62544Y916124D01*
X62893Y916092D01*
X63252Y916073D01*
X63623Y916067D01*
X64105Y916079D01*
G37*
G36*
X38707Y930025D02*
X39175Y930058D01*
X39626Y930114D01*
X40061Y930192D01*
X40479Y930292D01*
X40881Y930415D01*
X41266Y930560D01*
X41634Y930727D01*
X41984Y930916D01*
X42313Y931125D01*
X42621Y931354D01*
X42909Y931603D01*
X43175Y931873D01*
X43421Y932163D01*
X43646Y932473D01*
X43850Y932803D01*
X44032Y933151D01*
X44189Y933515D01*
X44322Y933895D01*
X44431Y934291D01*
X44516Y934702D01*
X44577Y935129D01*
X44613Y935572D01*
X44625Y936031D01*
X44612Y936479D01*
X44573Y936914D01*
X44508Y937335D01*
X44417Y937742D01*
X44300Y938135D01*
X44157Y938514D01*
X43988Y938880D01*
X43793Y939232D01*
X43573Y939567D01*
X43329Y939883D01*
X43062Y940180D01*
X42771Y940457D01*
X42455Y940715D01*
X42116Y940954D01*
X41754Y941173D01*
X41367Y941373D01*
X40684Y940007D01*
X40995Y939839D01*
X41285Y939661D01*
X41556Y939472D01*
X41807Y939274D01*
X42037Y939066D01*
X42248Y938847D01*
X42438Y938619D01*
X42609Y938380D01*
X42759Y938131D01*
X42889Y937873D01*
X42999Y937604D01*
X43090Y937325D01*
X43160Y937036D01*
X43210Y936737D01*
X43240Y936428D01*
X43250Y936109D01*
X43229Y935617D01*
X43164Y935150D01*
X43056Y934710D01*
X42905Y934295D01*
X42711Y933907D01*
X42474Y933545D01*
X42194Y933209D01*
X41871Y932899D01*
X41512Y932621D01*
X41125Y932380D01*
X40711Y932176D01*
X40269Y932009D01*
X39799Y931879D01*
X39301Y931787D01*
X38776Y931731D01*
X38223Y931713D01*
X37664Y931730D01*
X37136Y931784D01*
X36639Y931873D01*
X36172Y931997D01*
X35736Y932157D01*
X35330Y932353D01*
X34955Y932584D01*
X34610Y932851D01*
X34301Y933150D01*
X34033Y933477D01*
X33807Y933833D01*
X33621Y934217D01*
X33477Y934630D01*
X33374Y935071D01*
X33312Y935541D01*
X33292Y936039D01*
X33301Y936360D01*
X33327Y936670D01*
X33372Y936968D01*
X33434Y937256D01*
X33514Y937532D01*
X33612Y937797D01*
X33728Y938051D01*
X33861Y938295D01*
X34011Y938524D01*
X34177Y938737D01*
X34359Y938934D01*
X34557Y939115D01*
X34771Y939279D01*
X35001Y939427D01*
X35246Y939559D01*
X35508Y939674D01*
X34982Y941259D01*
X34615Y941093D01*
X34271Y940905D01*
X33950Y940694D01*
X33653Y940462D01*
X33379Y940208D01*
X33128Y939932D01*
X32900Y939635D01*
X32696Y939315D01*
X32515Y938974D01*
X32359Y938613D01*
X32226Y938232D01*
X32118Y937830D01*
X32034Y937409D01*
X31973Y936967D01*
X31937Y936504D01*
X31925Y936022D01*
X31932Y935674D01*
X31951Y935336D01*
X31984Y935007D01*
X32030Y934688D01*
X32089Y934379D01*
X32161Y934079D01*
X32246Y933789D01*
X32344Y933508D01*
X32455Y933237D01*
X32579Y932975D01*
X32716Y932723D01*
X32866Y932481D01*
X33206Y932025D01*
X33598Y931607D01*
X34036Y931234D01*
X34515Y930910D01*
X35033Y930636D01*
X35307Y930518D01*
X35591Y930412D01*
X35885Y930319D01*
X36189Y930238D01*
X36503Y930169D01*
X36827Y930113D01*
X37161Y930069D01*
X37505Y930038D01*
X37859Y930020D01*
X38223Y930013D01*
X38707Y930025D01*
G37*
G36*
X38707Y942993D02*
X39175Y943027D01*
X39626Y943083D01*
X40061Y943161D01*
X40479Y943261D01*
X40881Y943384D01*
X41266Y943529D01*
X41634Y943696D01*
X41984Y943885D01*
X42313Y944093D01*
X42621Y944322D01*
X42909Y944572D01*
X43175Y944841D01*
X43421Y945131D01*
X43646Y945441D01*
X43850Y945772D01*
X44032Y946120D01*
X44189Y946484D01*
X44322Y946864D01*
X44431Y947260D01*
X44516Y947671D01*
X44577Y948098D01*
X44613Y948541D01*
X44625Y948999D01*
X44612Y949448D01*
X44573Y949883D01*
X44508Y950303D01*
X44417Y950710D01*
X44300Y951104D01*
X44157Y951483D01*
X43988Y951849D01*
X43793Y952201D01*
X43573Y952536D01*
X43329Y952852D01*
X43062Y953148D01*
X42771Y953426D01*
X42455Y953684D01*
X42116Y953922D01*
X41754Y954142D01*
X41367Y954342D01*
X40684Y952976D01*
X40995Y952807D01*
X41285Y952629D01*
X41556Y952441D01*
X41807Y952243D01*
X42037Y952034D01*
X42248Y951816D01*
X42438Y951587D01*
X42609Y951349D01*
X42759Y951100D01*
X42889Y950841D01*
X42999Y950573D01*
X43090Y950294D01*
X43160Y950005D01*
X43210Y949706D01*
X43240Y949397D01*
X43250Y949078D01*
X43229Y948585D01*
X43164Y948119D01*
X43056Y947678D01*
X42905Y947264D01*
X42711Y946876D01*
X42474Y946514D01*
X42194Y946178D01*
X41871Y945868D01*
X41512Y945590D01*
X41125Y945349D01*
X40711Y945145D01*
X40269Y944978D01*
X39799Y944848D01*
X39301Y944755D01*
X38776Y944700D01*
X38223Y944681D01*
X37664Y944699D01*
X37136Y944752D01*
X36639Y944841D01*
X36172Y944966D01*
X35736Y945126D01*
X35330Y945322D01*
X34955Y945553D01*
X34610Y945820D01*
X34301Y946119D01*
X34033Y946446D01*
X33807Y946802D01*
X33621Y947186D01*
X33477Y947599D01*
X33374Y948040D01*
X33312Y948510D01*
X33292Y949008D01*
X33301Y949329D01*
X33327Y949638D01*
X33372Y949937D01*
X33434Y950224D01*
X33514Y950501D01*
X33612Y950766D01*
X33728Y951020D01*
X33861Y951263D01*
X34011Y951493D01*
X34177Y951706D01*
X34359Y951903D01*
X34557Y952083D01*
X34771Y952248D01*
X35001Y952396D01*
X35246Y952527D01*
X35508Y952643D01*
X34982Y954228D01*
X34615Y954062D01*
X34271Y953873D01*
X33950Y953663D01*
X33653Y953431D01*
X33379Y953177D01*
X33128Y952901D01*
X32900Y952603D01*
X32696Y952284D01*
X32515Y951943D01*
X32359Y951582D01*
X32226Y951201D01*
X32118Y950799D01*
X32034Y950377D01*
X31973Y949935D01*
X31937Y949473D01*
X31925Y948991D01*
X31932Y948643D01*
X31951Y948305D01*
X31984Y947976D01*
X32030Y947657D01*
X32089Y947348D01*
X32161Y947048D01*
X32246Y946757D01*
X32344Y946477D01*
X32455Y946206D01*
X32579Y945944D01*
X32716Y945692D01*
X32866Y945450D01*
X33206Y944994D01*
X33598Y944576D01*
X34036Y944203D01*
X34515Y943879D01*
X35033Y943605D01*
X35307Y943487D01*
X35591Y943381D01*
X35885Y943287D01*
X36189Y943206D01*
X36503Y943138D01*
X36827Y943082D01*
X37161Y943038D01*
X37505Y943007D01*
X37859Y942988D01*
X38223Y942982D01*
X38707Y942993D01*
G37*
G36*
X44450Y922249D02*
X44450Y923983D01*
X32109Y929019D01*
X32109Y927259D01*
X40798Y923860D01*
X42979Y923125D01*
X40798Y922389D01*
X32109Y918973D01*
X32109Y917213D01*
X44450Y922249D01*
G37*
G36*
X93980Y813192D02*
X93969Y813607D01*
X93934Y813999D01*
X93877Y814368D01*
X93797Y814713D01*
X93694Y815035D01*
X93568Y815333D01*
X93420Y815608D01*
X93248Y815860D01*
X93056Y816085D01*
X92846Y816280D01*
X92617Y816445D01*
X92370Y816580D01*
X92105Y816685D01*
X91821Y816760D01*
X91520Y816805D01*
X91200Y816820D01*
X90958Y816810D01*
X90727Y816780D01*
X90507Y816730D01*
X90297Y816660D01*
X90098Y816571D01*
X89909Y816461D01*
X89731Y816332D01*
X89564Y816182D01*
X89481Y816092D01*
X89410Y816014D01*
X89272Y815830D01*
X89150Y815628D01*
X89043Y815410D01*
X88953Y815175D01*
X88878Y814923D01*
X88819Y814654D01*
X88776Y814368D01*
X88719Y814586D01*
X88650Y814791D01*
X88569Y814983D01*
X88475Y815163D01*
X88369Y815330D01*
X88251Y815484D01*
X88194Y815547D01*
X88120Y815626D01*
X87978Y815755D01*
X87825Y815870D01*
X87663Y815969D01*
X87492Y816054D01*
X87312Y816123D01*
X87124Y816176D01*
X86927Y816215D01*
X86721Y816238D01*
X86507Y816245D01*
X86217Y816232D01*
X85946Y816191D01*
X85693Y816123D01*
X85459Y816028D01*
X85244Y815906D01*
X85047Y815757D01*
X84870Y815580D01*
X84711Y815377D01*
X84570Y815146D01*
X84449Y814888D01*
X84346Y814603D01*
X84261Y814291D01*
X84196Y813952D01*
X84149Y813586D01*
X84121Y813192D01*
X84112Y812771D01*
X84112Y809185D01*
X93980Y809185D01*
X93980Y813192D01*
G37*
G36*
X89645Y852395D02*
X90211Y852435D01*
X90740Y852502D01*
X91231Y852595D01*
X91685Y852715D01*
X92102Y852862D01*
X92482Y853036D01*
X92824Y853236D01*
X93128Y853463D01*
X93391Y853716D01*
X93614Y853996D01*
X93796Y854302D01*
X93938Y854635D01*
X94039Y854994D01*
X94100Y855380D01*
X94120Y855792D01*
X94100Y856205D01*
X94039Y856591D01*
X93937Y856952D01*
X93794Y857287D01*
X93611Y857596D01*
X93387Y857878D01*
X93123Y858135D01*
X92817Y858366D01*
X92473Y858571D01*
X92093Y858748D01*
X91676Y858898D01*
X91222Y859020D01*
X90732Y859116D01*
X90205Y859184D01*
X89642Y859225D01*
X89042Y859238D01*
X88433Y859225D01*
X87862Y859186D01*
X87330Y859122D01*
X86836Y859031D01*
X86381Y858914D01*
X85964Y858771D01*
X85586Y858603D01*
X85246Y858408D01*
X84946Y858187D01*
X84686Y857936D01*
X84465Y857657D01*
X84285Y857350D01*
X84145Y857014D01*
X84045Y856649D01*
X83985Y856256D01*
X83965Y855834D01*
X83984Y855401D01*
X84044Y854998D01*
X84143Y854625D01*
X84282Y854282D01*
X84460Y853969D01*
X84678Y853687D01*
X84935Y853434D01*
X85232Y853212D01*
X85569Y853017D01*
X85946Y852848D01*
X86362Y852706D01*
X86819Y852589D01*
X87315Y852498D01*
X87851Y852433D01*
X88427Y852395D01*
X89042Y852382D01*
X89645Y852395D01*
G37*
G36*
X93980Y820086D02*
X89407Y820086D01*
X89407Y825422D01*
X93980Y825422D01*
X93980Y826760D01*
X84112Y826760D01*
X84112Y825422D01*
X88286Y825422D01*
X88286Y820086D01*
X84112Y820086D01*
X84112Y818748D01*
X93980Y818748D01*
X93980Y820086D01*
G37*
%LPC*%
G36*
X88520Y853664D02*
X88036Y853688D01*
X87591Y853728D01*
X87183Y853783D01*
X86813Y853855D01*
X86482Y853942D01*
X86188Y854045D01*
X85933Y854164D01*
X85711Y854301D01*
X85519Y854459D01*
X85357Y854637D01*
X85224Y854836D01*
X85120Y855055D01*
X85046Y855294D01*
X85002Y855554D01*
X84987Y855834D01*
X85002Y856108D01*
X85047Y856362D01*
X85122Y856595D01*
X85227Y856809D01*
X85362Y857002D01*
X85527Y857176D01*
X85722Y857329D01*
X85947Y857463D01*
X86205Y857579D01*
X86500Y857679D01*
X86832Y857764D01*
X87200Y857833D01*
X87606Y857887D01*
X88048Y857926D01*
X88527Y857949D01*
X89042Y857957D01*
X89541Y857948D01*
X90005Y857924D01*
X90437Y857884D01*
X90835Y857827D01*
X91200Y857754D01*
X91532Y857665D01*
X91831Y857560D01*
X92096Y857438D01*
X92329Y857299D01*
X92531Y857142D01*
X92702Y856966D01*
X92842Y856771D01*
X92951Y856558D01*
X93028Y856326D01*
X93075Y856076D01*
X93091Y855806D01*
X93075Y855536D01*
X93030Y855284D01*
X92954Y855051D01*
X92847Y854837D01*
X92710Y854642D01*
X92543Y854466D01*
X92345Y854309D01*
X92117Y854171D01*
X91856Y854050D01*
X91560Y853946D01*
X91228Y853857D01*
X90862Y853785D01*
X90460Y853729D01*
X90022Y853688D01*
X89550Y853664D01*
X89042Y853656D01*
X88520Y853664D01*
G37*
%LPD*%
G36*
X92051Y844493D02*
X92311Y844578D01*
X92554Y844683D01*
X92781Y844807D01*
X92990Y844950D01*
X93183Y845114D01*
X93359Y845296D01*
X93518Y845498D01*
X93659Y845719D01*
X93781Y845955D01*
X93885Y846209D01*
X93970Y846479D01*
X94035Y846766D01*
X94082Y847069D01*
X94111Y847389D01*
X94120Y847726D01*
X94106Y848126D01*
X94064Y848504D01*
X93994Y848859D01*
X93896Y849192D01*
X93770Y849503D01*
X93616Y849791D01*
X93434Y850056D01*
X93224Y850299D01*
X92989Y850517D01*
X92734Y850705D01*
X92458Y850865D01*
X92161Y850995D01*
X91843Y851097D01*
X91505Y851169D01*
X91145Y851213D01*
X90765Y851227D01*
X90430Y851214D01*
X90111Y851173D01*
X89809Y851106D01*
X89522Y851011D01*
X89252Y850890D01*
X88998Y850741D01*
X88760Y850565D01*
X88538Y850363D01*
X88338Y850137D01*
X88164Y849893D01*
X88017Y849631D01*
X87897Y849350D01*
X87804Y849050D01*
X87737Y848732D01*
X87697Y848396D01*
X87684Y848041D01*
X87693Y847742D01*
X87723Y847456D01*
X87772Y847183D01*
X87841Y846922D01*
X87930Y846673D01*
X88038Y846437D01*
X88166Y846214D01*
X88314Y846003D01*
X85183Y846192D01*
X85183Y850653D01*
X84112Y850653D01*
X84112Y845043D01*
X89421Y844714D01*
X89421Y845947D01*
X89242Y846167D01*
X89091Y846388D01*
X88969Y846608D01*
X88874Y846829D01*
X88804Y847054D01*
X88753Y847288D01*
X88723Y847530D01*
X88713Y847782D01*
X88722Y848020D01*
X88749Y848247D01*
X88794Y848460D01*
X88857Y848661D01*
X88938Y848850D01*
X89036Y849026D01*
X89153Y849189D01*
X89287Y849340D01*
X89437Y849475D01*
X89597Y849593D01*
X89768Y849692D01*
X89951Y849773D01*
X90145Y849837D01*
X90350Y849882D01*
X90566Y849909D01*
X90793Y849918D01*
X91054Y849909D01*
X91300Y849882D01*
X91532Y849837D01*
X91750Y849774D01*
X91954Y849693D01*
X92143Y849595D01*
X92317Y849478D01*
X92478Y849343D01*
X92621Y849193D01*
X92746Y849029D01*
X92851Y848851D01*
X92937Y848659D01*
X93004Y848453D01*
X93052Y848234D01*
X93081Y848001D01*
X93091Y847754D01*
X93068Y847360D01*
X92999Y847006D01*
X92885Y846690D01*
X92725Y846414D01*
X92519Y846177D01*
X92267Y845979D01*
X91970Y845821D01*
X91627Y845701D01*
X91774Y844427D01*
X92051Y844493D01*
G37*
G36*
X93980Y835192D02*
X92908Y835192D01*
X92908Y832790D01*
X84112Y832790D01*
X84112Y831627D01*
X85716Y829295D01*
X86906Y829295D01*
X85316Y831522D01*
X92908Y831522D01*
X92908Y829008D01*
X93980Y829008D01*
X93980Y835192D01*
G37*
G36*
X85183Y841921D02*
X85854Y841469D01*
X86506Y841050D01*
X87137Y840664D01*
X87749Y840313D01*
X88341Y839995D01*
X88913Y839710D01*
X89466Y839459D01*
X89998Y839242D01*
X90518Y839054D01*
X91031Y838891D01*
X91538Y838753D01*
X92039Y838641D01*
X92534Y838553D01*
X93022Y838490D01*
X93504Y838453D01*
X93980Y838440D01*
X93980Y839757D01*
X93303Y839776D01*
X92637Y839835D01*
X91983Y839932D01*
X91340Y840069D01*
X90700Y840244D01*
X90056Y840458D01*
X89408Y840711D01*
X88755Y841004D01*
X88038Y841371D01*
X87195Y841849D01*
X86227Y842439D01*
X85134Y843140D01*
X84112Y843140D01*
X84112Y836619D01*
X85183Y836619D01*
X85183Y841921D01*
G37*
%LPC*%
G36*
X89351Y810523D02*
X89351Y813016D01*
X89357Y813313D01*
X89378Y813591D01*
X89412Y813850D01*
X89460Y814089D01*
X89521Y814309D01*
X89596Y814510D01*
X89684Y814692D01*
X89787Y814855D01*
X89902Y814999D01*
X90032Y815123D01*
X90175Y815228D01*
X90331Y815315D01*
X90502Y815382D01*
X90686Y815429D01*
X90883Y815458D01*
X91094Y815468D01*
X91313Y815459D01*
X91518Y815433D01*
X91709Y815389D01*
X91886Y815328D01*
X92049Y815249D01*
X92198Y815153D01*
X92332Y815039D01*
X92453Y814907D01*
X92560Y814757D01*
X92652Y814586D01*
X92731Y814394D01*
X92795Y814181D01*
X92844Y813947D01*
X92880Y813693D01*
X92901Y813418D01*
X92908Y813122D01*
X92908Y810523D01*
X89351Y810523D01*
G37*
G36*
X85183Y810523D02*
X85183Y812771D01*
X85205Y813259D01*
X85269Y813685D01*
X85317Y813876D01*
X85376Y814050D01*
X85446Y814210D01*
X85526Y814354D01*
X85619Y814482D01*
X85727Y814593D01*
X85848Y814687D01*
X85983Y814764D01*
X86133Y814824D01*
X86297Y814866D01*
X86476Y814892D01*
X86668Y814900D01*
X86870Y814892D01*
X87058Y814867D01*
X87233Y814826D01*
X87394Y814768D01*
X87542Y814694D01*
X87676Y814603D01*
X87797Y814496D01*
X87904Y814372D01*
X87999Y814231D01*
X88080Y814073D01*
X88150Y813899D01*
X88206Y813707D01*
X88250Y813499D01*
X88282Y813273D01*
X88301Y813031D01*
X88307Y812771D01*
X88307Y810523D01*
X85183Y810523D01*
G37*
%LPD*%
G36*
X57150Y1037065D02*
X57136Y1037585D01*
X57093Y1038075D01*
X57021Y1038536D01*
X56921Y1038968D01*
X56793Y1039370D01*
X56635Y1039744D01*
X56449Y1040087D01*
X56235Y1040402D01*
X55995Y1040683D01*
X55731Y1040927D01*
X55445Y1041133D01*
X55137Y1041302D01*
X54805Y1041433D01*
X54450Y1041527D01*
X54073Y1041583D01*
X53673Y1041602D01*
X53371Y1041590D01*
X53082Y1041552D01*
X52806Y1041490D01*
X52544Y1041403D01*
X52295Y1041291D01*
X52059Y1041154D01*
X51837Y1040992D01*
X51628Y1040805D01*
X51524Y1040692D01*
X51435Y1040595D01*
X51262Y1040364D01*
X51109Y1040112D01*
X50976Y1039839D01*
X50863Y1039545D01*
X50770Y1039230D01*
X50696Y1038894D01*
X50642Y1038537D01*
X50571Y1038809D01*
X50485Y1039065D01*
X50383Y1039306D01*
X50266Y1039531D01*
X50133Y1039739D01*
X49986Y1039932D01*
X49914Y1040010D01*
X49822Y1040109D01*
X49644Y1040271D01*
X49452Y1040414D01*
X49250Y1040539D01*
X49036Y1040644D01*
X48812Y1040731D01*
X48577Y1040798D01*
X48330Y1040845D01*
X48073Y1040874D01*
X47805Y1040884D01*
X47442Y1040867D01*
X47103Y1040816D01*
X46787Y1040731D01*
X46494Y1040612D01*
X46225Y1040460D01*
X45979Y1040273D01*
X45757Y1040052D01*
X45558Y1039798D01*
X45383Y1039509D01*
X45230Y1039187D01*
X45102Y1038830D01*
X44996Y1038440D01*
X44915Y1038016D01*
X44856Y1037558D01*
X44821Y1037066D01*
X44809Y1036540D01*
X44809Y1032055D01*
X57150Y1032055D01*
X57150Y1037065D01*
G37*
G36*
X51729Y1086145D02*
X52437Y1086195D01*
X53098Y1086278D01*
X53712Y1086395D01*
X54280Y1086546D01*
X54802Y1086729D01*
X55277Y1086946D01*
X55705Y1087197D01*
X56085Y1087480D01*
X56414Y1087797D01*
X56692Y1088147D01*
X56920Y1088530D01*
X57097Y1088946D01*
X57224Y1089396D01*
X57268Y1089633D01*
X57300Y1089878D01*
X57319Y1090132D01*
X57325Y1090394D01*
X57319Y1090656D01*
X57300Y1090909D01*
X57268Y1091155D01*
X57223Y1091393D01*
X57096Y1091844D01*
X56918Y1092262D01*
X56689Y1092649D01*
X56409Y1093002D01*
X56078Y1093324D01*
X55696Y1093612D01*
X55266Y1093868D01*
X54790Y1094089D01*
X54269Y1094277D01*
X53701Y1094430D01*
X53088Y1094549D01*
X52430Y1094635D01*
X51725Y1094686D01*
X50975Y1094703D01*
X50213Y1094687D01*
X49499Y1094638D01*
X48834Y1094557D01*
X48216Y1094443D01*
X47647Y1094297D01*
X47126Y1094119D01*
X46653Y1093908D01*
X46228Y1093665D01*
X45852Y1093388D01*
X45527Y1093075D01*
X45251Y1092726D01*
X45026Y1092341D01*
X44851Y1091921D01*
X44782Y1091698D01*
X44725Y1091465D01*
X44682Y1091224D01*
X44650Y1090974D01*
X44632Y1090714D01*
X44625Y1090446D01*
X44632Y1090171D01*
X44650Y1089904D01*
X44681Y1089648D01*
X44724Y1089400D01*
X44780Y1089162D01*
X44848Y1088934D01*
X45022Y1088505D01*
X45245Y1088114D01*
X45517Y1087760D01*
X45839Y1087444D01*
X46211Y1087166D01*
X46632Y1086923D01*
X47103Y1086712D01*
X47624Y1086534D01*
X48194Y1086388D01*
X48815Y1086274D01*
X49485Y1086193D01*
X50205Y1086144D01*
X50975Y1086128D01*
X51729Y1086145D01*
G37*
G36*
X57150Y1045697D02*
X51431Y1045697D01*
X51431Y1052371D01*
X57150Y1052371D01*
X57150Y1054044D01*
X44809Y1054044D01*
X44809Y1052371D01*
X50029Y1052371D01*
X50029Y1045697D01*
X44809Y1045697D01*
X44809Y1044024D01*
X57150Y1044024D01*
X57150Y1045697D01*
G37*
%LPC*%
G36*
X50322Y1087732D02*
X49717Y1087762D01*
X49160Y1087812D01*
X48650Y1087881D01*
X48188Y1087970D01*
X47773Y1088079D01*
X47406Y1088208D01*
X47086Y1088357D01*
X46809Y1088529D01*
X46569Y1088726D01*
X46366Y1088949D01*
X46200Y1089197D01*
X46070Y1089471D01*
X45978Y1089770D01*
X45923Y1090095D01*
X45904Y1090446D01*
X45923Y1090788D01*
X45979Y1091106D01*
X46073Y1091398D01*
X46204Y1091665D01*
X46373Y1091907D01*
X46579Y1092124D01*
X46823Y1092316D01*
X47104Y1092483D01*
X47427Y1092627D01*
X47796Y1092753D01*
X48211Y1092859D01*
X48672Y1092946D01*
X49179Y1093013D01*
X49732Y1093061D01*
X50330Y1093090D01*
X50975Y1093100D01*
X51598Y1093090D01*
X52180Y1093059D01*
X52719Y1093009D01*
X53217Y1092938D01*
X53674Y1092847D01*
X54089Y1092735D01*
X54462Y1092604D01*
X54794Y1092452D01*
X55085Y1092278D01*
X55338Y1092081D01*
X55552Y1091861D01*
X55727Y1091618D01*
X55863Y1091351D01*
X55960Y1091061D01*
X56018Y1090748D01*
X56038Y1090411D01*
X56019Y1090073D01*
X55962Y1089758D01*
X55866Y1089467D01*
X55733Y1089199D01*
X55562Y1088955D01*
X55353Y1088735D01*
X55106Y1088539D01*
X54820Y1088366D01*
X54494Y1088215D01*
X54123Y1088084D01*
X53709Y1087974D01*
X53250Y1087883D01*
X52748Y1087813D01*
X52201Y1087762D01*
X51610Y1087732D01*
X50975Y1087722D01*
X50322Y1087732D01*
G37*
%LPD*%
G36*
X54737Y1076259D02*
X55063Y1076366D01*
X55367Y1076497D01*
X55650Y1076652D01*
X55912Y1076832D01*
X56153Y1077036D01*
X56373Y1077264D01*
X56572Y1077517D01*
X56749Y1077792D01*
X56902Y1078089D01*
X57031Y1078405D01*
X57137Y1078743D01*
X57219Y1079102D01*
X57278Y1079481D01*
X57313Y1079881D01*
X57325Y1080302D01*
X57308Y1080803D01*
X57255Y1081275D01*
X57168Y1081720D01*
X57045Y1082136D01*
X56887Y1082524D01*
X56695Y1082885D01*
X56467Y1083217D01*
X56204Y1083521D01*
X55911Y1083793D01*
X55592Y1084029D01*
X55246Y1084228D01*
X54875Y1084391D01*
X54478Y1084518D01*
X54054Y1084609D01*
X53605Y1084663D01*
X53130Y1084681D01*
X52711Y1084665D01*
X52312Y1084614D01*
X51933Y1084529D01*
X51575Y1084411D01*
X51237Y1084259D01*
X50919Y1084073D01*
X50622Y1083853D01*
X50345Y1083600D01*
X50094Y1083318D01*
X49877Y1083013D01*
X49693Y1082684D01*
X49543Y1082333D01*
X49426Y1081959D01*
X49343Y1081561D01*
X49293Y1081140D01*
X49276Y1080696D01*
X49288Y1080323D01*
X49325Y1079966D01*
X49387Y1079624D01*
X49473Y1079297D01*
X49584Y1078986D01*
X49720Y1078691D01*
X49880Y1078412D01*
X50064Y1078148D01*
X46149Y1078384D01*
X46149Y1083963D01*
X44809Y1083963D01*
X44809Y1076948D01*
X51448Y1076536D01*
X51448Y1078078D01*
X51225Y1078353D01*
X51037Y1078629D01*
X50883Y1078905D01*
X50765Y1079181D01*
X50677Y1079462D01*
X50614Y1079755D01*
X50576Y1080058D01*
X50564Y1080372D01*
X50575Y1080671D01*
X50608Y1080954D01*
X50665Y1081221D01*
X50743Y1081473D01*
X50844Y1081708D01*
X50968Y1081928D01*
X51113Y1082133D01*
X51282Y1082321D01*
X51468Y1082490D01*
X51669Y1082637D01*
X51883Y1082761D01*
X52112Y1082863D01*
X52354Y1082942D01*
X52610Y1082998D01*
X52881Y1083032D01*
X53165Y1083044D01*
X53491Y1083032D01*
X53799Y1082999D01*
X54089Y1082943D01*
X54362Y1082864D01*
X54616Y1082763D01*
X54852Y1082640D01*
X55071Y1082494D01*
X55271Y1082325D01*
X55451Y1082137D01*
X55607Y1081932D01*
X55738Y1081709D01*
X55846Y1081469D01*
X55930Y1081212D01*
X55990Y1080938D01*
X56026Y1080646D01*
X56038Y1080337D01*
X56031Y1080085D01*
X56009Y1079845D01*
X55973Y1079617D01*
X55923Y1079402D01*
X55859Y1079198D01*
X55780Y1079007D01*
X55687Y1078829D01*
X55580Y1078662D01*
X55459Y1078508D01*
X55323Y1078366D01*
X55172Y1078236D01*
X55008Y1078119D01*
X54829Y1078013D01*
X54636Y1077920D01*
X54429Y1077840D01*
X54207Y1077771D01*
X54391Y1076177D01*
X54737Y1076259D01*
G37*
G36*
X57150Y1064621D02*
X55810Y1064621D01*
X55810Y1061617D01*
X44809Y1061617D01*
X44809Y1060163D01*
X46815Y1057247D01*
X48304Y1057247D01*
X46316Y1060032D01*
X55810Y1060032D01*
X55810Y1056888D01*
X57150Y1056888D01*
X57150Y1064621D01*
G37*
G36*
X46149Y1073040D02*
X46989Y1072474D01*
X47803Y1071950D01*
X48593Y1071468D01*
X49358Y1071029D01*
X50099Y1070631D01*
X50814Y1070275D01*
X51505Y1069961D01*
X52171Y1069690D01*
X52821Y1069455D01*
X53462Y1069251D01*
X54097Y1069079D01*
X54723Y1068938D01*
X55341Y1068828D01*
X55952Y1068750D01*
X56555Y1068703D01*
X57150Y1068687D01*
X57150Y1070333D01*
X56725Y1070340D01*
X56303Y1070358D01*
X55471Y1070431D01*
X54652Y1070553D01*
X53848Y1070723D01*
X53048Y1070942D01*
X52243Y1071210D01*
X51432Y1071527D01*
X50616Y1071892D01*
X49719Y1072352D01*
X48665Y1072950D01*
X47455Y1073687D01*
X46088Y1074564D01*
X44809Y1074564D01*
X44809Y1066410D01*
X46149Y1066410D01*
X46149Y1073040D01*
G37*
%LPC*%
G36*
X51361Y1033728D02*
X51361Y1036846D01*
X51369Y1037217D01*
X51395Y1037565D01*
X51437Y1037888D01*
X51497Y1038187D01*
X51574Y1038463D01*
X51667Y1038714D01*
X51778Y1038942D01*
X51906Y1039145D01*
X52051Y1039325D01*
X52213Y1039481D01*
X52391Y1039612D01*
X52587Y1039720D01*
X52800Y1039804D01*
X53030Y1039864D01*
X53277Y1039900D01*
X53542Y1039912D01*
X53815Y1039901D01*
X54071Y1039868D01*
X54310Y1039813D01*
X54531Y1039736D01*
X54735Y1039638D01*
X54921Y1039517D01*
X55090Y1039375D01*
X55241Y1039211D01*
X55374Y1039023D01*
X55490Y1038809D01*
X55588Y1038568D01*
X55668Y1038302D01*
X55730Y1038010D01*
X55774Y1037692D01*
X55801Y1037348D01*
X55810Y1036977D01*
X55810Y1033728D01*
X51361Y1033728D01*
G37*
G36*
X46149Y1033728D02*
X46149Y1036540D01*
X46156Y1036854D01*
X46176Y1037149D01*
X46210Y1037426D01*
X46257Y1037683D01*
X46317Y1037920D01*
X46391Y1038139D01*
X46478Y1038339D01*
X46578Y1038519D01*
X46695Y1038679D01*
X46829Y1038818D01*
X46980Y1038935D01*
X47150Y1039031D01*
X47337Y1039106D01*
X47542Y1039159D01*
X47765Y1039191D01*
X48006Y1039202D01*
X48258Y1039192D01*
X48494Y1039161D01*
X48712Y1039109D01*
X48914Y1039037D01*
X49099Y1038944D01*
X49267Y1038830D01*
X49418Y1038696D01*
X49552Y1038541D01*
X49670Y1038365D01*
X49772Y1038168D01*
X49859Y1037949D01*
X49930Y1037710D01*
X49985Y1037449D01*
X50024Y1037167D01*
X50048Y1036864D01*
X50056Y1036540D01*
X50056Y1033728D01*
X46149Y1033728D01*
G37*
%LPD*%
G36*
X209509Y926133D02*
X209865Y926267D01*
X210195Y926431D01*
X210501Y926624D01*
X210783Y926848D01*
X211040Y927100D01*
X211273Y927383D01*
X211481Y927695D01*
X211665Y928036D01*
X211824Y928407D01*
X211959Y928808D01*
X212069Y929239D01*
X212155Y929699D01*
X212216Y930189D01*
X212253Y930708D01*
X212265Y931257D01*
X212251Y931847D01*
X212207Y932402D01*
X212133Y932923D01*
X212031Y933411D01*
X211899Y933864D01*
X211738Y934283D01*
X211548Y934668D01*
X211328Y935019D01*
X211082Y935332D01*
X210811Y935603D01*
X210517Y935833D01*
X210198Y936021D01*
X209856Y936167D01*
X209489Y936271D01*
X209098Y936334D01*
X208683Y936355D01*
X208357Y936343D01*
X208052Y936308D01*
X207770Y936249D01*
X207509Y936166D01*
X207268Y936063D01*
X207043Y935942D01*
X206834Y935803D01*
X206642Y935645D01*
X206465Y935471D01*
X206303Y935283D01*
X206154Y935079D01*
X206020Y934861D01*
X205783Y934394D01*
X205578Y933893D01*
X205403Y933365D01*
X205254Y932812D01*
X204987Y931678D01*
X204806Y930899D01*
X204640Y930261D01*
X204488Y929764D01*
X204352Y929409D01*
X204216Y929141D01*
X204065Y928907D01*
X203900Y928705D01*
X203721Y928538D01*
X203523Y928405D01*
X203300Y928311D01*
X203052Y928254D01*
X202780Y928235D01*
X202544Y928248D01*
X202324Y928284D01*
X202118Y928345D01*
X201928Y928430D01*
X201753Y928540D01*
X201592Y928674D01*
X201447Y928832D01*
X201317Y929015D01*
X201202Y929221D01*
X201102Y929449D01*
X201018Y929698D01*
X200949Y929970D01*
X200896Y930263D01*
X200857Y930578D01*
X200834Y930916D01*
X200827Y931275D01*
X200833Y931603D01*
X200854Y931912D01*
X200889Y932204D01*
X200937Y932477D01*
X200999Y932731D01*
X201075Y932968D01*
X201165Y933186D01*
X201269Y933385D01*
X201388Y933568D01*
X201524Y933736D01*
X201676Y933888D01*
X201846Y934025D01*
X202032Y934146D01*
X202235Y934253D01*
X202455Y934343D01*
X202692Y934419D01*
X202403Y936066D01*
X202030Y935944D01*
X201685Y935801D01*
X201368Y935637D01*
X201079Y935452D01*
X200819Y935247D01*
X200588Y935021D01*
X200384Y934774D01*
X200209Y934507D01*
X200058Y934213D01*
X199927Y933889D01*
X199817Y933533D01*
X199726Y933147D01*
X199656Y932730D01*
X199606Y932281D01*
X199575Y931802D01*
X199565Y931292D01*
X199579Y930744D01*
X199619Y930228D01*
X199686Y929745D01*
X199780Y929294D01*
X199901Y928876D01*
X200048Y928491D01*
X200222Y928139D01*
X200424Y927819D01*
X200650Y927535D01*
X200898Y927289D01*
X201170Y927080D01*
X201464Y926910D01*
X201781Y926777D01*
X202120Y926682D01*
X202482Y926625D01*
X202867Y926606D01*
X203203Y926621D01*
X203520Y926664D01*
X203816Y926737D01*
X204093Y926838D01*
X204352Y926967D01*
X204594Y927122D01*
X204819Y927302D01*
X205026Y927508D01*
X205221Y927747D01*
X205406Y928026D01*
X205582Y928345D01*
X205749Y928704D01*
X205911Y929127D01*
X206073Y929638D01*
X206235Y930237D01*
X206397Y930924D01*
X206756Y932457D01*
X206844Y932791D01*
X206942Y933101D01*
X207050Y933387D01*
X207168Y933648D01*
X207299Y933884D01*
X207446Y934092D01*
X207609Y934271D01*
X207790Y934423D01*
X207992Y934544D01*
X208223Y934630D01*
X208483Y934682D01*
X208771Y934699D01*
X209032Y934686D01*
X209277Y934644D01*
X209505Y934575D01*
X209718Y934479D01*
X209914Y934355D01*
X210093Y934204D01*
X210257Y934025D01*
X210404Y933819D01*
X210534Y933587D01*
X210647Y933333D01*
X210743Y933055D01*
X210821Y932754D01*
X210882Y932430D01*
X210925Y932082D01*
X210951Y931712D01*
X210960Y931318D01*
X210952Y930937D01*
X210928Y930576D01*
X210887Y930235D01*
X210830Y929915D01*
X210757Y929615D01*
X210667Y929336D01*
X210561Y929078D01*
X210439Y928840D01*
X210300Y928622D01*
X210142Y928424D01*
X209965Y928245D01*
X209770Y928087D01*
X209557Y927948D01*
X209325Y927828D01*
X209074Y927729D01*
X208806Y927649D01*
X209130Y926028D01*
X209509Y926133D01*
G37*
G36*
X206347Y938105D02*
X206815Y938138D01*
X207266Y938194D01*
X207701Y938272D01*
X208119Y938372D01*
X208521Y938495D01*
X208906Y938640D01*
X209274Y938807D01*
X209624Y938996D01*
X209953Y939205D01*
X210261Y939434D01*
X210549Y939683D01*
X210815Y939953D01*
X211061Y940243D01*
X211286Y940553D01*
X211490Y940883D01*
X211672Y941231D01*
X211829Y941595D01*
X211962Y941975D01*
X212071Y942371D01*
X212156Y942782D01*
X212217Y943209D01*
X212253Y943652D01*
X212265Y944111D01*
X212252Y944559D01*
X212213Y944994D01*
X212148Y945415D01*
X212057Y945822D01*
X211940Y946215D01*
X211797Y946594D01*
X211628Y946960D01*
X211433Y947312D01*
X211213Y947647D01*
X210969Y947963D01*
X210702Y948260D01*
X210411Y948537D01*
X210095Y948795D01*
X209756Y949034D01*
X209394Y949253D01*
X209007Y949453D01*
X208324Y948087D01*
X208635Y947919D01*
X208925Y947741D01*
X209196Y947552D01*
X209447Y947354D01*
X209677Y947146D01*
X209888Y946927D01*
X210078Y946699D01*
X210249Y946460D01*
X210399Y946211D01*
X210529Y945953D01*
X210639Y945684D01*
X210730Y945405D01*
X210800Y945116D01*
X210850Y944817D01*
X210880Y944508D01*
X210890Y944189D01*
X210869Y943697D01*
X210804Y943230D01*
X210696Y942790D01*
X210545Y942375D01*
X210351Y941987D01*
X210114Y941625D01*
X209834Y941289D01*
X209511Y940979D01*
X209152Y940701D01*
X208765Y940460D01*
X208351Y940256D01*
X207909Y940089D01*
X207439Y939959D01*
X206941Y939867D01*
X206416Y939811D01*
X205863Y939793D01*
X205304Y939810D01*
X204776Y939864D01*
X204279Y939953D01*
X203812Y940077D01*
X203376Y940237D01*
X202970Y940433D01*
X202595Y940664D01*
X202250Y940931D01*
X201941Y941230D01*
X201673Y941557D01*
X201447Y941913D01*
X201261Y942297D01*
X201117Y942710D01*
X201014Y943151D01*
X200952Y943621D01*
X200932Y944119D01*
X200941Y944440D01*
X200967Y944750D01*
X201012Y945048D01*
X201074Y945336D01*
X201154Y945612D01*
X201252Y945877D01*
X201368Y946131D01*
X201501Y946375D01*
X201651Y946604D01*
X201817Y946817D01*
X201999Y947014D01*
X202197Y947195D01*
X202411Y947359D01*
X202641Y947507D01*
X202886Y947639D01*
X203148Y947754D01*
X202622Y949339D01*
X202255Y949173D01*
X201911Y948985D01*
X201590Y948774D01*
X201293Y948542D01*
X201019Y948288D01*
X200768Y948012D01*
X200540Y947715D01*
X200336Y947395D01*
X200155Y947054D01*
X199999Y946693D01*
X199866Y946312D01*
X199758Y945910D01*
X199674Y945489D01*
X199613Y945047D01*
X199577Y944584D01*
X199565Y944102D01*
X199572Y943754D01*
X199591Y943416D01*
X199624Y943087D01*
X199670Y942768D01*
X199729Y942459D01*
X199801Y942159D01*
X199886Y941869D01*
X199984Y941588D01*
X200095Y941317D01*
X200219Y941055D01*
X200356Y940803D01*
X200506Y940561D01*
X200846Y940105D01*
X201238Y939687D01*
X201676Y939314D01*
X202155Y938990D01*
X202673Y938716D01*
X202947Y938598D01*
X203231Y938492D01*
X203525Y938399D01*
X203829Y938318D01*
X204143Y938249D01*
X204467Y938193D01*
X204801Y938149D01*
X205145Y938118D01*
X205499Y938100D01*
X205863Y938093D01*
X206347Y938105D01*
G37*
G36*
X212090Y959532D02*
X210724Y959532D01*
X210724Y953296D01*
X199749Y953296D01*
X199749Y951623D01*
X212090Y951623D01*
X212090Y959532D01*
G37*
G36*
X237490Y953238D02*
X237478Y953679D01*
X237442Y954106D01*
X237383Y954519D01*
X237300Y954920D01*
X237192Y955308D01*
X237061Y955682D01*
X236907Y956043D01*
X236728Y956392D01*
X236527Y956723D01*
X236305Y957036D01*
X236062Y957329D01*
X235799Y957602D01*
X235514Y957857D01*
X235208Y958091D01*
X234882Y958306D01*
X234534Y958502D01*
X234169Y958677D01*
X233788Y958828D01*
X233393Y958956D01*
X232983Y959061D01*
X232558Y959142D01*
X232117Y959200D01*
X231663Y959235D01*
X231193Y959247D01*
X230835Y959240D01*
X230489Y959220D01*
X230152Y959187D01*
X229826Y959140D01*
X229510Y959080D01*
X229205Y959007D01*
X228910Y958921D01*
X228625Y958821D01*
X228351Y958708D01*
X228087Y958581D01*
X227834Y958442D01*
X227590Y958289D01*
X227358Y958122D01*
X227135Y957943D01*
X226923Y957750D01*
X226721Y957543D01*
X226531Y957325D01*
X226353Y957095D01*
X226187Y956854D01*
X226034Y956602D01*
X225892Y956339D01*
X225763Y956064D01*
X225647Y955779D01*
X225542Y955482D01*
X225450Y955174D01*
X225370Y954854D01*
X225303Y954524D01*
X225248Y954182D01*
X225205Y953830D01*
X225174Y953466D01*
X225155Y953091D01*
X225149Y952704D01*
X225149Y948623D01*
X237490Y948623D01*
X237490Y953238D01*
G37*
%LPC*%
G36*
X226489Y950296D02*
X226489Y952669D01*
X226508Y953247D01*
X226565Y953790D01*
X226659Y954298D01*
X226790Y954770D01*
X226960Y955207D01*
X227167Y955610D01*
X227411Y955977D01*
X227694Y956308D01*
X228012Y956603D01*
X228364Y956858D01*
X228750Y957074D01*
X229171Y957251D01*
X229625Y957388D01*
X230113Y957487D01*
X230636Y957546D01*
X231193Y957565D01*
X231567Y957557D01*
X231929Y957531D01*
X232279Y957488D01*
X232616Y957427D01*
X232940Y957350D01*
X233252Y957255D01*
X233551Y957143D01*
X233838Y957013D01*
X234110Y956868D01*
X234365Y956708D01*
X234605Y956532D01*
X234827Y956342D01*
X235034Y956137D01*
X235224Y955917D01*
X235397Y955682D01*
X235554Y955432D01*
X235694Y955170D01*
X235815Y954897D01*
X235917Y954614D01*
X236001Y954321D01*
X236066Y954018D01*
X236113Y953704D01*
X236141Y953380D01*
X236150Y953046D01*
X236150Y950296D01*
X226489Y950296D01*
G37*
%LPD*%
G36*
X237490Y937143D02*
X229292Y937143D01*
X227829Y937099D01*
X226980Y937055D01*
X237490Y943659D01*
X237490Y945674D01*
X225149Y945674D01*
X225149Y944167D01*
X233242Y944167D01*
X234249Y944194D01*
X235730Y944272D01*
X225149Y937598D01*
X225149Y935654D01*
X237490Y935654D01*
X237490Y937143D01*
G37*
G36*
X231745Y921159D02*
X232212Y921193D01*
X232662Y921251D01*
X233097Y921332D01*
X233515Y921436D01*
X233917Y921563D01*
X234304Y921714D01*
X234674Y921887D01*
X235026Y922083D01*
X235357Y922299D01*
X235666Y922535D01*
X235954Y922793D01*
X236221Y923071D01*
X236467Y923369D01*
X236691Y923689D01*
X236894Y924029D01*
X237075Y924387D01*
X237232Y924763D01*
X237364Y925155D01*
X237473Y925564D01*
X237557Y925989D01*
X237617Y926431D01*
X237653Y926890D01*
X237665Y927366D01*
X237657Y927778D01*
X237631Y928183D01*
X237588Y928580D01*
X237528Y928970D01*
X237451Y929352D01*
X237357Y929726D01*
X237246Y930094D01*
X237118Y930453D01*
X236974Y930802D01*
X236816Y931137D01*
X236644Y931458D01*
X236458Y931766D01*
X236257Y932059D01*
X236043Y932339D01*
X235814Y932605D01*
X235572Y932857D01*
X231315Y932857D01*
X231315Y927628D01*
X232717Y927628D01*
X232717Y931316D01*
X234941Y931316D01*
X235240Y930967D01*
X235506Y930568D01*
X235739Y930119D01*
X235940Y929621D01*
X236101Y929088D01*
X236216Y928534D01*
X236285Y927960D01*
X236308Y927366D01*
X236286Y926850D01*
X236223Y926363D01*
X236117Y925905D01*
X235969Y925476D01*
X235779Y925075D01*
X235546Y924704D01*
X235272Y924361D01*
X234954Y924046D01*
X234601Y923765D01*
X234216Y923521D01*
X233801Y923315D01*
X233355Y923146D01*
X232878Y923015D01*
X232370Y922921D01*
X231832Y922865D01*
X231263Y922846D01*
X230692Y922864D01*
X230155Y922917D01*
X229651Y923005D01*
X229179Y923129D01*
X228741Y923288D01*
X228335Y923482D01*
X227963Y923711D01*
X227624Y923976D01*
X227321Y924274D01*
X227058Y924604D01*
X226836Y924965D01*
X226655Y925358D01*
X226513Y925782D01*
X226412Y926237D01*
X226352Y926725D01*
X226332Y927243D01*
X226339Y927580D01*
X226362Y927902D01*
X226399Y928211D01*
X226452Y928505D01*
X226520Y928786D01*
X226603Y929052D01*
X226700Y929304D01*
X226813Y929542D01*
X226943Y929767D01*
X227090Y929979D01*
X227255Y930179D01*
X227437Y930367D01*
X227638Y930542D01*
X227856Y930704D01*
X228092Y930854D01*
X228346Y930992D01*
X227873Y932586D01*
X227505Y932404D01*
X227163Y932203D01*
X226847Y931984D01*
X226557Y931747D01*
X226293Y931492D01*
X226055Y931218D01*
X225843Y930926D01*
X225657Y930615D01*
X225495Y930283D01*
X225355Y929928D01*
X225236Y929548D01*
X225138Y929144D01*
X225063Y928716D01*
X225009Y928263D01*
X224976Y927787D01*
X224965Y927287D01*
X224972Y926927D01*
X224991Y926578D01*
X225023Y926239D01*
X225068Y925910D01*
X225126Y925591D01*
X225197Y925283D01*
X225280Y924985D01*
X225377Y924697D01*
X225486Y924419D01*
X225609Y924151D01*
X225744Y923893D01*
X225892Y923646D01*
X226052Y923409D01*
X226226Y923182D01*
X226612Y922759D01*
X227045Y922381D01*
X227277Y922211D01*
X227520Y922054D01*
X227774Y921909D01*
X228038Y921777D01*
X228313Y921657D01*
X228598Y921550D01*
X228894Y921456D01*
X229200Y921374D01*
X229518Y921305D01*
X229845Y921248D01*
X230184Y921204D01*
X230533Y921172D01*
X230892Y921153D01*
X231263Y921147D01*
X231745Y921159D01*
G37*
G36*
X262890Y950112D02*
X254692Y950112D01*
X253229Y950068D01*
X252380Y950024D01*
X262890Y956628D01*
X262890Y958642D01*
X250549Y958642D01*
X250549Y957136D01*
X258642Y957136D01*
X259649Y957162D01*
X261130Y957241D01*
X250549Y950567D01*
X250549Y948623D01*
X262890Y948623D01*
X262890Y950112D01*
G37*
G36*
X262890Y935329D02*
X262890Y937063D01*
X250549Y942099D01*
X250549Y940339D01*
X259238Y936940D01*
X261419Y936205D01*
X259238Y935469D01*
X250549Y932053D01*
X250549Y930293D01*
X262890Y935329D01*
G37*
G36*
X262890Y945511D02*
X250549Y945511D01*
X250549Y943838D01*
X262890Y943838D01*
X262890Y945511D01*
G37*
G36*
X186690Y941270D02*
X186678Y941710D01*
X186642Y942137D01*
X186583Y942551D01*
X186500Y942951D01*
X186392Y943339D01*
X186261Y943713D01*
X186107Y944075D01*
X185928Y944423D01*
X185727Y944755D01*
X185505Y945067D01*
X185262Y945360D01*
X184999Y945634D01*
X184714Y945888D01*
X184408Y946122D01*
X184082Y946338D01*
X183734Y946534D01*
X183369Y946708D01*
X182988Y946859D01*
X182593Y946987D01*
X182183Y947092D01*
X181758Y947173D01*
X181317Y947232D01*
X180863Y947266D01*
X180393Y947278D01*
X180035Y947271D01*
X179689Y947251D01*
X179352Y947218D01*
X179026Y947172D01*
X178710Y947112D01*
X178405Y947038D01*
X178110Y946952D01*
X177825Y946852D01*
X177551Y946739D01*
X177287Y946613D01*
X177034Y946473D01*
X176790Y946320D01*
X176558Y946153D01*
X176335Y945974D01*
X176123Y945781D01*
X175921Y945575D01*
X175731Y945356D01*
X175553Y945126D01*
X175387Y944885D01*
X175234Y944633D01*
X175092Y944370D01*
X174963Y944095D01*
X174847Y943810D01*
X174742Y943513D01*
X174650Y943205D01*
X174570Y942886D01*
X174503Y942555D01*
X174448Y942214D01*
X174405Y941861D01*
X174374Y941497D01*
X174355Y941122D01*
X174349Y940735D01*
X174349Y936654D01*
X186690Y936654D01*
X186690Y941270D01*
G37*
%LPC*%
G36*
X175689Y938327D02*
X175689Y940700D01*
X175708Y941278D01*
X175765Y941821D01*
X175859Y942329D01*
X175990Y942801D01*
X176160Y943239D01*
X176367Y943641D01*
X176611Y944008D01*
X176894Y944340D01*
X177212Y944634D01*
X177564Y944889D01*
X177950Y945105D01*
X178371Y945282D01*
X178825Y945420D01*
X179313Y945518D01*
X179836Y945577D01*
X180393Y945596D01*
X180767Y945588D01*
X181129Y945562D01*
X181479Y945519D01*
X181816Y945458D01*
X182140Y945381D01*
X182452Y945286D01*
X182751Y945174D01*
X183038Y945045D01*
X183310Y944899D01*
X183565Y944739D01*
X183805Y944564D01*
X184027Y944373D01*
X184234Y944168D01*
X184424Y943948D01*
X184597Y943714D01*
X184754Y943464D01*
X184894Y943201D01*
X185015Y942929D01*
X185117Y942646D01*
X185201Y942352D01*
X185266Y942049D01*
X185313Y941735D01*
X185341Y941411D01*
X185350Y941077D01*
X185350Y938327D01*
X175689Y938327D01*
G37*
%LPD*%
G36*
X186690Y949920D02*
X183082Y951339D01*
X183082Y956962D01*
X186690Y958372D01*
X186690Y960080D01*
X174349Y955123D01*
X174349Y953222D01*
X186690Y948186D01*
X186690Y949920D01*
G37*
G36*
X184109Y924133D02*
X184465Y924267D01*
X184795Y924431D01*
X185101Y924624D01*
X185383Y924848D01*
X185640Y925100D01*
X185873Y925383D01*
X186081Y925695D01*
X186265Y926036D01*
X186424Y926407D01*
X186559Y926808D01*
X186669Y927239D01*
X186755Y927699D01*
X186816Y928189D01*
X186853Y928708D01*
X186865Y929257D01*
X186851Y929847D01*
X186807Y930402D01*
X186733Y930923D01*
X186631Y931411D01*
X186499Y931864D01*
X186338Y932283D01*
X186148Y932668D01*
X185928Y933019D01*
X185682Y933332D01*
X185411Y933603D01*
X185117Y933833D01*
X184798Y934021D01*
X184456Y934167D01*
X184089Y934271D01*
X183698Y934334D01*
X183283Y934355D01*
X182957Y934343D01*
X182652Y934308D01*
X182370Y934249D01*
X182109Y934166D01*
X181868Y934063D01*
X181643Y933942D01*
X181434Y933803D01*
X181242Y933645D01*
X181065Y933471D01*
X180903Y933283D01*
X180754Y933079D01*
X180620Y932861D01*
X180383Y932394D01*
X180178Y931893D01*
X180003Y931365D01*
X179854Y930812D01*
X179587Y929678D01*
X179406Y928899D01*
X179240Y928261D01*
X179088Y927764D01*
X178952Y927409D01*
X178816Y927141D01*
X178665Y926907D01*
X178500Y926705D01*
X178321Y926538D01*
X178123Y926405D01*
X177900Y926311D01*
X177652Y926254D01*
X177380Y926235D01*
X177144Y926248D01*
X176924Y926284D01*
X176718Y926345D01*
X176528Y926430D01*
X176353Y926540D01*
X176192Y926674D01*
X176047Y926832D01*
X175917Y927015D01*
X175802Y927221D01*
X175702Y927449D01*
X175618Y927698D01*
X175549Y927970D01*
X175496Y928263D01*
X175457Y928578D01*
X175434Y928916D01*
X175427Y929275D01*
X175433Y929603D01*
X175454Y929912D01*
X175489Y930204D01*
X175537Y930477D01*
X175599Y930731D01*
X175675Y930968D01*
X175765Y931186D01*
X175869Y931385D01*
X175988Y931568D01*
X176124Y931736D01*
X176276Y931888D01*
X176446Y932025D01*
X176632Y932146D01*
X176835Y932253D01*
X177055Y932343D01*
X177292Y932419D01*
X177003Y934066D01*
X176630Y933944D01*
X176285Y933801D01*
X175968Y933637D01*
X175679Y933452D01*
X175419Y933247D01*
X175188Y933021D01*
X174984Y932774D01*
X174809Y932507D01*
X174658Y932213D01*
X174527Y931889D01*
X174417Y931533D01*
X174326Y931147D01*
X174256Y930730D01*
X174206Y930281D01*
X174175Y929802D01*
X174165Y929292D01*
X174179Y928744D01*
X174219Y928228D01*
X174286Y927745D01*
X174380Y927294D01*
X174501Y926876D01*
X174648Y926491D01*
X174822Y926139D01*
X175024Y925819D01*
X175250Y925535D01*
X175498Y925289D01*
X175770Y925080D01*
X176064Y924910D01*
X176381Y924777D01*
X176720Y924682D01*
X177082Y924625D01*
X177467Y924606D01*
X177803Y924621D01*
X178120Y924664D01*
X178416Y924737D01*
X178693Y924838D01*
X178952Y924967D01*
X179194Y925122D01*
X179419Y925302D01*
X179626Y925508D01*
X179821Y925747D01*
X180006Y926026D01*
X180182Y926345D01*
X180349Y926704D01*
X180511Y927127D01*
X180673Y927638D01*
X180835Y928237D01*
X180997Y928924D01*
X181356Y930457D01*
X181444Y930791D01*
X181542Y931101D01*
X181650Y931387D01*
X181768Y931648D01*
X181899Y931884D01*
X182046Y932092D01*
X182209Y932271D01*
X182390Y932423D01*
X182592Y932544D01*
X182823Y932630D01*
X183083Y932682D01*
X183371Y932699D01*
X183632Y932686D01*
X183877Y932644D01*
X184105Y932575D01*
X184318Y932479D01*
X184514Y932355D01*
X184693Y932204D01*
X184857Y932025D01*
X185004Y931819D01*
X185134Y931587D01*
X185247Y931333D01*
X185343Y931055D01*
X185421Y930754D01*
X185482Y930430D01*
X185525Y930082D01*
X185551Y929712D01*
X185560Y929318D01*
X185552Y928937D01*
X185528Y928576D01*
X185487Y928235D01*
X185430Y927915D01*
X185357Y927615D01*
X185267Y927336D01*
X185161Y927078D01*
X185039Y926840D01*
X184900Y926622D01*
X184742Y926424D01*
X184565Y926245D01*
X184370Y926087D01*
X184157Y925948D01*
X183925Y925828D01*
X183674Y925729D01*
X183406Y925649D01*
X183730Y924028D01*
X184109Y924133D01*
G37*
%LPC*%
G36*
X177721Y953424D02*
X176686Y953801D01*
X175856Y954072D01*
X175610Y954151D01*
X176337Y954387D01*
X177060Y954633D01*
X177704Y954878D01*
X181776Y956463D01*
X181776Y951847D01*
X177721Y953424D01*
G37*
%LPD*%
G36*
X205740Y1052861D02*
X205726Y1053380D01*
X205683Y1053871D01*
X205611Y1054332D01*
X205511Y1054763D01*
X205383Y1055166D01*
X205225Y1055539D01*
X205039Y1055883D01*
X204825Y1056198D01*
X204585Y1056479D01*
X204321Y1056723D01*
X204035Y1056929D01*
X203727Y1057098D01*
X203395Y1057229D01*
X203040Y1057323D01*
X202663Y1057379D01*
X202263Y1057398D01*
X201961Y1057385D01*
X201672Y1057348D01*
X201396Y1057286D01*
X201134Y1057198D01*
X200885Y1057086D01*
X200649Y1056949D01*
X200427Y1056787D01*
X200218Y1056601D01*
X200114Y1056488D01*
X200025Y1056391D01*
X199852Y1056160D01*
X199699Y1055908D01*
X199566Y1055635D01*
X199453Y1055341D01*
X199360Y1055026D01*
X199286Y1054689D01*
X199232Y1054332D01*
X199161Y1054604D01*
X199075Y1054861D01*
X198973Y1055102D01*
X198856Y1055326D01*
X198723Y1055535D01*
X198576Y1055728D01*
X198504Y1055806D01*
X198412Y1055905D01*
X198234Y1056066D01*
X198042Y1056210D01*
X197840Y1056335D01*
X197626Y1056440D01*
X197402Y1056526D01*
X197167Y1056593D01*
X196920Y1056641D01*
X196663Y1056670D01*
X196395Y1056679D01*
X196032Y1056662D01*
X195693Y1056612D01*
X195377Y1056527D01*
X195084Y1056408D01*
X194815Y1056255D01*
X194569Y1056069D01*
X194347Y1055848D01*
X194148Y1055593D01*
X193973Y1055305D01*
X193820Y1054982D01*
X193692Y1054626D01*
X193586Y1054236D01*
X193505Y1053812D01*
X193446Y1053353D01*
X193411Y1052861D01*
X193399Y1052335D01*
X193399Y1047851D01*
X205740Y1047851D01*
X205740Y1052861D01*
G37*
G36*
X200319Y1105909D02*
X201027Y1105959D01*
X201688Y1106043D01*
X202302Y1106160D01*
X202870Y1106310D01*
X203392Y1106494D01*
X203867Y1106711D01*
X204295Y1106961D01*
X204675Y1107245D01*
X205004Y1107562D01*
X205282Y1107912D01*
X205510Y1108295D01*
X205687Y1108711D01*
X205814Y1109160D01*
X205858Y1109397D01*
X205890Y1109642D01*
X205909Y1109896D01*
X205915Y1110158D01*
X205909Y1110420D01*
X205890Y1110674D01*
X205858Y1110920D01*
X205813Y1111157D01*
X205686Y1111608D01*
X205508Y1112027D01*
X205279Y1112413D01*
X204999Y1112767D01*
X204668Y1113088D01*
X204286Y1113377D01*
X203856Y1113632D01*
X203380Y1113854D01*
X202859Y1114041D01*
X202291Y1114195D01*
X201678Y1114314D01*
X201020Y1114399D01*
X200315Y1114450D01*
X199565Y1114467D01*
X198803Y1114451D01*
X198089Y1114402D01*
X197424Y1114321D01*
X196806Y1114208D01*
X196237Y1114062D01*
X195716Y1113883D01*
X195243Y1113673D01*
X194818Y1113429D01*
X194442Y1113152D01*
X194117Y1112839D01*
X193841Y1112490D01*
X193616Y1112106D01*
X193441Y1111685D01*
X193372Y1111462D01*
X193315Y1111230D01*
X193272Y1110988D01*
X193240Y1110738D01*
X193222Y1110479D01*
X193215Y1110211D01*
X193222Y1109935D01*
X193240Y1109669D01*
X193271Y1109412D01*
X193314Y1109165D01*
X193370Y1108927D01*
X193438Y1108698D01*
X193612Y1108269D01*
X193835Y1107878D01*
X194107Y1107525D01*
X194429Y1107209D01*
X194801Y1106930D01*
X195222Y1106687D01*
X195693Y1106476D01*
X196214Y1106298D01*
X196784Y1106152D01*
X197405Y1106039D01*
X198075Y1105957D01*
X198795Y1105909D01*
X199565Y1105893D01*
X200319Y1105909D01*
G37*
G36*
X202734Y1096020D02*
X203129Y1096072D01*
X203499Y1096160D01*
X203844Y1096282D01*
X204164Y1096439D01*
X204460Y1096631D01*
X204731Y1096858D01*
X204978Y1097119D01*
X205198Y1097412D01*
X205388Y1097732D01*
X205549Y1098078D01*
X205681Y1098452D01*
X205783Y1098852D01*
X205857Y1099280D01*
X205901Y1099734D01*
X205915Y1100215D01*
X205900Y1100709D01*
X205856Y1101172D01*
X205781Y1101606D01*
X205677Y1102011D01*
X205542Y1102386D01*
X205378Y1102731D01*
X205184Y1103047D01*
X204961Y1103334D01*
X204710Y1103588D01*
X204436Y1103809D01*
X204139Y1103995D01*
X203818Y1104148D01*
X203473Y1104267D01*
X203105Y1104352D01*
X202713Y1104403D01*
X202298Y1104420D01*
X202000Y1104409D01*
X201715Y1104379D01*
X201442Y1104327D01*
X201182Y1104255D01*
X200935Y1104163D01*
X200701Y1104050D01*
X200479Y1103917D01*
X200270Y1103763D01*
X200233Y1103729D01*
X200077Y1103590D01*
X199904Y1103401D01*
X199750Y1103196D01*
X199615Y1102974D01*
X199499Y1102736D01*
X199402Y1102482D01*
X199325Y1102211D01*
X199267Y1101923D01*
X199232Y1101923D01*
X199173Y1102171D01*
X199095Y1102405D01*
X198999Y1102625D01*
X198884Y1102832D01*
X198751Y1103026D01*
X198615Y1103188D01*
X198600Y1103206D01*
X198431Y1103373D01*
X198243Y1103526D01*
X198041Y1103664D01*
X197832Y1103783D01*
X197613Y1103884D01*
X197387Y1103966D01*
X197151Y1104031D01*
X196908Y1104076D01*
X196655Y1104104D01*
X196395Y1104113D01*
X196038Y1104097D01*
X195701Y1104047D01*
X195383Y1103965D01*
X195083Y1103849D01*
X194802Y1103701D01*
X194541Y1103519D01*
X194298Y1103305D01*
X194074Y1103058D01*
X193872Y1102782D01*
X193698Y1102482D01*
X193551Y1102158D01*
X193430Y1101811D01*
X193336Y1101439D01*
X193269Y1101043D01*
X193229Y1100624D01*
X193215Y1100180D01*
X193229Y1099747D01*
X193270Y1099337D01*
X193338Y1098949D01*
X193434Y1098583D01*
X193557Y1098240D01*
X193708Y1097920D01*
X193886Y1097622D01*
X194091Y1097347D01*
X194318Y1097100D01*
X194562Y1096885D01*
X194823Y1096704D01*
X195101Y1096556D01*
X195395Y1096440D01*
X195705Y1096358D01*
X196033Y1096308D01*
X196377Y1096292D01*
X196638Y1096301D01*
X196890Y1096328D01*
X197134Y1096374D01*
X197369Y1096437D01*
X197596Y1096519D01*
X197814Y1096619D01*
X198024Y1096738D01*
X198225Y1096874D01*
X198414Y1097026D01*
X198585Y1097192D01*
X198739Y1097371D01*
X198876Y1097563D01*
X198995Y1097768D01*
X199097Y1097987D01*
X199182Y1098219D01*
X199250Y1098464D01*
X199285Y1098464D01*
X199339Y1098200D01*
X199413Y1097949D01*
X199508Y1097710D01*
X199622Y1097483D01*
X199757Y1097268D01*
X199912Y1097065D01*
X200088Y1096874D01*
X200283Y1096695D01*
X200495Y1096532D01*
X200719Y1096392D01*
X200955Y1096273D01*
X201203Y1096176D01*
X201463Y1096100D01*
X201735Y1096046D01*
X202019Y1096013D01*
X202315Y1096003D01*
X202734Y1096020D01*
G37*
G36*
X205740Y1061309D02*
X197507Y1061309D01*
X195852Y1061273D01*
X194879Y1061247D01*
X195843Y1061536D01*
X197332Y1062027D01*
X205740Y1065259D01*
X205740Y1066432D01*
X197332Y1069620D01*
X196847Y1069797D01*
X196276Y1069984D01*
X194879Y1070391D01*
X196167Y1070332D01*
X197507Y1070312D01*
X205740Y1070312D01*
X205740Y1071819D01*
X193399Y1071819D01*
X193399Y1069673D01*
X201956Y1066450D01*
X202273Y1066335D01*
X202854Y1066148D01*
X203477Y1065963D01*
X203918Y1065854D01*
X203064Y1065640D01*
X202492Y1065474D01*
X201956Y1065302D01*
X193399Y1062018D01*
X193399Y1059820D01*
X205740Y1059820D01*
X205740Y1061309D01*
G37*
G36*
X205740Y1084479D02*
X204374Y1084479D01*
X204374Y1076430D01*
X200073Y1076430D01*
X200073Y1083594D01*
X198724Y1083594D01*
X198724Y1076430D01*
X194766Y1076430D01*
X194766Y1084120D01*
X193399Y1084120D01*
X193399Y1074757D01*
X205740Y1074757D01*
X205740Y1084479D01*
G37*
%LPC*%
G36*
X198912Y1107497D02*
X198307Y1107526D01*
X197750Y1107576D01*
X197240Y1107645D01*
X196778Y1107735D01*
X196363Y1107844D01*
X195996Y1107973D01*
X195676Y1108122D01*
X195399Y1108293D01*
X195159Y1108490D01*
X194956Y1108713D01*
X194790Y1108961D01*
X194660Y1109235D01*
X194568Y1109535D01*
X194513Y1109860D01*
X194494Y1110211D01*
X194513Y1110553D01*
X194569Y1110870D01*
X194663Y1111162D01*
X194794Y1111429D01*
X194963Y1111671D01*
X195169Y1111888D01*
X195413Y1112080D01*
X195694Y1112247D01*
X196017Y1112392D01*
X196386Y1112517D01*
X196801Y1112623D01*
X197262Y1112710D01*
X197769Y1112778D01*
X198322Y1112826D01*
X198920Y1112855D01*
X199565Y1112864D01*
X200188Y1112854D01*
X200770Y1112824D01*
X201309Y1112773D01*
X201807Y1112702D01*
X202264Y1112611D01*
X202679Y1112500D01*
X203052Y1112368D01*
X203384Y1112216D01*
X203675Y1112043D01*
X203928Y1111846D01*
X204142Y1111625D01*
X204317Y1111382D01*
X204453Y1111115D01*
X204550Y1110825D01*
X204608Y1110512D01*
X204628Y1110175D01*
X204609Y1109837D01*
X204552Y1109522D01*
X204456Y1109231D01*
X204323Y1108964D01*
X204152Y1108720D01*
X203943Y1108500D01*
X203696Y1108303D01*
X203410Y1108130D01*
X203084Y1107979D01*
X202713Y1107849D01*
X202299Y1107738D01*
X201840Y1107648D01*
X201338Y1107577D01*
X200791Y1107527D01*
X200200Y1107497D01*
X199565Y1107487D01*
X198912Y1107497D01*
G37*
%LPD*%
G36*
X205740Y1094328D02*
X204400Y1094328D01*
X204400Y1087891D01*
X204090Y1088043D01*
X203775Y1088237D01*
X203453Y1088472D01*
X203126Y1088749D01*
X202785Y1089073D01*
X202424Y1089448D01*
X202043Y1089874D01*
X201641Y1090352D01*
X200945Y1091193D01*
X200347Y1091887D01*
X199846Y1092433D01*
X199443Y1092831D01*
X199088Y1093135D01*
X198733Y1093399D01*
X198378Y1093623D01*
X198024Y1093807D01*
X197668Y1093951D01*
X197312Y1094053D01*
X196955Y1094115D01*
X196596Y1094136D01*
X196203Y1094120D01*
X195832Y1094073D01*
X195485Y1093995D01*
X195161Y1093885D01*
X194860Y1093744D01*
X194582Y1093571D01*
X194327Y1093368D01*
X194096Y1093133D01*
X193889Y1092868D01*
X193710Y1092577D01*
X193559Y1092259D01*
X193435Y1091914D01*
X193339Y1091542D01*
X193270Y1091143D01*
X193229Y1090717D01*
X193215Y1090264D01*
X193229Y1089849D01*
X193270Y1089453D01*
X193338Y1089077D01*
X193434Y1088719D01*
X193557Y1088382D01*
X193708Y1088063D01*
X193886Y1087763D01*
X194091Y1087483D01*
X194320Y1087227D01*
X194567Y1086999D01*
X194833Y1086800D01*
X195118Y1086628D01*
X195422Y1086485D01*
X195745Y1086371D01*
X196087Y1086285D01*
X196447Y1086227D01*
X196596Y1087838D01*
X196356Y1087875D01*
X196129Y1087929D01*
X195916Y1087999D01*
X195717Y1088087D01*
X195532Y1088191D01*
X195360Y1088312D01*
X195203Y1088450D01*
X195059Y1088605D01*
X194931Y1088773D01*
X194819Y1088953D01*
X194725Y1089144D01*
X194648Y1089346D01*
X194589Y1089559D01*
X194546Y1089783D01*
X194520Y1090018D01*
X194512Y1090264D01*
X194520Y1090522D01*
X194547Y1090765D01*
X194590Y1090994D01*
X194652Y1091208D01*
X194731Y1091408D01*
X194827Y1091593D01*
X194941Y1091763D01*
X195072Y1091920D01*
X195219Y1092059D01*
X195381Y1092180D01*
X195557Y1092283D01*
X195747Y1092366D01*
X195951Y1092431D01*
X196169Y1092478D01*
X196402Y1092506D01*
X196649Y1092515D01*
X197015Y1092494D01*
X197362Y1092429D01*
X197690Y1092321D01*
X197997Y1092169D01*
X198292Y1091983D01*
X198580Y1091770D01*
X198861Y1091530D01*
X199136Y1091263D01*
X199679Y1090668D01*
X200222Y1090006D01*
X200788Y1089306D01*
X201400Y1088600D01*
X201727Y1088250D01*
X202072Y1087907D01*
X202436Y1087573D01*
X202819Y1087247D01*
X203226Y1086937D01*
X203663Y1086652D01*
X204130Y1086392D01*
X204628Y1086157D01*
X205740Y1086157D01*
X205740Y1094328D01*
G37*
%LPC*%
G36*
X199951Y1049524D02*
X199951Y1052642D01*
X199959Y1053013D01*
X199985Y1053360D01*
X200027Y1053684D01*
X200087Y1053983D01*
X200164Y1054258D01*
X200257Y1054510D01*
X200368Y1054737D01*
X200496Y1054941D01*
X200641Y1055120D01*
X200803Y1055276D01*
X200981Y1055408D01*
X201177Y1055516D01*
X201390Y1055599D01*
X201620Y1055659D01*
X201867Y1055695D01*
X202132Y1055707D01*
X202405Y1055696D01*
X202661Y1055663D01*
X202900Y1055609D01*
X203121Y1055532D01*
X203325Y1055434D01*
X203511Y1055313D01*
X203680Y1055171D01*
X203831Y1055007D01*
X203964Y1054818D01*
X204080Y1054604D01*
X204178Y1054364D01*
X204258Y1054098D01*
X204320Y1053806D01*
X204364Y1053487D01*
X204391Y1053143D01*
X204400Y1052773D01*
X204400Y1049524D01*
X199951Y1049524D01*
G37*
G36*
X201918Y1097642D02*
X201666Y1097674D01*
X201429Y1097727D01*
X201206Y1097800D01*
X200999Y1097895D01*
X200805Y1098011D01*
X200627Y1098148D01*
X200463Y1098306D01*
X200316Y1098483D01*
X200189Y1098676D01*
X200081Y1098886D01*
X199993Y1099112D01*
X199925Y1099354D01*
X199876Y1099613D01*
X199847Y1099889D01*
X199837Y1100180D01*
X199846Y1100481D01*
X199873Y1100763D01*
X199919Y1101029D01*
X199982Y1101277D01*
X200064Y1101509D01*
X200164Y1101723D01*
X200283Y1101919D01*
X200419Y1102099D01*
X200574Y1102259D01*
X200746Y1102397D01*
X200935Y1102515D01*
X201143Y1102611D01*
X201368Y1102686D01*
X201611Y1102739D01*
X201871Y1102771D01*
X202149Y1102782D01*
X202475Y1102772D01*
X202778Y1102742D01*
X203058Y1102693D01*
X203315Y1102624D01*
X203549Y1102535D01*
X203761Y1102427D01*
X203950Y1102299D01*
X204115Y1102151D01*
X204260Y1101983D01*
X204385Y1101795D01*
X204492Y1101586D01*
X204578Y1101356D01*
X204646Y1101106D01*
X204694Y1100836D01*
X204723Y1100545D01*
X204733Y1100233D01*
X204723Y1099918D01*
X204693Y1099623D01*
X204643Y1099349D01*
X204574Y1099095D01*
X204484Y1098861D01*
X204374Y1098648D01*
X204245Y1098455D01*
X204096Y1098282D01*
X203926Y1098130D01*
X203737Y1097998D01*
X203528Y1097886D01*
X203299Y1097794D01*
X203050Y1097723D01*
X202781Y1097672D01*
X202493Y1097642D01*
X202184Y1097632D01*
X201918Y1097642D01*
G37*
G36*
X194739Y1049524D02*
X194739Y1052335D01*
X194746Y1052650D01*
X194766Y1052945D01*
X194800Y1053221D01*
X194847Y1053478D01*
X194907Y1053716D01*
X194981Y1053935D01*
X195068Y1054134D01*
X195168Y1054315D01*
X195285Y1054475D01*
X195419Y1054614D01*
X195570Y1054731D01*
X195740Y1054827D01*
X195927Y1054902D01*
X196132Y1054955D01*
X196355Y1054987D01*
X196596Y1054998D01*
X196848Y1054987D01*
X197084Y1054956D01*
X197302Y1054905D01*
X197504Y1054832D01*
X197689Y1054739D01*
X197857Y1054626D01*
X198008Y1054491D01*
X198142Y1054337D01*
X198260Y1054161D01*
X198362Y1053963D01*
X198449Y1053745D01*
X198520Y1053506D01*
X198575Y1053245D01*
X198614Y1052963D01*
X198638Y1052660D01*
X198646Y1052335D01*
X198646Y1049524D01*
X194739Y1049524D01*
G37*
G36*
X196230Y1097912D02*
X195993Y1097940D01*
X195773Y1097985D01*
X195569Y1098049D01*
X195381Y1098131D01*
X195210Y1098231D01*
X195054Y1098349D01*
X194914Y1098486D01*
X194791Y1098640D01*
X194685Y1098810D01*
X194594Y1098997D01*
X194520Y1099201D01*
X194463Y1099421D01*
X194422Y1099657D01*
X194397Y1099911D01*
X194389Y1100180D01*
X194397Y1100458D01*
X194422Y1100718D01*
X194463Y1100960D01*
X194520Y1101184D01*
X194593Y1101391D01*
X194683Y1101579D01*
X194790Y1101749D01*
X194912Y1101902D01*
X195051Y1102036D01*
X195207Y1102153D01*
X195378Y1102251D01*
X195566Y1102332D01*
X195771Y1102395D01*
X195992Y1102439D01*
X196229Y1102466D01*
X196482Y1102475D01*
X196759Y1102466D01*
X197016Y1102439D01*
X197253Y1102393D01*
X197471Y1102330D01*
X197668Y1102248D01*
X197846Y1102148D01*
X198004Y1102029D01*
X198142Y1101893D01*
X198262Y1101739D01*
X198366Y1101568D01*
X198454Y1101381D01*
X198526Y1101178D01*
X198582Y1100958D01*
X198622Y1100721D01*
X198646Y1100468D01*
X198654Y1100198D01*
X198646Y1099932D01*
X198620Y1099681D01*
X198576Y1099446D01*
X198515Y1099227D01*
X198437Y1099023D01*
X198342Y1098834D01*
X198229Y1098661D01*
X198098Y1098503D01*
X197951Y1098363D01*
X197789Y1098241D01*
X197610Y1098138D01*
X197416Y1098053D01*
X197206Y1097988D01*
X196981Y1097941D01*
X196739Y1097913D01*
X196482Y1097903D01*
X196230Y1097912D01*
G37*
%LPD*%
G36*
X214348Y729781D02*
X214783Y729820D01*
X215203Y729885D01*
X215610Y729976D01*
X216004Y730093D01*
X216383Y730236D01*
X216749Y730405D01*
X217101Y730600D01*
X217436Y730820D01*
X217752Y731064D01*
X218048Y731331D01*
X218326Y731622D01*
X218584Y731938D01*
X218822Y732277D01*
X219042Y732639D01*
X219242Y733026D01*
X217876Y733709D01*
X217707Y733398D01*
X217529Y733108D01*
X217341Y732837D01*
X217143Y732586D01*
X216934Y732356D01*
X216716Y732145D01*
X216487Y731955D01*
X216249Y731784D01*
X216000Y731634D01*
X215741Y731504D01*
X215473Y731394D01*
X215194Y731303D01*
X214905Y731233D01*
X214606Y731183D01*
X214297Y731153D01*
X213978Y731143D01*
X213485Y731164D01*
X213019Y731229D01*
X212578Y731337D01*
X212164Y731488D01*
X211776Y731682D01*
X211414Y731919D01*
X211078Y732199D01*
X210768Y732522D01*
X210490Y732881D01*
X210249Y733268D01*
X210045Y733682D01*
X209878Y734124D01*
X209748Y734594D01*
X209655Y735092D01*
X209600Y735617D01*
X209581Y736170D01*
X209599Y736729D01*
X209652Y737257D01*
X209741Y737754D01*
X209866Y738221D01*
X210026Y738657D01*
X210222Y739063D01*
X210453Y739438D01*
X210720Y739783D01*
X211019Y740092D01*
X211346Y740360D01*
X211702Y740586D01*
X212086Y740772D01*
X212499Y740916D01*
X212940Y741019D01*
X213410Y741081D01*
X213908Y741101D01*
X214229Y741092D01*
X214538Y741066D01*
X214837Y741021D01*
X215124Y740959D01*
X215401Y740879D01*
X215666Y740781D01*
X215920Y740666D01*
X216163Y740532D01*
X216393Y740382D01*
X216606Y740216D01*
X216803Y740034D01*
X216983Y739836D01*
X217148Y739622D01*
X217296Y739392D01*
X217427Y739147D01*
X217543Y738885D01*
X219128Y739411D01*
X218962Y739778D01*
X218773Y740122D01*
X218563Y740443D01*
X218331Y740740D01*
X218077Y741014D01*
X217801Y741265D01*
X217503Y741493D01*
X217184Y741697D01*
X216843Y741878D01*
X216482Y742034D01*
X216101Y742167D01*
X215699Y742275D01*
X215277Y742359D01*
X214835Y742420D01*
X214373Y742456D01*
X213891Y742468D01*
X213543Y742461D01*
X213205Y742442D01*
X212876Y742409D01*
X212557Y742363D01*
X212248Y742304D01*
X211948Y742232D01*
X211657Y742148D01*
X211377Y742049D01*
X211106Y741938D01*
X210844Y741814D01*
X210592Y741677D01*
X210350Y741527D01*
X209894Y741187D01*
X209476Y740795D01*
X209103Y740357D01*
X208779Y739878D01*
X208505Y739360D01*
X208387Y739086D01*
X208281Y738802D01*
X208187Y738508D01*
X208106Y738204D01*
X208038Y737890D01*
X207982Y737566D01*
X207938Y737232D01*
X207907Y736888D01*
X207888Y736534D01*
X207882Y736170D01*
X207893Y735686D01*
X207927Y735218D01*
X207983Y734767D01*
X208061Y734332D01*
X208161Y733914D01*
X208284Y733512D01*
X208429Y733127D01*
X208596Y732759D01*
X208785Y732409D01*
X208993Y732080D01*
X209222Y731772D01*
X209472Y731485D01*
X209741Y731218D01*
X210031Y730972D01*
X210341Y730747D01*
X210672Y730543D01*
X211020Y730361D01*
X211384Y730204D01*
X211764Y730071D01*
X212160Y729962D01*
X212571Y729877D01*
X212998Y729816D01*
X213441Y729780D01*
X213899Y729768D01*
X214348Y729781D01*
G37*
G36*
X229040Y731283D02*
X226036Y731283D01*
X226036Y742284D01*
X224582Y742284D01*
X221665Y740278D01*
X221665Y738789D01*
X224451Y740777D01*
X224451Y731283D01*
X221306Y731283D01*
X221306Y729943D01*
X229040Y729943D01*
X229040Y731283D01*
G37*
G36*
X445951Y780874D02*
X446386Y780913D01*
X446806Y780978D01*
X447213Y781069D01*
X447607Y781186D01*
X447986Y781329D01*
X448352Y781498D01*
X448704Y781693D01*
X449039Y781913D01*
X449355Y782157D01*
X449651Y782425D01*
X449929Y782716D01*
X450187Y783031D01*
X450425Y783370D01*
X450645Y783733D01*
X450845Y784120D01*
X449479Y784803D01*
X449310Y784492D01*
X449132Y784201D01*
X448944Y783931D01*
X448746Y783680D01*
X448537Y783449D01*
X448319Y783239D01*
X448090Y783048D01*
X447852Y782878D01*
X447603Y782728D01*
X447344Y782597D01*
X447076Y782487D01*
X446797Y782397D01*
X446508Y782327D01*
X446209Y782277D01*
X445900Y782246D01*
X445581Y782236D01*
X445088Y782258D01*
X444622Y782323D01*
X444181Y782430D01*
X443767Y782581D01*
X443379Y782775D01*
X443017Y783012D01*
X442681Y783293D01*
X442371Y783616D01*
X442093Y783975D01*
X441852Y784361D01*
X441648Y784776D01*
X441481Y785218D01*
X441351Y785687D01*
X441258Y786185D01*
X441203Y786711D01*
X441184Y787264D01*
X441202Y787822D01*
X441255Y788350D01*
X441344Y788848D01*
X441469Y789314D01*
X441629Y789751D01*
X441825Y790157D01*
X442056Y790532D01*
X442323Y790877D01*
X442622Y791186D01*
X442949Y791453D01*
X443305Y791680D01*
X443689Y791865D01*
X444102Y792010D01*
X444543Y792113D01*
X445013Y792174D01*
X445511Y792195D01*
X445832Y792186D01*
X446141Y792159D01*
X446440Y792115D01*
X446727Y792053D01*
X447004Y791973D01*
X447269Y791875D01*
X447523Y791759D01*
X447766Y791626D01*
X447996Y791475D01*
X448209Y791309D01*
X448406Y791127D01*
X448586Y790929D01*
X448751Y790716D01*
X448899Y790486D01*
X449030Y790240D01*
X449146Y789979D01*
X450731Y790504D01*
X450565Y790872D01*
X450376Y791216D01*
X450166Y791536D01*
X449934Y791834D01*
X449680Y792108D01*
X449404Y792359D01*
X449106Y792586D01*
X448787Y792790D01*
X448446Y792971D01*
X448085Y793128D01*
X447704Y793260D01*
X447302Y793369D01*
X446880Y793453D01*
X446438Y793513D01*
X445976Y793549D01*
X445494Y793561D01*
X445146Y793555D01*
X444808Y793535D01*
X444479Y793502D01*
X444160Y793457D01*
X443851Y793398D01*
X443551Y793326D01*
X443260Y793241D01*
X442980Y793143D01*
X442709Y793032D01*
X442447Y792908D01*
X442195Y792771D01*
X441953Y792620D01*
X441497Y792280D01*
X441079Y791888D01*
X440706Y791450D01*
X440382Y790972D01*
X440108Y790454D01*
X439990Y790180D01*
X439884Y789896D01*
X439790Y789602D01*
X439709Y789298D01*
X439641Y788984D01*
X439585Y788660D01*
X439541Y788326D01*
X439510Y787982D01*
X439491Y787628D01*
X439485Y787264D01*
X439496Y786779D01*
X439530Y786312D01*
X439586Y785860D01*
X439664Y785426D01*
X439764Y785007D01*
X439887Y784606D01*
X440032Y784221D01*
X440199Y783852D01*
X440388Y783503D01*
X440596Y783174D01*
X440825Y782865D01*
X441075Y782578D01*
X441344Y782311D01*
X441634Y782066D01*
X441944Y781841D01*
X442275Y781636D01*
X442623Y781455D01*
X442987Y781297D01*
X443367Y781164D01*
X443763Y781055D01*
X444174Y780970D01*
X444601Y780910D01*
X445044Y780873D01*
X445502Y780861D01*
X445951Y780874D01*
G37*
G36*
X460617Y782377D02*
X454179Y782377D01*
X454332Y782686D01*
X454525Y783002D01*
X454761Y783323D01*
X455038Y783651D01*
X455361Y783992D01*
X455736Y784353D01*
X456163Y784734D01*
X456640Y785135D01*
X457482Y785831D01*
X458175Y786430D01*
X458721Y786930D01*
X459119Y787334D01*
X459423Y787689D01*
X459687Y788043D01*
X459912Y788398D01*
X460096Y788753D01*
X460239Y789108D01*
X460342Y789464D01*
X460404Y789822D01*
X460424Y790180D01*
X460408Y790574D01*
X460361Y790944D01*
X460283Y791292D01*
X460173Y791616D01*
X460032Y791917D01*
X459860Y792195D01*
X459656Y792449D01*
X459421Y792681D01*
X459157Y792887D01*
X458866Y793066D01*
X458548Y793217D01*
X458203Y793341D01*
X457831Y793437D01*
X457432Y793506D01*
X457006Y793547D01*
X456553Y793561D01*
X456138Y793548D01*
X455742Y793506D01*
X455365Y793438D01*
X455008Y793342D01*
X454670Y793219D01*
X454351Y793069D01*
X454052Y792891D01*
X453772Y792685D01*
X453516Y792457D01*
X453288Y792210D01*
X453088Y791943D01*
X452917Y791658D01*
X452774Y791354D01*
X452659Y791032D01*
X452573Y790690D01*
X452515Y790329D01*
X454127Y790180D01*
X454164Y790421D01*
X454217Y790648D01*
X454288Y790861D01*
X454375Y791060D01*
X454480Y791245D01*
X454601Y791416D01*
X454738Y791574D01*
X454893Y791718D01*
X455062Y791846D01*
X455242Y791957D01*
X455432Y792051D01*
X455634Y792128D01*
X455847Y792188D01*
X456071Y792231D01*
X456307Y792256D01*
X456553Y792265D01*
X456811Y792256D01*
X457054Y792230D01*
X457282Y792186D01*
X457497Y792125D01*
X457696Y792046D01*
X457881Y791950D01*
X458052Y791836D01*
X458208Y791704D01*
X458348Y791557D01*
X458469Y791396D01*
X458571Y791220D01*
X458655Y791030D01*
X458720Y790826D01*
X458767Y790607D01*
X458795Y790375D01*
X458804Y790128D01*
X458782Y789761D01*
X458717Y789414D01*
X458609Y789087D01*
X458458Y788779D01*
X458271Y788485D01*
X458058Y788197D01*
X457818Y787915D01*
X457551Y787640D01*
X456957Y787097D01*
X456295Y786554D01*
X455595Y785988D01*
X454889Y785376D01*
X454538Y785050D01*
X454196Y784704D01*
X453862Y784340D01*
X453536Y783957D01*
X453226Y783550D01*
X452941Y783113D01*
X452681Y782646D01*
X452445Y782149D01*
X452445Y781037D01*
X460617Y781037D01*
X460617Y782377D01*
G37*
G36*
X364208Y781195D02*
X364643Y781234D01*
X365063Y781299D01*
X365470Y781390D01*
X365864Y781507D01*
X366243Y781650D01*
X366609Y781819D01*
X366961Y782014D01*
X367296Y782234D01*
X367612Y782478D01*
X367908Y782745D01*
X368186Y783036D01*
X368444Y783352D01*
X368682Y783691D01*
X368902Y784053D01*
X369102Y784440D01*
X367736Y785123D01*
X367567Y784812D01*
X367389Y784522D01*
X367201Y784251D01*
X367003Y784000D01*
X366794Y783770D01*
X366576Y783559D01*
X366347Y783369D01*
X366109Y783198D01*
X365860Y783048D01*
X365601Y782918D01*
X365333Y782808D01*
X365054Y782717D01*
X364765Y782647D01*
X364466Y782597D01*
X364157Y782567D01*
X363838Y782557D01*
X363345Y782578D01*
X362879Y782643D01*
X362438Y782751D01*
X362024Y782902D01*
X361636Y783096D01*
X361274Y783333D01*
X360938Y783613D01*
X360628Y783936D01*
X360350Y784295D01*
X360109Y784682D01*
X359905Y785096D01*
X359738Y785538D01*
X359608Y786008D01*
X359515Y786506D01*
X359460Y787031D01*
X359441Y787584D01*
X359459Y788143D01*
X359512Y788671D01*
X359601Y789168D01*
X359726Y789635D01*
X359886Y790071D01*
X360082Y790477D01*
X360313Y790852D01*
X360580Y791197D01*
X360879Y791506D01*
X361206Y791774D01*
X361562Y792000D01*
X361946Y792186D01*
X362359Y792330D01*
X362800Y792433D01*
X363270Y792495D01*
X363768Y792515D01*
X364089Y792506D01*
X364398Y792480D01*
X364697Y792435D01*
X364984Y792373D01*
X365261Y792293D01*
X365526Y792195D01*
X365780Y792080D01*
X366023Y791946D01*
X366253Y791796D01*
X366466Y791630D01*
X366663Y791448D01*
X366843Y791250D01*
X367008Y791036D01*
X367156Y790806D01*
X367287Y790561D01*
X367403Y790299D01*
X368988Y790825D01*
X368822Y791192D01*
X368633Y791536D01*
X368423Y791857D01*
X368191Y792154D01*
X367937Y792428D01*
X367661Y792679D01*
X367363Y792907D01*
X367044Y793111D01*
X366703Y793292D01*
X366342Y793448D01*
X365961Y793581D01*
X365559Y793689D01*
X365137Y793773D01*
X364695Y793834D01*
X364233Y793870D01*
X363751Y793882D01*
X363403Y793875D01*
X363065Y793856D01*
X362736Y793823D01*
X362417Y793777D01*
X362108Y793718D01*
X361808Y793646D01*
X361517Y793562D01*
X361237Y793463D01*
X360966Y793352D01*
X360704Y793228D01*
X360452Y793091D01*
X360210Y792941D01*
X359754Y792601D01*
X359336Y792209D01*
X358963Y791771D01*
X358639Y791292D01*
X358365Y790774D01*
X358247Y790500D01*
X358141Y790216D01*
X358047Y789922D01*
X357966Y789618D01*
X357898Y789304D01*
X357842Y788980D01*
X357798Y788646D01*
X357767Y788302D01*
X357748Y787948D01*
X357742Y787584D01*
X357753Y787100D01*
X357787Y786632D01*
X357843Y786181D01*
X357921Y785746D01*
X358021Y785328D01*
X358144Y784926D01*
X358289Y784541D01*
X358456Y784173D01*
X358645Y783823D01*
X358853Y783494D01*
X359082Y783186D01*
X359332Y782899D01*
X359601Y782632D01*
X359891Y782386D01*
X360201Y782161D01*
X360532Y781957D01*
X360880Y781775D01*
X361244Y781618D01*
X361624Y781485D01*
X362020Y781376D01*
X362431Y781291D01*
X362858Y781230D01*
X363301Y781194D01*
X363759Y781182D01*
X364208Y781195D01*
G37*
G36*
X375144Y781199D02*
X375616Y781252D01*
X376061Y781340D01*
X376477Y781462D01*
X376866Y781620D01*
X377226Y781812D01*
X377558Y782040D01*
X377862Y782303D01*
X378134Y782596D01*
X378370Y782915D01*
X378569Y783261D01*
X378733Y783632D01*
X378860Y784029D01*
X378950Y784453D01*
X379005Y784902D01*
X379023Y785377D01*
X379006Y785796D01*
X378955Y786195D01*
X378871Y786574D01*
X378752Y786932D01*
X378600Y787270D01*
X378414Y787588D01*
X378195Y787885D01*
X377941Y788162D01*
X377659Y788413D01*
X377354Y788630D01*
X377026Y788814D01*
X376674Y788964D01*
X376300Y789081D01*
X375902Y789164D01*
X375481Y789214D01*
X375038Y789231D01*
X374664Y789219D01*
X374307Y789182D01*
X373965Y789120D01*
X373638Y789034D01*
X373328Y788923D01*
X373032Y788788D01*
X372753Y788627D01*
X372489Y788443D01*
X372725Y792358D01*
X378305Y792358D01*
X378305Y793698D01*
X371289Y793698D01*
X370877Y787059D01*
X372419Y787059D01*
X372695Y787282D01*
X372971Y787470D01*
X373246Y787624D01*
X373522Y787742D01*
X373804Y787830D01*
X374096Y787893D01*
X374399Y787931D01*
X374714Y787943D01*
X375012Y787932D01*
X375295Y787899D01*
X375562Y787842D01*
X375814Y787764D01*
X376050Y787663D01*
X376270Y787539D01*
X376474Y787394D01*
X376662Y787225D01*
X376832Y787039D01*
X376978Y786838D01*
X377103Y786624D01*
X377204Y786395D01*
X377283Y786153D01*
X377340Y785897D01*
X377374Y785626D01*
X377385Y785342D01*
X377374Y785016D01*
X377340Y784708D01*
X377284Y784418D01*
X377205Y784146D01*
X377104Y783891D01*
X376981Y783655D01*
X376835Y783436D01*
X376667Y783236D01*
X376479Y783056D01*
X376273Y782900D01*
X376050Y782769D01*
X375811Y782661D01*
X375553Y782577D01*
X375279Y782517D01*
X374987Y782481D01*
X374679Y782469D01*
X374426Y782476D01*
X374186Y782498D01*
X373958Y782534D01*
X373743Y782584D01*
X373540Y782648D01*
X373349Y782727D01*
X373170Y782820D01*
X373003Y782927D01*
X372849Y783049D01*
X372707Y783184D01*
X372577Y783335D01*
X372460Y783499D01*
X372355Y783678D01*
X372262Y783871D01*
X372181Y784078D01*
X372112Y784300D01*
X370518Y784116D01*
X370600Y783770D01*
X370707Y783444D01*
X370838Y783140D01*
X370993Y782857D01*
X371173Y782595D01*
X371377Y782354D01*
X371605Y782134D01*
X371858Y781935D01*
X372134Y781759D01*
X372430Y781606D01*
X372747Y781476D01*
X373084Y781370D01*
X373443Y781288D01*
X373822Y781229D01*
X374223Y781194D01*
X374643Y781182D01*
X375144Y781199D01*
G37*
G36*
X151936Y729786D02*
X152365Y729838D01*
X152768Y729927D01*
X153147Y730050D01*
X153500Y730209D01*
X153828Y730403D01*
X154130Y730633D01*
X154408Y730898D01*
X154656Y731193D01*
X154872Y731514D01*
X155054Y731861D01*
X155203Y732233D01*
X155319Y732632D01*
X155401Y733056D01*
X155451Y733505D01*
X155468Y733981D01*
X155452Y734420D01*
X155405Y734837D01*
X155327Y735230D01*
X155217Y735601D01*
X155076Y735949D01*
X154904Y736273D01*
X154700Y736575D01*
X154465Y736853D01*
X154203Y737104D01*
X153919Y737321D01*
X153614Y737505D01*
X153286Y737655D01*
X152936Y737772D01*
X152564Y737855D01*
X152170Y737905D01*
X151754Y737922D01*
X151506Y737916D01*
X151265Y737896D01*
X151031Y737864D01*
X150804Y737818D01*
X150371Y737688D01*
X149967Y737506D01*
X149599Y737274D01*
X149275Y736995D01*
X148995Y736668D01*
X148759Y736293D01*
X148770Y736871D01*
X148805Y737414D01*
X148863Y737921D01*
X148944Y738394D01*
X149048Y738831D01*
X149175Y739233D01*
X149325Y739600D01*
X149499Y739932D01*
X149693Y740227D01*
X149907Y740482D01*
X150139Y740698D01*
X150391Y740875D01*
X150662Y741012D01*
X150951Y741110D01*
X151260Y741169D01*
X151588Y741189D01*
X151962Y741165D01*
X152303Y741095D01*
X152608Y740977D01*
X152880Y740812D01*
X153116Y740601D01*
X153319Y740342D01*
X153486Y740036D01*
X153620Y739683D01*
X155126Y739954D01*
X155027Y740258D01*
X154912Y740543D01*
X154781Y740808D01*
X154633Y741054D01*
X154470Y741280D01*
X154290Y741486D01*
X154094Y741672D01*
X153882Y741839D01*
X153654Y741987D01*
X153410Y742114D01*
X153150Y742222D01*
X152873Y742311D01*
X152580Y742379D01*
X152271Y742428D01*
X151946Y742458D01*
X151605Y742468D01*
X151344Y742461D01*
X151090Y742441D01*
X150845Y742407D01*
X150606Y742360D01*
X150375Y742300D01*
X150152Y742226D01*
X149729Y742039D01*
X149336Y741797D01*
X148973Y741502D01*
X148640Y741153D01*
X148338Y740751D01*
X148069Y740299D01*
X147836Y739800D01*
X147639Y739254D01*
X147478Y738662D01*
X147352Y738024D01*
X147263Y737338D01*
X147209Y736607D01*
X147191Y735829D01*
X147208Y735111D01*
X147260Y734437D01*
X147346Y733807D01*
X147467Y733221D01*
X147622Y732679D01*
X147812Y732181D01*
X148036Y731728D01*
X148294Y731318D01*
X148586Y730955D01*
X148908Y730640D01*
X149260Y730373D01*
X149643Y730155D01*
X150057Y729986D01*
X150502Y729865D01*
X150977Y729792D01*
X151226Y729774D01*
X151483Y729768D01*
X151936Y729786D01*
G37*
G36*
X140688Y729781D02*
X141123Y729820D01*
X141543Y729885D01*
X141950Y729976D01*
X142344Y730093D01*
X142723Y730236D01*
X143089Y730405D01*
X143441Y730600D01*
X143776Y730820D01*
X144092Y731064D01*
X144388Y731331D01*
X144666Y731622D01*
X144924Y731938D01*
X145162Y732277D01*
X145382Y732639D01*
X145582Y733026D01*
X144216Y733709D01*
X144047Y733398D01*
X143869Y733108D01*
X143681Y732837D01*
X143483Y732586D01*
X143274Y732356D01*
X143056Y732145D01*
X142827Y731955D01*
X142589Y731784D01*
X142340Y731634D01*
X142081Y731504D01*
X141813Y731394D01*
X141534Y731303D01*
X141245Y731233D01*
X140946Y731183D01*
X140637Y731153D01*
X140318Y731143D01*
X139825Y731164D01*
X139359Y731229D01*
X138918Y731337D01*
X138504Y731488D01*
X138116Y731682D01*
X137754Y731919D01*
X137418Y732199D01*
X137108Y732522D01*
X136830Y732881D01*
X136589Y733268D01*
X136385Y733682D01*
X136218Y734124D01*
X136088Y734594D01*
X135995Y735092D01*
X135940Y735617D01*
X135921Y736170D01*
X135939Y736729D01*
X135992Y737257D01*
X136081Y737754D01*
X136206Y738221D01*
X136366Y738657D01*
X136562Y739063D01*
X136793Y739438D01*
X137060Y739783D01*
X137359Y740092D01*
X137686Y740360D01*
X138042Y740586D01*
X138426Y740772D01*
X138839Y740916D01*
X139280Y741019D01*
X139750Y741081D01*
X140248Y741101D01*
X140569Y741092D01*
X140878Y741066D01*
X141177Y741021D01*
X141464Y740959D01*
X141741Y740879D01*
X142006Y740781D01*
X142260Y740666D01*
X142503Y740532D01*
X142733Y740382D01*
X142946Y740216D01*
X143143Y740034D01*
X143323Y739836D01*
X143488Y739622D01*
X143636Y739392D01*
X143767Y739147D01*
X143883Y738885D01*
X145468Y739411D01*
X145302Y739778D01*
X145113Y740122D01*
X144903Y740443D01*
X144671Y740740D01*
X144417Y741014D01*
X144141Y741265D01*
X143843Y741493D01*
X143524Y741697D01*
X143183Y741878D01*
X142822Y742034D01*
X142441Y742167D01*
X142039Y742275D01*
X141617Y742359D01*
X141175Y742420D01*
X140713Y742456D01*
X140231Y742468D01*
X139883Y742461D01*
X139545Y742442D01*
X139216Y742409D01*
X138897Y742363D01*
X138588Y742304D01*
X138288Y742232D01*
X137997Y742148D01*
X137717Y742049D01*
X137446Y741938D01*
X137184Y741814D01*
X136932Y741677D01*
X136690Y741527D01*
X136234Y741187D01*
X135816Y740795D01*
X135443Y740357D01*
X135119Y739878D01*
X134845Y739360D01*
X134727Y739086D01*
X134621Y738802D01*
X134527Y738508D01*
X134446Y738204D01*
X134378Y737890D01*
X134322Y737566D01*
X134278Y737232D01*
X134247Y736888D01*
X134228Y736534D01*
X134222Y736170D01*
X134233Y735686D01*
X134267Y735218D01*
X134323Y734767D01*
X134401Y734332D01*
X134501Y733914D01*
X134624Y733512D01*
X134769Y733127D01*
X134936Y732759D01*
X135125Y732409D01*
X135333Y732080D01*
X135562Y731772D01*
X135812Y731485D01*
X136081Y731218D01*
X136371Y730972D01*
X136681Y730747D01*
X137012Y730543D01*
X137360Y730361D01*
X137724Y730204D01*
X138104Y730071D01*
X138500Y729962D01*
X138911Y729877D01*
X139338Y729816D01*
X139781Y729780D01*
X140239Y729768D01*
X140688Y729781D01*
G37*
%LPC*%
G36*
X151160Y731052D02*
X150903Y731095D01*
X150658Y731166D01*
X150426Y731266D01*
X150206Y731394D01*
X149999Y731550D01*
X149804Y731735D01*
X149621Y731949D01*
X149456Y732185D01*
X149313Y732436D01*
X149192Y732705D01*
X149093Y732989D01*
X149015Y733289D01*
X148960Y733606D01*
X148927Y733938D01*
X148916Y734287D01*
X148927Y734562D01*
X148959Y734822D01*
X149012Y735066D01*
X149086Y735296D01*
X149181Y735510D01*
X149298Y735709D01*
X149436Y735892D01*
X149595Y736061D01*
X149771Y736212D01*
X149961Y736342D01*
X150164Y736453D01*
X150380Y736544D01*
X150610Y736614D01*
X150852Y736664D01*
X151108Y736695D01*
X151377Y736705D01*
X151663Y736693D01*
X151932Y736659D01*
X152185Y736602D01*
X152422Y736523D01*
X152643Y736421D01*
X152847Y736296D01*
X153036Y736148D01*
X153208Y735978D01*
X153362Y735786D01*
X153495Y735576D01*
X153608Y735346D01*
X153701Y735097D01*
X153773Y734829D01*
X153824Y734542D01*
X153855Y734236D01*
X153865Y733911D01*
X153855Y733585D01*
X153824Y733276D01*
X153774Y732986D01*
X153703Y732714D01*
X153612Y732460D01*
X153500Y732223D01*
X153369Y732005D01*
X153217Y731804D01*
X153047Y731625D01*
X152862Y731469D01*
X152662Y731337D01*
X152446Y731229D01*
X152215Y731146D01*
X151969Y731086D01*
X151707Y731050D01*
X151430Y731038D01*
X151160Y731052D01*
G37*
%LPD*%
G36*
X375331Y893231D02*
X375585Y893250D01*
X375831Y893282D01*
X376069Y893327D01*
X376520Y893454D01*
X376938Y893632D01*
X377324Y893861D01*
X377678Y894141D01*
X377999Y894472D01*
X378288Y894854D01*
X378544Y895284D01*
X378765Y895760D01*
X378953Y896281D01*
X379106Y896849D01*
X379225Y897462D01*
X379310Y898120D01*
X379362Y898825D01*
X379379Y899575D01*
X379362Y900337D01*
X379314Y901051D01*
X379233Y901716D01*
X379119Y902334D01*
X378973Y902903D01*
X378795Y903424D01*
X378584Y903897D01*
X378341Y904322D01*
X378063Y904698D01*
X377750Y905023D01*
X377402Y905299D01*
X377017Y905524D01*
X376597Y905699D01*
X376373Y905768D01*
X376141Y905825D01*
X375900Y905868D01*
X375649Y905900D01*
X375390Y905918D01*
X375122Y905925D01*
X374846Y905919D01*
X374580Y905900D01*
X374323Y905869D01*
X374076Y905826D01*
X373838Y905770D01*
X373610Y905702D01*
X373181Y905528D01*
X372790Y905305D01*
X372436Y905033D01*
X372120Y904711D01*
X371842Y904339D01*
X371599Y903918D01*
X371388Y903447D01*
X371209Y902926D01*
X371063Y902356D01*
X370950Y901735D01*
X370869Y901065D01*
X370820Y900345D01*
X370804Y899575D01*
X370821Y898821D01*
X370871Y898113D01*
X370954Y897452D01*
X371071Y896838D01*
X371221Y896270D01*
X371405Y895748D01*
X371622Y895274D01*
X371873Y894845D01*
X372156Y894465D01*
X372473Y894136D01*
X372823Y893858D01*
X373206Y893630D01*
X373622Y893453D01*
X374071Y893326D01*
X374309Y893282D01*
X374554Y893250D01*
X374808Y893231D01*
X375069Y893225D01*
X375331Y893231D01*
G37*
G36*
X385300Y893231D02*
X385554Y893250D01*
X385800Y893282D01*
X386037Y893327D01*
X386488Y893454D01*
X386907Y893632D01*
X387293Y893861D01*
X387647Y894141D01*
X387968Y894472D01*
X388257Y894854D01*
X388512Y895284D01*
X388734Y895760D01*
X388921Y896281D01*
X389075Y896849D01*
X389194Y897462D01*
X389279Y898120D01*
X389330Y898825D01*
X389347Y899575D01*
X389331Y900337D01*
X389282Y901051D01*
X389201Y901716D01*
X389088Y902334D01*
X388942Y902903D01*
X388764Y903424D01*
X388553Y903897D01*
X388309Y904322D01*
X388032Y904698D01*
X387719Y905023D01*
X387370Y905299D01*
X386986Y905524D01*
X386566Y905699D01*
X386342Y905768D01*
X386110Y905825D01*
X385868Y905868D01*
X385618Y905900D01*
X385359Y905918D01*
X385091Y905925D01*
X384815Y905919D01*
X384549Y905900D01*
X384292Y905869D01*
X384045Y905826D01*
X383807Y905770D01*
X383578Y905702D01*
X383150Y905528D01*
X382758Y905305D01*
X382405Y905033D01*
X382089Y904711D01*
X381811Y904339D01*
X381567Y903918D01*
X381357Y903447D01*
X381178Y902926D01*
X381032Y902356D01*
X380919Y901735D01*
X380838Y901065D01*
X380789Y900345D01*
X380773Y899575D01*
X380789Y898821D01*
X380840Y898113D01*
X380923Y897452D01*
X381040Y896838D01*
X381190Y896270D01*
X381374Y895748D01*
X381591Y895274D01*
X381841Y894845D01*
X382125Y894465D01*
X382442Y894136D01*
X382792Y893858D01*
X383175Y893630D01*
X383591Y893453D01*
X384040Y893326D01*
X384277Y893282D01*
X384523Y893250D01*
X384776Y893231D01*
X385038Y893225D01*
X385300Y893231D01*
G37*
G36*
X395269Y893231D02*
X395523Y893250D01*
X395769Y893282D01*
X396006Y893327D01*
X396457Y893454D01*
X396876Y893632D01*
X397262Y893861D01*
X397616Y894141D01*
X397937Y894472D01*
X398226Y894854D01*
X398481Y895284D01*
X398703Y895760D01*
X398890Y896281D01*
X399044Y896849D01*
X399163Y897462D01*
X399248Y898120D01*
X399299Y898825D01*
X399316Y899575D01*
X399300Y900337D01*
X399251Y901051D01*
X399170Y901716D01*
X399057Y902334D01*
X398911Y902903D01*
X398732Y903424D01*
X398521Y903897D01*
X398278Y904322D01*
X398001Y904698D01*
X397688Y905023D01*
X397339Y905299D01*
X396955Y905524D01*
X396534Y905699D01*
X396311Y905768D01*
X396078Y905825D01*
X395837Y905868D01*
X395587Y905900D01*
X395328Y905918D01*
X395059Y905925D01*
X394784Y905919D01*
X394518Y905900D01*
X394261Y905869D01*
X394014Y905826D01*
X393776Y905770D01*
X393547Y905702D01*
X393118Y905528D01*
X392727Y905305D01*
X392374Y905033D01*
X392058Y904711D01*
X391779Y904339D01*
X391536Y903918D01*
X391325Y903447D01*
X391147Y902926D01*
X391001Y902356D01*
X390887Y901735D01*
X390806Y901065D01*
X390758Y900345D01*
X390741Y899575D01*
X390758Y898821D01*
X390808Y898113D01*
X390892Y897452D01*
X391009Y896838D01*
X391159Y896270D01*
X391343Y895748D01*
X391560Y895274D01*
X391810Y894845D01*
X392094Y894465D01*
X392411Y894136D01*
X392760Y893858D01*
X393144Y893630D01*
X393560Y893453D01*
X394009Y893326D01*
X394246Y893282D01*
X394491Y893250D01*
X394745Y893231D01*
X395007Y893225D01*
X395269Y893231D01*
G37*
G36*
X403198Y897009D02*
X408821Y897009D01*
X410231Y893400D01*
X411939Y893400D01*
X406981Y905741D01*
X405081Y905741D01*
X400045Y893400D01*
X401779Y893400D01*
X403198Y897009D01*
G37*
G36*
X354799Y893240D02*
X355354Y893283D01*
X355875Y893357D01*
X356363Y893459D01*
X356816Y893591D01*
X357235Y893752D01*
X357620Y893942D01*
X357971Y894162D01*
X358284Y894408D01*
X358555Y894679D01*
X358785Y894973D01*
X358973Y895292D01*
X359119Y895635D01*
X359223Y896001D01*
X359286Y896392D01*
X359307Y896807D01*
X359295Y897133D01*
X359260Y897438D01*
X359201Y897720D01*
X359118Y897981D01*
X359015Y898222D01*
X358894Y898447D01*
X358755Y898656D01*
X358597Y898848D01*
X358423Y899025D01*
X358235Y899187D01*
X358031Y899336D01*
X357813Y899470D01*
X357346Y899707D01*
X356846Y899912D01*
X356317Y900087D01*
X355764Y900236D01*
X354630Y900503D01*
X353851Y900684D01*
X353213Y900850D01*
X352716Y901002D01*
X352361Y901138D01*
X352093Y901274D01*
X351859Y901425D01*
X351657Y901590D01*
X351490Y901769D01*
X351357Y901967D01*
X351263Y902190D01*
X351206Y902438D01*
X351188Y902710D01*
X351200Y902946D01*
X351236Y903166D01*
X351297Y903372D01*
X351382Y903562D01*
X351492Y903737D01*
X351626Y903898D01*
X351784Y904043D01*
X351967Y904173D01*
X352173Y904288D01*
X352401Y904388D01*
X352650Y904472D01*
X352922Y904541D01*
X353215Y904595D01*
X353530Y904633D01*
X353868Y904656D01*
X354227Y904663D01*
X354555Y904657D01*
X354864Y904636D01*
X355156Y904601D01*
X355429Y904553D01*
X355684Y904491D01*
X355920Y904415D01*
X356138Y904325D01*
X356338Y904221D01*
X356520Y904102D01*
X356688Y903966D01*
X356840Y903814D01*
X356977Y903644D01*
X357098Y903458D01*
X357205Y903255D01*
X357296Y903035D01*
X357371Y902798D01*
X359018Y903087D01*
X358896Y903460D01*
X358753Y903805D01*
X358589Y904122D01*
X358405Y904411D01*
X358199Y904671D01*
X357973Y904902D01*
X357726Y905106D01*
X357459Y905281D01*
X357165Y905432D01*
X356841Y905563D01*
X356485Y905673D01*
X356099Y905764D01*
X355682Y905834D01*
X355233Y905884D01*
X354754Y905915D01*
X354244Y905925D01*
X353696Y905911D01*
X353180Y905871D01*
X352697Y905804D01*
X352246Y905710D01*
X351828Y905589D01*
X351443Y905442D01*
X351091Y905268D01*
X350771Y905066D01*
X350487Y904840D01*
X350241Y904592D01*
X350032Y904320D01*
X349862Y904026D01*
X349729Y903709D01*
X349634Y903370D01*
X349577Y903008D01*
X349558Y902623D01*
X349573Y902287D01*
X349616Y901970D01*
X349689Y901674D01*
X349791Y901397D01*
X349919Y901138D01*
X350074Y900896D01*
X350254Y900672D01*
X350461Y900464D01*
X350699Y900269D01*
X350978Y900084D01*
X351297Y899908D01*
X351656Y899741D01*
X352079Y899579D01*
X352590Y899417D01*
X353189Y899255D01*
X353876Y899093D01*
X355409Y898734D01*
X355743Y898646D01*
X356053Y898548D01*
X356339Y898440D01*
X356600Y898322D01*
X356836Y898191D01*
X357044Y898044D01*
X357224Y897881D01*
X357375Y897700D01*
X357496Y897498D01*
X357582Y897267D01*
X357634Y897007D01*
X357651Y896719D01*
X357638Y896458D01*
X357596Y896213D01*
X357528Y895985D01*
X357431Y895772D01*
X357307Y895576D01*
X357156Y895397D01*
X356977Y895233D01*
X356771Y895086D01*
X356539Y894956D01*
X356285Y894843D01*
X356007Y894747D01*
X355706Y894669D01*
X355382Y894608D01*
X355034Y894565D01*
X354664Y894539D01*
X354271Y894530D01*
X353889Y894538D01*
X353528Y894562D01*
X353187Y894603D01*
X352867Y894660D01*
X352567Y894733D01*
X352288Y894823D01*
X352030Y894929D01*
X351792Y895051D01*
X351574Y895191D01*
X351376Y895349D01*
X351197Y895525D01*
X351039Y895720D01*
X350900Y895933D01*
X350780Y896165D01*
X350681Y896416D01*
X350601Y896684D01*
X348980Y896360D01*
X349085Y895981D01*
X349219Y895625D01*
X349383Y895295D01*
X349576Y894989D01*
X349800Y894707D01*
X350052Y894450D01*
X350335Y894217D01*
X350647Y894009D01*
X350988Y893825D01*
X351360Y893666D01*
X351760Y893531D01*
X352191Y893421D01*
X352651Y893335D01*
X353141Y893274D01*
X353660Y893237D01*
X354209Y893225D01*
X354799Y893240D01*
G37*
%LPC*%
G36*
X374748Y894531D02*
X374434Y894588D01*
X374142Y894684D01*
X373875Y894817D01*
X373631Y894988D01*
X373411Y895197D01*
X373215Y895444D01*
X373042Y895730D01*
X372891Y896056D01*
X372760Y896427D01*
X372650Y896841D01*
X372559Y897300D01*
X372489Y897802D01*
X372438Y898349D01*
X372408Y898940D01*
X372398Y899575D01*
X372408Y900228D01*
X372438Y900833D01*
X372487Y901390D01*
X372557Y901900D01*
X372646Y902362D01*
X372755Y902777D01*
X372884Y903144D01*
X373033Y903464D01*
X373205Y903741D01*
X373402Y903981D01*
X373624Y904184D01*
X373873Y904350D01*
X374147Y904480D01*
X374446Y904572D01*
X374771Y904627D01*
X375122Y904646D01*
X375464Y904627D01*
X375781Y904571D01*
X376073Y904477D01*
X376340Y904346D01*
X376583Y904177D01*
X376799Y903971D01*
X376991Y903727D01*
X377158Y903446D01*
X377303Y903123D01*
X377428Y902754D01*
X377535Y902339D01*
X377621Y901878D01*
X377689Y901371D01*
X377737Y900818D01*
X377766Y900220D01*
X377776Y899575D01*
X377766Y898952D01*
X377735Y898370D01*
X377685Y897831D01*
X377614Y897333D01*
X377523Y896876D01*
X377411Y896461D01*
X377280Y896088D01*
X377128Y895756D01*
X376954Y895465D01*
X376757Y895212D01*
X376537Y894998D01*
X376293Y894823D01*
X376027Y894687D01*
X375737Y894590D01*
X375423Y894532D01*
X375087Y894512D01*
X374748Y894531D01*
G37*
G36*
X384717Y894531D02*
X384402Y894588D01*
X384111Y894684D01*
X383844Y894817D01*
X383600Y894988D01*
X383380Y895197D01*
X383183Y895444D01*
X383011Y895730D01*
X382860Y896056D01*
X382729Y896427D01*
X382618Y896841D01*
X382528Y897300D01*
X382457Y897802D01*
X382407Y898349D01*
X382377Y898940D01*
X382367Y899575D01*
X382377Y900228D01*
X382406Y900833D01*
X382456Y901390D01*
X382526Y901900D01*
X382615Y902362D01*
X382724Y902777D01*
X382853Y903144D01*
X383002Y903464D01*
X383173Y903741D01*
X383370Y903981D01*
X383593Y904184D01*
X383842Y904350D01*
X384115Y904480D01*
X384415Y904572D01*
X384740Y904627D01*
X385091Y904646D01*
X385433Y904627D01*
X385750Y904571D01*
X386042Y904477D01*
X386309Y904346D01*
X386551Y904177D01*
X386768Y903971D01*
X386960Y903727D01*
X387127Y903446D01*
X387272Y903123D01*
X387397Y902754D01*
X387503Y902339D01*
X387590Y901878D01*
X387658Y901371D01*
X387706Y900818D01*
X387735Y900220D01*
X387745Y899575D01*
X387734Y898952D01*
X387704Y898370D01*
X387653Y897831D01*
X387583Y897333D01*
X387491Y896876D01*
X387380Y896461D01*
X387248Y896088D01*
X387096Y895756D01*
X386923Y895465D01*
X386726Y895212D01*
X386506Y894998D01*
X386262Y894823D01*
X385995Y894687D01*
X385705Y894590D01*
X385392Y894532D01*
X385056Y894512D01*
X384717Y894531D01*
G37*
G36*
X394686Y894531D02*
X394371Y894588D01*
X394080Y894684D01*
X393812Y894817D01*
X393569Y894988D01*
X393349Y895197D01*
X393152Y895444D01*
X392979Y895730D01*
X392828Y896056D01*
X392698Y896427D01*
X392587Y896841D01*
X392496Y897300D01*
X392426Y897802D01*
X392376Y898349D01*
X392346Y898940D01*
X392336Y899575D01*
X392345Y900228D01*
X392375Y900833D01*
X392425Y901390D01*
X392494Y901900D01*
X392584Y902362D01*
X392693Y902777D01*
X392822Y903144D01*
X392971Y903464D01*
X393142Y903741D01*
X393339Y903981D01*
X393562Y904184D01*
X393810Y904350D01*
X394084Y904480D01*
X394384Y904572D01*
X394709Y904627D01*
X395059Y904646D01*
X395402Y904627D01*
X395719Y904571D01*
X396011Y904477D01*
X396278Y904346D01*
X396520Y904177D01*
X396737Y903971D01*
X396929Y903727D01*
X397096Y903446D01*
X397241Y903123D01*
X397366Y902754D01*
X397472Y902339D01*
X397559Y901878D01*
X397626Y901371D01*
X397675Y900818D01*
X397704Y900220D01*
X397713Y899575D01*
X397703Y898952D01*
X397673Y898370D01*
X397622Y897831D01*
X397551Y897333D01*
X397460Y896876D01*
X397349Y896461D01*
X397217Y896088D01*
X397065Y895756D01*
X396892Y895465D01*
X396695Y895212D01*
X396474Y894998D01*
X396231Y894823D01*
X395964Y894687D01*
X395674Y894590D01*
X395361Y894532D01*
X395024Y894512D01*
X394686Y894531D01*
G37*
%LPD*%
G36*
X340341Y898401D02*
X347226Y898401D01*
X347226Y899785D01*
X340341Y899785D01*
X340341Y904374D01*
X347436Y904374D01*
X347436Y905741D01*
X338668Y905741D01*
X338668Y893400D01*
X340341Y893400D01*
X340341Y898401D01*
G37*
G36*
X369235Y894740D02*
X366231Y894740D01*
X366231Y905741D01*
X364777Y905741D01*
X361860Y903735D01*
X361860Y902246D01*
X364645Y904234D01*
X364645Y894740D01*
X361501Y894740D01*
X361501Y893400D01*
X369235Y893400D01*
X369235Y894740D01*
G37*
%LPC*%
G36*
X403706Y898314D02*
X405282Y902369D01*
X405659Y903404D01*
X405930Y904234D01*
X406009Y904480D01*
X406246Y903753D01*
X406491Y903030D01*
X406736Y902386D01*
X408321Y898314D01*
X403706Y898314D01*
G37*
%LPD*%
G36*
X57716Y735455D02*
X61561Y735455D01*
X64766Y730331D01*
X66693Y730331D01*
X64681Y733384D01*
X63190Y735647D01*
X63533Y735720D01*
X63857Y735813D01*
X64162Y735929D01*
X64448Y736066D01*
X64604Y736158D01*
X64715Y736224D01*
X64962Y736405D01*
X65191Y736606D01*
X65401Y736830D01*
X65589Y737071D01*
X65752Y737326D01*
X65890Y737594D01*
X66002Y737876D01*
X66090Y738172D01*
X66153Y738482D01*
X66190Y738805D01*
X66203Y739142D01*
X66185Y739547D01*
X66132Y739928D01*
X66043Y740287D01*
X65919Y740623D01*
X65760Y740937D01*
X65565Y741227D01*
X65334Y741494D01*
X65068Y741739D01*
X64770Y741958D01*
X64442Y742147D01*
X64084Y742307D01*
X63697Y742439D01*
X63279Y742541D01*
X62832Y742613D01*
X62356Y742657D01*
X61850Y742672D01*
X56043Y742672D01*
X56043Y730331D01*
X57716Y730331D01*
X57716Y735455D01*
G37*
G36*
X76640Y731671D02*
X73636Y731671D01*
X73636Y742672D01*
X72182Y742672D01*
X69265Y740666D01*
X69265Y739177D01*
X72051Y741165D01*
X72051Y731671D01*
X68906Y731671D01*
X68906Y730331D01*
X76640Y730331D01*
X76640Y731671D01*
G37*
%LPC*%
G36*
X57716Y736777D02*
X57716Y741332D01*
X61683Y741332D01*
X62017Y741323D01*
X62330Y741296D01*
X62624Y741252D01*
X62897Y741191D01*
X63151Y741111D01*
X63384Y741014D01*
X63597Y740899D01*
X63790Y740767D01*
X63961Y740618D01*
X64110Y740452D01*
X64235Y740271D01*
X64338Y740074D01*
X64418Y739861D01*
X64475Y739631D01*
X64510Y739386D01*
X64521Y739125D01*
X64510Y738854D01*
X64476Y738599D01*
X64419Y738360D01*
X64340Y738136D01*
X64239Y737927D01*
X64115Y737734D01*
X63968Y737557D01*
X63798Y737395D01*
X63608Y737250D01*
X63400Y737125D01*
X63172Y737018D01*
X62926Y736932D01*
X62661Y736864D01*
X62377Y736816D01*
X62075Y736787D01*
X61753Y736777D01*
X57716Y736777D01*
G37*
%LPD*%
G36*
X442941Y735455D02*
X446786Y735455D01*
X449991Y730331D01*
X451918Y730331D01*
X449906Y733384D01*
X448415Y735647D01*
X448758Y735720D01*
X449082Y735813D01*
X449387Y735929D01*
X449673Y736066D01*
X449829Y736158D01*
X449940Y736224D01*
X450187Y736405D01*
X450416Y736606D01*
X450626Y736830D01*
X450814Y737071D01*
X450977Y737326D01*
X451115Y737594D01*
X451227Y737876D01*
X451315Y738172D01*
X451378Y738482D01*
X451415Y738805D01*
X451428Y739142D01*
X451410Y739547D01*
X451357Y739928D01*
X451268Y740287D01*
X451144Y740623D01*
X450985Y740937D01*
X450790Y741227D01*
X450559Y741494D01*
X450293Y741739D01*
X449995Y741958D01*
X449667Y742147D01*
X449309Y742307D01*
X448922Y742439D01*
X448504Y742541D01*
X448057Y742613D01*
X447581Y742657D01*
X447075Y742672D01*
X441268Y742672D01*
X441268Y730331D01*
X442941Y730331D01*
X442941Y735455D01*
G37*
G36*
X461839Y731671D02*
X455401Y731671D01*
X455554Y731981D01*
X455747Y732296D01*
X455983Y732618D01*
X456260Y732945D01*
X456583Y733286D01*
X456958Y733647D01*
X457385Y734028D01*
X457862Y734430D01*
X458704Y735126D01*
X459397Y735724D01*
X459943Y736225D01*
X460341Y736628D01*
X460645Y736983D01*
X460909Y737338D01*
X461134Y737693D01*
X461318Y738047D01*
X461461Y738403D01*
X461564Y738759D01*
X461626Y739116D01*
X461646Y739475D01*
X461630Y739868D01*
X461583Y740239D01*
X461505Y740586D01*
X461395Y740910D01*
X461254Y741211D01*
X461082Y741489D01*
X460878Y741744D01*
X460643Y741975D01*
X460379Y742182D01*
X460088Y742361D01*
X459770Y742512D01*
X459425Y742636D01*
X459053Y742732D01*
X458654Y742801D01*
X458228Y742842D01*
X457775Y742856D01*
X457360Y742842D01*
X456964Y742801D01*
X456587Y742733D01*
X456230Y742637D01*
X455892Y742514D01*
X455573Y742363D01*
X455274Y742185D01*
X454994Y741980D01*
X454738Y741751D01*
X454510Y741504D01*
X454310Y741238D01*
X454139Y740953D01*
X453996Y740649D01*
X453881Y740326D01*
X453795Y739984D01*
X453737Y739624D01*
X455349Y739475D01*
X455386Y739715D01*
X455439Y739942D01*
X455510Y740155D01*
X455597Y740354D01*
X455702Y740539D01*
X455823Y740711D01*
X455960Y740868D01*
X456115Y741012D01*
X456284Y741140D01*
X456464Y741252D01*
X456654Y741346D01*
X456856Y741423D01*
X457069Y741482D01*
X457293Y741525D01*
X457529Y741551D01*
X457775Y741559D01*
X458033Y741551D01*
X458276Y741524D01*
X458504Y741481D01*
X458719Y741419D01*
X458918Y741340D01*
X459103Y741244D01*
X459274Y741130D01*
X459430Y740999D01*
X459570Y740852D01*
X459691Y740690D01*
X459793Y740514D01*
X459877Y740324D01*
X459942Y740120D01*
X459989Y739902D01*
X460017Y739669D01*
X460026Y739422D01*
X460004Y739056D01*
X459939Y738709D01*
X459831Y738381D01*
X459680Y738074D01*
X459493Y737779D01*
X459280Y737491D01*
X459040Y737210D01*
X458773Y736935D01*
X458179Y736392D01*
X457517Y735849D01*
X456817Y735283D01*
X456111Y734671D01*
X455760Y734344D01*
X455418Y733999D01*
X455084Y733635D01*
X454758Y733252D01*
X454448Y732845D01*
X454163Y732408D01*
X453903Y731941D01*
X453667Y731443D01*
X453667Y730331D01*
X461839Y730331D01*
X461839Y731671D01*
G37*
%LPC*%
G36*
X442941Y736777D02*
X442941Y741332D01*
X446908Y741332D01*
X447242Y741323D01*
X447555Y741296D01*
X447849Y741252D01*
X448122Y741191D01*
X448376Y741111D01*
X448609Y741014D01*
X448822Y740899D01*
X449015Y740767D01*
X449186Y740618D01*
X449335Y740452D01*
X449460Y740271D01*
X449563Y740074D01*
X449643Y739861D01*
X449700Y739631D01*
X449735Y739386D01*
X449746Y739125D01*
X449735Y738854D01*
X449701Y738599D01*
X449644Y738360D01*
X449565Y738136D01*
X449464Y737927D01*
X449340Y737734D01*
X449193Y737557D01*
X449023Y737395D01*
X448833Y737250D01*
X448625Y737125D01*
X448397Y737018D01*
X448151Y736932D01*
X447886Y736864D01*
X447602Y736816D01*
X447300Y736787D01*
X446978Y736777D01*
X442941Y736777D01*
G37*
%LPD*%
G36*
X286316Y735455D02*
X290161Y735455D01*
X293366Y730331D01*
X295293Y730331D01*
X293281Y733384D01*
X291790Y735647D01*
X292133Y735720D01*
X292457Y735813D01*
X292762Y735929D01*
X293048Y736066D01*
X293204Y736158D01*
X293315Y736224D01*
X293562Y736405D01*
X293791Y736606D01*
X294001Y736830D01*
X294189Y737071D01*
X294352Y737326D01*
X294490Y737594D01*
X294602Y737876D01*
X294690Y738172D01*
X294753Y738482D01*
X294790Y738805D01*
X294803Y739142D01*
X294785Y739547D01*
X294732Y739928D01*
X294643Y740287D01*
X294519Y740623D01*
X294360Y740937D01*
X294165Y741227D01*
X293934Y741494D01*
X293668Y741739D01*
X293370Y741958D01*
X293042Y742147D01*
X292684Y742307D01*
X292297Y742439D01*
X291879Y742541D01*
X291432Y742613D01*
X290956Y742657D01*
X290450Y742672D01*
X284643Y742672D01*
X284643Y730331D01*
X286316Y730331D01*
X286316Y735455D01*
G37*
G36*
X301630Y730171D02*
X302090Y730214D01*
X302521Y730288D01*
X302923Y730390D01*
X303297Y730522D01*
X303641Y730683D01*
X303956Y730873D01*
X304242Y731093D01*
X304496Y731339D01*
X304717Y731610D01*
X304903Y731904D01*
X305056Y732223D01*
X305175Y732566D01*
X305260Y732932D01*
X305311Y733323D01*
X305328Y733738D01*
X305316Y734027D01*
X305280Y734304D01*
X305219Y734568D01*
X305135Y734820D01*
X305027Y735059D01*
X304894Y735285D01*
X304738Y735499D01*
X304557Y735700D01*
X304355Y735885D01*
X304133Y736050D01*
X303893Y736196D01*
X303633Y736322D01*
X303354Y736428D01*
X303056Y736515D01*
X302739Y736581D01*
X302402Y736628D01*
X302402Y736663D01*
X302708Y736737D01*
X302995Y736825D01*
X303264Y736928D01*
X303514Y737046D01*
X303745Y737178D01*
X303957Y737326D01*
X304150Y737489D01*
X304325Y737666D01*
X304480Y737858D01*
X304614Y738064D01*
X304728Y738284D01*
X304821Y738517D01*
X304893Y738764D01*
X304945Y739025D01*
X304976Y739300D01*
X304986Y739589D01*
X304970Y739964D01*
X304922Y740317D01*
X304841Y740649D01*
X304729Y740961D01*
X304584Y741251D01*
X304407Y741519D01*
X304198Y741767D01*
X303957Y741993D01*
X303687Y742195D01*
X303391Y742370D01*
X303069Y742519D01*
X302721Y742640D01*
X302347Y742734D01*
X301948Y742802D01*
X301522Y742842D01*
X301071Y742856D01*
X300656Y742842D01*
X300260Y742803D01*
X299884Y742736D01*
X299526Y742643D01*
X299188Y742524D01*
X298870Y742378D01*
X298570Y742205D01*
X298290Y742006D01*
X298034Y741783D01*
X297806Y741540D01*
X297606Y741275D01*
X297435Y740990D01*
X297292Y740684D01*
X297178Y740357D01*
X297091Y740010D01*
X297033Y739641D01*
X298619Y739519D01*
X298653Y739755D01*
X298705Y739977D01*
X298773Y740186D01*
X298858Y740381D01*
X298960Y740563D01*
X299079Y740731D01*
X299215Y740885D01*
X299368Y741025D01*
X299535Y741150D01*
X299714Y741259D01*
X299906Y741351D01*
X300111Y741426D01*
X300328Y741484D01*
X300557Y741526D01*
X300799Y741551D01*
X301054Y741559D01*
X301332Y741550D01*
X301592Y741524D01*
X301835Y741479D01*
X302060Y741416D01*
X302267Y741335D01*
X302457Y741237D01*
X302629Y741120D01*
X302783Y740986D01*
X302920Y740836D01*
X303038Y740673D01*
X303138Y740497D01*
X303220Y740308D01*
X303284Y740106D01*
X303329Y739891D01*
X303357Y739663D01*
X303366Y739422D01*
X303355Y739180D01*
X303321Y738950D01*
X303265Y738734D01*
X303187Y738532D01*
X303087Y738344D01*
X302964Y738169D01*
X302819Y738007D01*
X302652Y737859D01*
X302464Y737727D01*
X302259Y737612D01*
X302035Y737515D01*
X301793Y737435D01*
X301532Y737373D01*
X301254Y737329D01*
X300957Y737303D01*
X300642Y737294D01*
X299784Y737294D01*
X299784Y735928D01*
X300677Y735928D01*
X301032Y735919D01*
X301365Y735892D01*
X301677Y735848D01*
X301968Y735786D01*
X302237Y735707D01*
X302484Y735610D01*
X302710Y735495D01*
X302915Y735363D01*
X303096Y735215D01*
X303254Y735053D01*
X303387Y734877D01*
X303496Y734687D01*
X303581Y734484D01*
X303641Y734267D01*
X303678Y734036D01*
X303690Y733791D01*
X303679Y733510D01*
X303647Y733248D01*
X303594Y733004D01*
X303520Y732777D01*
X303425Y732568D01*
X303308Y732377D01*
X303170Y732203D01*
X303011Y732048D01*
X302833Y731910D01*
X302640Y731791D01*
X302430Y731690D01*
X302204Y731608D01*
X301962Y731543D01*
X301705Y731498D01*
X301431Y731470D01*
X301141Y731461D01*
X300852Y731469D01*
X300580Y731495D01*
X300323Y731538D01*
X300083Y731598D01*
X299859Y731675D01*
X299650Y731769D01*
X299458Y731880D01*
X299282Y732008D01*
X299122Y732154D01*
X298978Y732316D01*
X298850Y732496D01*
X298739Y732693D01*
X298643Y732906D01*
X298563Y733137D01*
X298500Y733385D01*
X298452Y733650D01*
X296823Y733502D01*
X296890Y733100D01*
X296985Y732725D01*
X297108Y732374D01*
X297260Y732049D01*
X297440Y731749D01*
X297648Y731474D01*
X297885Y731225D01*
X298150Y731001D01*
X298441Y730803D01*
X298756Y730631D01*
X299094Y730486D01*
X299456Y730367D01*
X299842Y730275D01*
X300251Y730209D01*
X300684Y730169D01*
X301141Y730156D01*
X301630Y730171D01*
G37*
%LPC*%
G36*
X286316Y736777D02*
X286316Y741332D01*
X290283Y741332D01*
X290617Y741323D01*
X290930Y741296D01*
X291224Y741252D01*
X291497Y741191D01*
X291751Y741111D01*
X291984Y741014D01*
X292197Y740899D01*
X292390Y740767D01*
X292561Y740618D01*
X292710Y740452D01*
X292835Y740271D01*
X292938Y740074D01*
X293018Y739861D01*
X293075Y739631D01*
X293110Y739386D01*
X293121Y739125D01*
X293110Y738854D01*
X293076Y738599D01*
X293019Y738360D01*
X292940Y738136D01*
X292839Y737927D01*
X292715Y737734D01*
X292568Y737557D01*
X292398Y737395D01*
X292208Y737250D01*
X292000Y737125D01*
X291772Y737018D01*
X291526Y736932D01*
X291261Y736864D01*
X290977Y736816D01*
X290675Y736787D01*
X290353Y736777D01*
X286316Y736777D01*
G37*
%LPD*%
G36*
X363060Y733297D02*
X366905Y733297D01*
X370110Y728173D01*
X372037Y728173D01*
X370025Y731226D01*
X368534Y733490D01*
X368877Y733562D01*
X369201Y733655D01*
X369506Y733771D01*
X369792Y733908D01*
X369948Y734001D01*
X370059Y734066D01*
X370307Y734247D01*
X370536Y734449D01*
X370745Y734672D01*
X370933Y734913D01*
X371096Y735168D01*
X371234Y735436D01*
X371346Y735719D01*
X371434Y736015D01*
X371497Y736324D01*
X371534Y736647D01*
X371547Y736984D01*
X371529Y737389D01*
X371476Y737771D01*
X371387Y738130D01*
X371263Y738466D01*
X371104Y738779D01*
X370909Y739069D01*
X370678Y739337D01*
X370413Y739581D01*
X370114Y739800D01*
X369786Y739989D01*
X369428Y740150D01*
X369041Y740281D01*
X368624Y740383D01*
X368177Y740456D01*
X367700Y740499D01*
X367194Y740514D01*
X361387Y740514D01*
X361387Y728173D01*
X363060Y728173D01*
X363060Y733297D01*
G37*
G36*
X380600Y730967D02*
X382335Y730967D01*
X382335Y732211D01*
X380600Y732211D01*
X380600Y740514D01*
X378945Y740514D01*
X373296Y732193D01*
X373296Y730967D01*
X379112Y730967D01*
X379112Y728173D01*
X380600Y728173D01*
X380600Y730967D01*
G37*
%LPC*%
G36*
X363060Y734619D02*
X363060Y739174D01*
X367027Y739174D01*
X367361Y739165D01*
X367675Y739139D01*
X367968Y739094D01*
X368242Y739033D01*
X368495Y738953D01*
X368728Y738856D01*
X368941Y738741D01*
X369134Y738609D01*
X369305Y738460D01*
X369454Y738295D01*
X369579Y738113D01*
X369682Y737916D01*
X369762Y737703D01*
X369819Y737473D01*
X369854Y737228D01*
X369865Y736967D01*
X369854Y736696D01*
X369820Y736442D01*
X369764Y736202D01*
X369684Y735978D01*
X369583Y735770D01*
X369459Y735577D01*
X369312Y735399D01*
X369143Y735237D01*
X368953Y735092D01*
X368744Y734967D01*
X368516Y734861D01*
X368270Y734774D01*
X368005Y734706D01*
X367721Y734658D01*
X367419Y734629D01*
X367097Y734619D01*
X363060Y734619D01*
G37*
G36*
X374750Y732211D02*
X374890Y732386D01*
X375363Y733034D01*
X378525Y737694D01*
X378866Y738272D01*
X379112Y738736D01*
X379112Y732211D01*
X374750Y732211D01*
G37*
%LPD*%
D10*
X81407Y790967D02*
X87757Y797317D01*
X100457Y797317D01*
X106807Y790967D01*
X106807Y778267D02*
X100457Y771917D01*
X87757Y771917D01*
X81407Y778267D01*
X49657Y797317D02*
X36957Y797317D01*
X49657Y797317D02*
X56007Y790967D01*
X56007Y778267D02*
X49657Y771917D01*
X56007Y790967D02*
X62357Y797317D01*
X75057Y797317D01*
X81407Y790967D01*
X81407Y778267D02*
X75057Y771917D01*
X62357Y771917D01*
X56007Y778267D01*
X30607Y778267D02*
X30607Y790967D01*
X36957Y797317D01*
X30607Y778267D02*
X36957Y771917D01*
X49657Y771917D01*
X106807Y778267D02*
X106807Y790967D01*
D11*
X58251Y765948D02*
X56642Y761122D01*
X59859Y761122D02*
X58251Y765948D01*
X59457Y762329D02*
X57044Y762329D01*
X62677Y761122D02*
X62677Y765948D01*
X64286Y763267D01*
X65894Y765948D01*
X65894Y761122D01*
X68980Y761122D02*
X70321Y761122D01*
X70392Y761124D01*
X70464Y761130D01*
X70534Y761139D01*
X70604Y761152D01*
X70674Y761169D01*
X70742Y761190D01*
X70809Y761214D01*
X70875Y761242D01*
X70939Y761273D01*
X71002Y761308D01*
X71062Y761346D01*
X71121Y761387D01*
X71177Y761431D01*
X71231Y761478D01*
X71282Y761527D01*
X71330Y761580D01*
X71376Y761635D01*
X71418Y761692D01*
X71458Y761752D01*
X71494Y761813D01*
X71527Y761877D01*
X71556Y761942D01*
X71582Y762008D01*
X71605Y762076D01*
X71624Y762145D01*
X71639Y762215D01*
X71650Y762285D01*
X71658Y762356D01*
X71662Y762427D01*
X71662Y762499D01*
X71658Y762570D01*
X71650Y762641D01*
X71639Y762711D01*
X71624Y762781D01*
X71605Y762850D01*
X71582Y762918D01*
X71556Y762984D01*
X71527Y763049D01*
X71494Y763113D01*
X71458Y763174D01*
X71418Y763234D01*
X71376Y763291D01*
X71330Y763346D01*
X71282Y763399D01*
X71231Y763448D01*
X71177Y763495D01*
X71121Y763539D01*
X71062Y763580D01*
X71002Y763618D01*
X70939Y763653D01*
X70875Y763684D01*
X70809Y763712D01*
X70742Y763736D01*
X70674Y763757D01*
X70604Y763774D01*
X70534Y763787D01*
X70464Y763796D01*
X70392Y763802D01*
X70321Y763804D01*
X70589Y765948D02*
X68980Y765948D01*
X70589Y765948D02*
X70654Y765946D01*
X70718Y765940D01*
X70782Y765930D01*
X70846Y765917D01*
X70908Y765899D01*
X70969Y765878D01*
X71029Y765854D01*
X71087Y765825D01*
X71144Y765793D01*
X71198Y765758D01*
X71250Y765720D01*
X71300Y765678D01*
X71347Y765634D01*
X71391Y765587D01*
X71433Y765537D01*
X71471Y765485D01*
X71506Y765431D01*
X71538Y765374D01*
X71567Y765316D01*
X71591Y765256D01*
X71612Y765195D01*
X71630Y765133D01*
X71643Y765069D01*
X71653Y765005D01*
X71659Y764941D01*
X71661Y764876D01*
X71659Y764811D01*
X71653Y764747D01*
X71643Y764683D01*
X71630Y764619D01*
X71612Y764557D01*
X71591Y764496D01*
X71567Y764436D01*
X71538Y764378D01*
X71506Y764321D01*
X71471Y764267D01*
X71433Y764215D01*
X71391Y764165D01*
X71347Y764118D01*
X71300Y764074D01*
X71250Y764032D01*
X71198Y763994D01*
X71144Y763959D01*
X71087Y763927D01*
X71029Y763898D01*
X70969Y763874D01*
X70908Y763853D01*
X70846Y763835D01*
X70782Y763822D01*
X70718Y763812D01*
X70654Y763806D01*
X70589Y763804D01*
X70589Y763803D02*
X69516Y763803D01*
X74467Y764876D02*
X75807Y765948D01*
X75807Y761122D01*
X74467Y761122D02*
X77148Y761122D01*
X81427Y765948D02*
X81495Y765946D01*
X81562Y765940D01*
X81629Y765931D01*
X81696Y765918D01*
X81761Y765901D01*
X81826Y765880D01*
X81889Y765856D01*
X81951Y765828D01*
X82011Y765797D01*
X82069Y765763D01*
X82125Y765725D01*
X82180Y765685D01*
X82231Y765641D01*
X82280Y765594D01*
X82327Y765545D01*
X82371Y765494D01*
X82411Y765439D01*
X82449Y765383D01*
X82483Y765325D01*
X82514Y765265D01*
X82542Y765203D01*
X82566Y765140D01*
X82587Y765075D01*
X82604Y765010D01*
X82617Y764943D01*
X82626Y764876D01*
X82632Y764809D01*
X82634Y764741D01*
X81427Y765948D02*
X81349Y765946D01*
X81271Y765940D01*
X81194Y765930D01*
X81117Y765917D01*
X81041Y765899D01*
X80966Y765878D01*
X80892Y765853D01*
X80820Y765824D01*
X80749Y765792D01*
X80680Y765756D01*
X80612Y765717D01*
X80547Y765674D01*
X80484Y765628D01*
X80423Y765579D01*
X80365Y765527D01*
X80310Y765472D01*
X80257Y765415D01*
X80208Y765355D01*
X80161Y765292D01*
X80118Y765228D01*
X80078Y765161D01*
X80041Y765092D01*
X80008Y765021D01*
X79978Y764949D01*
X79952Y764876D01*
X82232Y763803D02*
X82281Y763852D01*
X82328Y763904D01*
X82371Y763959D01*
X82412Y764016D01*
X82450Y764075D01*
X82484Y764136D01*
X82515Y764199D01*
X82543Y764263D01*
X82567Y764329D01*
X82587Y764395D01*
X82604Y764463D01*
X82617Y764532D01*
X82626Y764601D01*
X82632Y764671D01*
X82634Y764741D01*
X82232Y763803D02*
X79953Y761122D01*
X82634Y761122D01*
D12*
X168656Y778510D02*
X270256Y778510D01*
X270256Y836930D02*
X168656Y836930D01*
X168656Y778510D01*
X270256Y778510D02*
X270256Y797560D01*
X270256Y817880D02*
X270256Y836930D01*
X270256Y817880D02*
X270009Y817877D01*
X269761Y817868D01*
X269514Y817853D01*
X269268Y817832D01*
X269022Y817805D01*
X268777Y817772D01*
X268532Y817733D01*
X268289Y817688D01*
X268047Y817637D01*
X267806Y817580D01*
X267567Y817518D01*
X267329Y817449D01*
X267093Y817375D01*
X266859Y817295D01*
X266627Y817210D01*
X266397Y817118D01*
X266169Y817022D01*
X265944Y816919D01*
X265721Y816812D01*
X265501Y816698D01*
X265284Y816580D01*
X265069Y816456D01*
X264858Y816327D01*
X264650Y816193D01*
X264445Y816054D01*
X264244Y815910D01*
X264046Y815762D01*
X263852Y815608D01*
X263662Y815450D01*
X263476Y815287D01*
X263294Y815120D01*
X263116Y814948D01*
X262942Y814772D01*
X262772Y814592D01*
X262607Y814407D01*
X262447Y814219D01*
X262291Y814027D01*
X262139Y813831D01*
X261993Y813632D01*
X261851Y813429D01*
X261715Y813222D01*
X261583Y813013D01*
X261457Y812800D01*
X261336Y812584D01*
X261220Y812366D01*
X261110Y812144D01*
X261005Y811920D01*
X260905Y811694D01*
X260811Y811465D01*
X260723Y811234D01*
X260640Y811000D01*
X260563Y810765D01*
X260492Y810528D01*
X260426Y810290D01*
X260367Y810050D01*
X260313Y809808D01*
X260265Y809565D01*
X260223Y809322D01*
X260187Y809077D01*
X260157Y808831D01*
X260133Y808585D01*
X260115Y808338D01*
X260103Y808091D01*
X260097Y807844D01*
X260097Y807596D01*
X260103Y807349D01*
X260115Y807102D01*
X260133Y806855D01*
X260157Y806609D01*
X260187Y806363D01*
X260223Y806118D01*
X260265Y805875D01*
X260313Y805632D01*
X260367Y805390D01*
X260426Y805150D01*
X260492Y804912D01*
X260563Y804675D01*
X260640Y804440D01*
X260723Y804206D01*
X260811Y803975D01*
X260905Y803746D01*
X261005Y803520D01*
X261110Y803296D01*
X261220Y803074D01*
X261336Y802856D01*
X261457Y802640D01*
X261583Y802427D01*
X261715Y802218D01*
X261851Y802011D01*
X261993Y801808D01*
X262139Y801609D01*
X262291Y801413D01*
X262447Y801221D01*
X262607Y801033D01*
X262772Y800848D01*
X262942Y800668D01*
X263116Y800492D01*
X263294Y800320D01*
X263476Y800153D01*
X263662Y799990D01*
X263852Y799832D01*
X264046Y799678D01*
X264244Y799530D01*
X264445Y799386D01*
X264650Y799247D01*
X264858Y799113D01*
X265069Y798984D01*
X265284Y798860D01*
X265501Y798742D01*
X265721Y798628D01*
X265944Y798521D01*
X266169Y798418D01*
X266397Y798322D01*
X266627Y798230D01*
X266859Y798145D01*
X267093Y798065D01*
X267329Y797991D01*
X267567Y797922D01*
X267806Y797860D01*
X268047Y797803D01*
X268289Y797752D01*
X268532Y797707D01*
X268777Y797668D01*
X269022Y797635D01*
X269268Y797608D01*
X269514Y797587D01*
X269761Y797572D01*
X270009Y797563D01*
X270256Y797560D01*
D11*
X152400Y967740D02*
X152400Y980440D01*
X152400Y967740D02*
X146050Y961390D01*
X133350Y961390D01*
X127000Y967740D01*
X120650Y961390D01*
X107950Y961390D01*
X101600Y967740D01*
X95250Y961390D01*
X82550Y961390D01*
X76200Y967740D01*
X69850Y961390D01*
X57150Y961390D01*
X50800Y967740D01*
X146050Y986790D02*
X152400Y980440D01*
X133350Y986790D02*
X127000Y980440D01*
X120650Y986790D01*
X107950Y986790D02*
X101600Y980440D01*
X95250Y986790D01*
X82550Y986790D02*
X76200Y980440D01*
X69850Y986790D01*
X57150Y986790D02*
X50800Y980440D01*
X160020Y994410D02*
X160020Y801370D01*
X17780Y801370D01*
X17780Y994410D01*
X160020Y994410D01*
X146050Y986790D02*
X133350Y986790D01*
X120650Y986790D02*
X107950Y986790D01*
X95250Y986790D02*
X82550Y986790D01*
X69850Y986790D02*
X57150Y986790D01*
X101600Y885190D02*
X101600Y869950D01*
X76200Y869950D01*
X76200Y885190D01*
X101600Y885190D01*
X50800Y980440D02*
X44450Y986790D01*
X31750Y986790D01*
X25400Y980440D01*
X25400Y967740D01*
X31750Y961390D01*
X44450Y961390D01*
X50800Y967740D01*
X269240Y972820D02*
X269240Y985520D01*
X269240Y972820D02*
X262890Y966470D01*
X250190Y966470D01*
X243840Y972820D01*
X237490Y966470D01*
X224790Y966470D01*
X218440Y972820D01*
X212090Y966470D01*
X199390Y966470D01*
X193040Y972820D01*
X186690Y966470D01*
X173990Y966470D01*
X167640Y972820D01*
X262890Y991870D02*
X269240Y985520D01*
X250190Y991870D02*
X243840Y985520D01*
X237490Y991870D01*
X224790Y991870D02*
X218440Y985520D01*
X212090Y991870D01*
X199390Y991870D02*
X193040Y985520D01*
X186690Y991870D01*
X173990Y991870D02*
X167640Y985520D01*
X271780Y994410D02*
X271780Y862330D01*
X165100Y862330D01*
X165100Y994410D01*
X271780Y994410D01*
X262890Y991870D02*
X250190Y991870D01*
X237490Y991870D02*
X224790Y991870D01*
X212090Y991870D02*
X199390Y991870D01*
X186690Y991870D02*
X173990Y991870D01*
X167640Y985520D02*
X167640Y972820D01*
X205740Y902970D02*
X205740Y877570D01*
X180340Y877570D01*
X180340Y902970D01*
X205740Y902970D01*
X190500Y897890D02*
X190502Y897990D01*
X190508Y898091D01*
X190518Y898190D01*
X190532Y898290D01*
X190549Y898389D01*
X190571Y898487D01*
X190597Y898584D01*
X190626Y898680D01*
X190659Y898774D01*
X190696Y898868D01*
X190736Y898960D01*
X190780Y899050D01*
X190828Y899138D01*
X190879Y899225D01*
X190933Y899309D01*
X190991Y899391D01*
X191052Y899471D01*
X191116Y899548D01*
X191183Y899623D01*
X191253Y899695D01*
X191326Y899764D01*
X191401Y899830D01*
X191479Y899894D01*
X191559Y899954D01*
X191642Y900011D01*
X191727Y900064D01*
X191814Y900114D01*
X191903Y900161D01*
X191993Y900204D01*
X192085Y900244D01*
X192179Y900280D01*
X192274Y900312D01*
X192370Y900340D01*
X192468Y900365D01*
X192566Y900385D01*
X192665Y900402D01*
X192765Y900415D01*
X192864Y900424D01*
X192965Y900429D01*
X193065Y900430D01*
X193165Y900427D01*
X193266Y900420D01*
X193365Y900409D01*
X193465Y900394D01*
X193563Y900376D01*
X193661Y900353D01*
X193758Y900326D01*
X193853Y900296D01*
X193948Y900262D01*
X194041Y900224D01*
X194132Y900183D01*
X194222Y900138D01*
X194310Y900090D01*
X194396Y900038D01*
X194480Y899983D01*
X194561Y899924D01*
X194640Y899862D01*
X194717Y899798D01*
X194791Y899730D01*
X194862Y899659D01*
X194931Y899586D01*
X194996Y899510D01*
X195059Y899431D01*
X195118Y899350D01*
X195174Y899267D01*
X195227Y899182D01*
X195276Y899094D01*
X195322Y899005D01*
X195364Y898914D01*
X195403Y898821D01*
X195438Y898727D01*
X195469Y898632D01*
X195497Y898535D01*
X195520Y898438D01*
X195540Y898339D01*
X195556Y898240D01*
X195568Y898141D01*
X195576Y898040D01*
X195580Y897940D01*
X195580Y897840D01*
X195576Y897740D01*
X195568Y897639D01*
X195556Y897540D01*
X195540Y897441D01*
X195520Y897342D01*
X195497Y897245D01*
X195469Y897148D01*
X195438Y897053D01*
X195403Y896959D01*
X195364Y896866D01*
X195322Y896775D01*
X195276Y896686D01*
X195227Y896598D01*
X195174Y896513D01*
X195118Y896430D01*
X195059Y896349D01*
X194996Y896270D01*
X194931Y896194D01*
X194862Y896121D01*
X194791Y896050D01*
X194717Y895982D01*
X194640Y895918D01*
X194561Y895856D01*
X194480Y895797D01*
X194396Y895742D01*
X194310Y895690D01*
X194222Y895642D01*
X194132Y895597D01*
X194041Y895556D01*
X193948Y895518D01*
X193853Y895484D01*
X193758Y895454D01*
X193661Y895427D01*
X193563Y895404D01*
X193465Y895386D01*
X193365Y895371D01*
X193266Y895360D01*
X193165Y895353D01*
X193065Y895350D01*
X192965Y895351D01*
X192864Y895356D01*
X192765Y895365D01*
X192665Y895378D01*
X192566Y895395D01*
X192468Y895415D01*
X192370Y895440D01*
X192274Y895468D01*
X192179Y895500D01*
X192085Y895536D01*
X191993Y895576D01*
X191903Y895619D01*
X191814Y895666D01*
X191727Y895716D01*
X191642Y895769D01*
X191559Y895826D01*
X191479Y895886D01*
X191401Y895950D01*
X191326Y896016D01*
X191253Y896085D01*
X191183Y896157D01*
X191116Y896232D01*
X191052Y896309D01*
X190991Y896389D01*
X190933Y896471D01*
X190879Y896555D01*
X190828Y896642D01*
X190780Y896730D01*
X190736Y896820D01*
X190696Y896912D01*
X190659Y897006D01*
X190626Y897100D01*
X190597Y897196D01*
X190571Y897293D01*
X190549Y897391D01*
X190532Y897490D01*
X190518Y897590D01*
X190508Y897689D01*
X190502Y897790D01*
X190500Y897890D01*
X179500Y726133D02*
X201500Y726133D01*
X201500Y747067D02*
X179500Y747067D01*
X411103Y777227D02*
X433103Y777227D01*
X433103Y798161D02*
X411103Y798161D01*
X351360Y797867D02*
X329360Y797867D01*
X329360Y776933D02*
X351360Y776933D01*
X125300Y726133D02*
X103300Y726133D01*
X103300Y747067D02*
X125300Y747067D01*
X279338Y995000D02*
X469838Y995000D01*
X279338Y995000D02*
X279338Y829900D01*
X279338Y817200D01*
X279338Y804500D01*
X469838Y804500D01*
X469838Y995000D01*
X412688Y975950D02*
X406338Y969600D01*
X393638Y969600D01*
X387288Y975950D01*
X380938Y969600D01*
X368238Y969600D01*
X361888Y975950D01*
X355538Y969600D01*
X342838Y969600D01*
X336488Y988650D02*
X342838Y995000D01*
X355538Y995000D02*
X361888Y988650D01*
X368238Y995000D01*
X380938Y995000D02*
X387288Y988650D01*
X393638Y995000D01*
X406338Y995000D02*
X412688Y988650D01*
X412688Y975950D01*
X336488Y975950D02*
X336488Y988650D01*
X336488Y975950D02*
X342838Y969600D01*
X279338Y817200D02*
X285688Y810850D01*
X298388Y810850D01*
X304738Y817200D01*
X304738Y829900D01*
X298388Y836250D01*
X285688Y836250D01*
X279338Y829900D01*
X48850Y746841D02*
X27350Y746841D01*
X27350Y726359D02*
X48850Y726359D01*
X412575Y746841D02*
X434075Y746841D01*
X434075Y726359D02*
X412575Y726359D01*
X277450Y746841D02*
X255950Y746841D01*
X255950Y726359D02*
X277450Y726359D01*
X330154Y724363D02*
X351654Y724363D01*
X351654Y744845D02*
X330154Y744845D01*
M02*
