G04 EAGLE Gerber RS-274X export*
G75*
%MOMM*%
%FSLAX34Y34*%
%LPD*%
%INSilkscreen Bottom*%
%IPPOS*%
%AMOC8*
5,1,8,0,0,1.08239X$1,22.5*%
G01*
%ADD10C,0.203200*%
%ADD11C,0.127000*%
%ADD12C,0.100000*%
G36*
X172510Y750789D02*
X172768Y751816D01*
X173123Y753425D01*
X173508Y751726D01*
X174185Y749190D01*
X175899Y742950D01*
X177896Y742950D01*
X181531Y755291D01*
X179788Y755291D01*
X177572Y747452D01*
X177194Y745959D01*
X176845Y744421D01*
X176359Y746523D01*
X176104Y747498D01*
X175614Y749285D01*
X173929Y755291D01*
X172326Y755291D01*
X170180Y747610D01*
X169742Y745871D01*
X169409Y744421D01*
X169331Y744728D01*
X168945Y746370D01*
X168255Y748918D01*
X166484Y755291D01*
X164741Y755291D01*
X168376Y742950D01*
X170373Y742950D01*
X172510Y750789D01*
G37*
G36*
X27665Y742795D02*
X28136Y742854D01*
X28575Y742953D01*
X28983Y743091D01*
X29359Y743269D01*
X29704Y743487D01*
X30016Y743744D01*
X30297Y744040D01*
X30545Y744374D01*
X30761Y744744D01*
X30943Y745148D01*
X31092Y745587D01*
X31208Y746062D01*
X31291Y746572D01*
X31340Y747117D01*
X31357Y747697D01*
X31340Y748291D01*
X31290Y748847D01*
X31207Y749364D01*
X31091Y749843D01*
X30942Y750284D01*
X30759Y750686D01*
X30544Y751050D01*
X30295Y751376D01*
X30013Y751663D01*
X29697Y751912D01*
X29349Y752123D01*
X28967Y752295D01*
X28553Y752429D01*
X28105Y752525D01*
X27623Y752583D01*
X27109Y752602D01*
X26584Y752583D01*
X26095Y752527D01*
X25641Y752434D01*
X25224Y752303D01*
X24842Y752135D01*
X24496Y751929D01*
X24186Y751687D01*
X23912Y751406D01*
X23672Y751087D01*
X23464Y750726D01*
X23288Y750324D01*
X23143Y749881D01*
X23031Y749397D01*
X22951Y748872D01*
X22903Y748305D01*
X22887Y747697D01*
X22904Y747095D01*
X22956Y746533D01*
X23041Y746010D01*
X23161Y745527D01*
X23315Y745084D01*
X23503Y744680D01*
X23726Y744316D01*
X23982Y743992D01*
X24271Y743707D01*
X24591Y743460D01*
X24942Y743250D01*
X25324Y743079D01*
X25737Y742946D01*
X26181Y742851D01*
X26656Y742794D01*
X27161Y742775D01*
X27665Y742795D01*
G37*
G36*
X95896Y751183D02*
X95876Y752523D01*
X95817Y753811D01*
X96224Y752414D01*
X96412Y751843D01*
X96588Y751358D01*
X99776Y742950D01*
X100950Y742950D01*
X104181Y751358D01*
X104672Y752847D01*
X104961Y753811D01*
X104935Y752838D01*
X104900Y751183D01*
X104900Y742950D01*
X106389Y742950D01*
X106389Y755291D01*
X104190Y755291D01*
X100906Y746734D01*
X100734Y746198D01*
X100569Y745626D01*
X100354Y744772D01*
X100246Y745213D01*
X100061Y745836D01*
X99873Y746417D01*
X99758Y746734D01*
X96535Y755291D01*
X94389Y755291D01*
X94389Y742950D01*
X95896Y742950D01*
X95896Y751183D01*
G37*
G36*
X56464Y742794D02*
X56942Y742853D01*
X57389Y742951D01*
X57805Y743088D01*
X58190Y743264D01*
X58543Y743479D01*
X58865Y743734D01*
X59155Y744027D01*
X59413Y744359D01*
X59636Y744730D01*
X59825Y745138D01*
X59979Y745584D01*
X60100Y746068D01*
X60186Y746591D01*
X60237Y747151D01*
X60254Y747750D01*
X60237Y748319D01*
X60186Y748855D01*
X60100Y749356D01*
X59979Y749823D01*
X59825Y750256D01*
X59636Y750655D01*
X59413Y751019D01*
X59155Y751349D01*
X58866Y751643D01*
X58547Y751897D01*
X58198Y752113D01*
X57821Y752289D01*
X57413Y752426D01*
X56977Y752524D01*
X56511Y752582D01*
X56015Y752602D01*
X55509Y752582D01*
X55036Y752523D01*
X54595Y752425D01*
X54187Y752287D01*
X53812Y752110D01*
X53469Y751894D01*
X53159Y751638D01*
X52882Y751343D01*
X52637Y751008D01*
X52425Y750635D01*
X52245Y750222D01*
X52098Y749769D01*
X51984Y749277D01*
X51903Y748746D01*
X51854Y748176D01*
X51837Y747566D01*
X51837Y747356D01*
X58599Y747356D01*
X58588Y746960D01*
X58557Y746588D01*
X58504Y746238D01*
X58430Y745913D01*
X58335Y745610D01*
X58220Y745331D01*
X58083Y745075D01*
X57925Y744842D01*
X57746Y744635D01*
X57548Y744455D01*
X57331Y744303D01*
X57095Y744178D01*
X56839Y744082D01*
X56563Y744013D01*
X56268Y743971D01*
X55954Y743957D01*
X55704Y743964D01*
X55467Y743983D01*
X55243Y744015D01*
X55031Y744060D01*
X54832Y744118D01*
X54646Y744189D01*
X54472Y744272D01*
X54312Y744369D01*
X54028Y744588D01*
X53794Y744835D01*
X53610Y745110D01*
X53475Y745411D01*
X52091Y745017D01*
X52206Y744746D01*
X52338Y744492D01*
X52486Y744255D01*
X52651Y744036D01*
X52834Y743835D01*
X53033Y743651D01*
X53249Y743484D01*
X53482Y743335D01*
X53732Y743204D01*
X53998Y743090D01*
X54282Y742994D01*
X54583Y742915D01*
X54900Y742854D01*
X55234Y742810D01*
X55586Y742784D01*
X55954Y742775D01*
X56464Y742794D01*
G37*
G36*
X136182Y742794D02*
X136661Y742853D01*
X137108Y742951D01*
X137524Y743088D01*
X137908Y743264D01*
X138262Y743479D01*
X138583Y743734D01*
X138874Y744027D01*
X139131Y744359D01*
X139355Y744730D01*
X139544Y745138D01*
X139698Y745584D01*
X139818Y746068D01*
X139904Y746591D01*
X139956Y747151D01*
X139973Y747750D01*
X139956Y748319D01*
X139904Y748855D01*
X139818Y749356D01*
X139698Y749823D01*
X139544Y750256D01*
X139355Y750655D01*
X139131Y751019D01*
X138874Y751349D01*
X138584Y751643D01*
X138265Y751897D01*
X137917Y752113D01*
X137539Y752289D01*
X137132Y752426D01*
X136695Y752524D01*
X136229Y752582D01*
X135734Y752602D01*
X135228Y752582D01*
X134755Y752523D01*
X134314Y752425D01*
X133906Y752287D01*
X133531Y752110D01*
X133188Y751894D01*
X132878Y751638D01*
X132601Y751343D01*
X132356Y751008D01*
X132144Y750635D01*
X131964Y750222D01*
X131817Y749769D01*
X131703Y749277D01*
X131621Y748746D01*
X131572Y748176D01*
X131556Y747566D01*
X131556Y747356D01*
X138318Y747356D01*
X138307Y746960D01*
X138276Y746588D01*
X138223Y746238D01*
X138149Y745913D01*
X138054Y745610D01*
X137938Y745331D01*
X137801Y745075D01*
X137643Y744842D01*
X137465Y744635D01*
X137267Y744455D01*
X137050Y744303D01*
X136813Y744178D01*
X136557Y744082D01*
X136282Y744013D01*
X135987Y743971D01*
X135673Y743957D01*
X135423Y743964D01*
X135186Y743983D01*
X134961Y744015D01*
X134750Y744060D01*
X134551Y744118D01*
X134365Y744189D01*
X134191Y744272D01*
X134030Y744369D01*
X133747Y744588D01*
X133513Y744835D01*
X133328Y745110D01*
X133194Y745411D01*
X131810Y745017D01*
X131925Y744746D01*
X132056Y744492D01*
X132205Y744255D01*
X132370Y744036D01*
X132552Y743835D01*
X132751Y743651D01*
X132968Y743484D01*
X133200Y743335D01*
X133450Y743204D01*
X133717Y743090D01*
X134001Y742994D01*
X134301Y742915D01*
X134619Y742854D01*
X134953Y742810D01*
X135304Y742784D01*
X135673Y742775D01*
X136182Y742794D01*
G37*
G36*
X150151Y742794D02*
X150630Y742853D01*
X151077Y742951D01*
X151493Y743088D01*
X151877Y743264D01*
X152230Y743479D01*
X152552Y743734D01*
X152843Y744027D01*
X153100Y744359D01*
X153323Y744730D01*
X153512Y745138D01*
X153667Y745584D01*
X153787Y746068D01*
X153873Y746591D01*
X153925Y747151D01*
X153942Y747750D01*
X153925Y748319D01*
X153873Y748855D01*
X153787Y749356D01*
X153667Y749823D01*
X153512Y750256D01*
X153323Y750655D01*
X153100Y751019D01*
X152843Y751349D01*
X152553Y751643D01*
X152234Y751897D01*
X151886Y752113D01*
X151508Y752289D01*
X151101Y752426D01*
X150664Y752524D01*
X150198Y752582D01*
X149703Y752602D01*
X149197Y752582D01*
X148723Y752523D01*
X148283Y752425D01*
X147875Y752287D01*
X147500Y752110D01*
X147157Y751894D01*
X146847Y751638D01*
X146569Y751343D01*
X146324Y751008D01*
X146112Y750635D01*
X145933Y750222D01*
X145786Y749769D01*
X145672Y749277D01*
X145590Y748746D01*
X145541Y748176D01*
X145525Y747566D01*
X145525Y747356D01*
X152286Y747356D01*
X152276Y746960D01*
X152244Y746588D01*
X152192Y746238D01*
X152118Y745913D01*
X152023Y745610D01*
X151907Y745331D01*
X151770Y745075D01*
X151612Y744842D01*
X151434Y744635D01*
X151236Y744455D01*
X151019Y744303D01*
X150782Y744178D01*
X150526Y744082D01*
X150251Y744013D01*
X149956Y743971D01*
X149641Y743957D01*
X149392Y743964D01*
X149154Y743983D01*
X148930Y744015D01*
X148718Y744060D01*
X148519Y744118D01*
X148333Y744189D01*
X148160Y744272D01*
X147999Y744369D01*
X147715Y744588D01*
X147481Y744835D01*
X147297Y745110D01*
X147163Y745411D01*
X145779Y745017D01*
X145893Y744746D01*
X146025Y744492D01*
X146173Y744255D01*
X146339Y744036D01*
X146521Y743835D01*
X146720Y743651D01*
X146936Y743484D01*
X147169Y743335D01*
X147419Y743204D01*
X147686Y743090D01*
X147970Y742994D01*
X148270Y742915D01*
X148588Y742854D01*
X148922Y742810D01*
X149273Y742784D01*
X149641Y742775D01*
X150151Y742794D01*
G37*
G36*
X43822Y748958D02*
X43833Y749401D01*
X43868Y749790D01*
X43925Y750128D01*
X44006Y750412D01*
X44111Y750653D01*
X44244Y750857D01*
X44405Y751025D01*
X44592Y751157D01*
X44817Y751256D01*
X45090Y751328D01*
X45409Y751370D01*
X45775Y751384D01*
X46052Y751372D01*
X46314Y751336D01*
X46561Y751275D01*
X46793Y751190D01*
X47010Y751080D01*
X47212Y750946D01*
X47399Y750788D01*
X47570Y750605D01*
X47724Y750401D01*
X47858Y750177D01*
X47971Y749935D01*
X48063Y749674D01*
X48135Y749395D01*
X48186Y749096D01*
X48217Y748778D01*
X48227Y748442D01*
X48227Y742950D01*
X49804Y742950D01*
X49804Y750404D01*
X49817Y751737D01*
X49833Y752162D01*
X49856Y752427D01*
X48367Y752427D01*
X48350Y752190D01*
X48328Y751748D01*
X48297Y750806D01*
X48271Y750806D01*
X47989Y751261D01*
X47685Y751644D01*
X47526Y751809D01*
X47360Y751955D01*
X47190Y752084D01*
X47014Y752195D01*
X46830Y752290D01*
X46636Y752373D01*
X46430Y752443D01*
X46214Y752500D01*
X45987Y752545D01*
X45749Y752576D01*
X45500Y752596D01*
X45241Y752602D01*
X44864Y752590D01*
X44513Y752553D01*
X44189Y752493D01*
X43891Y752408D01*
X43619Y752299D01*
X43373Y752166D01*
X43153Y752008D01*
X42959Y751827D01*
X42790Y751617D01*
X42643Y751376D01*
X42519Y751103D01*
X42417Y750799D01*
X42338Y750463D01*
X42282Y750095D01*
X42248Y749696D01*
X42236Y749265D01*
X42236Y742950D01*
X43822Y742950D01*
X43822Y748958D01*
G37*
G36*
X89130Y742787D02*
X89481Y742823D01*
X89805Y742884D01*
X90103Y742969D01*
X90376Y743078D01*
X90621Y743211D01*
X90841Y743368D01*
X91035Y743550D01*
X91204Y743760D01*
X91351Y744001D01*
X91475Y744274D01*
X91577Y744578D01*
X91656Y744914D01*
X91712Y745282D01*
X91746Y745681D01*
X91758Y746112D01*
X91758Y752427D01*
X90172Y752427D01*
X90172Y746418D01*
X90161Y745976D01*
X90126Y745586D01*
X90069Y745249D01*
X89988Y744964D01*
X89883Y744724D01*
X89750Y744520D01*
X89589Y744352D01*
X89402Y744220D01*
X89177Y744120D01*
X88905Y744049D01*
X88585Y744006D01*
X88219Y743992D01*
X87942Y744004D01*
X87680Y744041D01*
X87433Y744102D01*
X87201Y744187D01*
X86984Y744297D01*
X86782Y744431D01*
X86595Y744589D01*
X86424Y744772D01*
X86270Y744976D01*
X86136Y745199D01*
X86023Y745441D01*
X85931Y745702D01*
X85859Y745982D01*
X85808Y746281D01*
X85777Y746599D01*
X85767Y746935D01*
X85767Y752427D01*
X84190Y752427D01*
X84190Y744973D01*
X84177Y743640D01*
X84161Y743214D01*
X84138Y742950D01*
X85627Y742950D01*
X85644Y743186D01*
X85666Y743629D01*
X85697Y744570D01*
X85723Y744570D01*
X86005Y744116D01*
X86309Y743733D01*
X86469Y743568D01*
X86634Y743422D01*
X86804Y743293D01*
X86980Y743182D01*
X87164Y743087D01*
X87358Y743004D01*
X87564Y742934D01*
X87780Y742877D01*
X88007Y742832D01*
X88245Y742800D01*
X88494Y742781D01*
X88753Y742775D01*
X89130Y742787D01*
G37*
G36*
X37033Y742784D02*
X37437Y742811D01*
X37816Y742857D01*
X38170Y742920D01*
X38498Y743002D01*
X38801Y743102D01*
X39079Y743221D01*
X39331Y743357D01*
X39561Y743513D01*
X39769Y743689D01*
X39957Y743886D01*
X40123Y744103D01*
X40269Y744340D01*
X40393Y744598D01*
X40497Y744876D01*
X40580Y745175D01*
X39187Y745446D01*
X39130Y745262D01*
X39059Y745091D01*
X38975Y744932D01*
X38878Y744786D01*
X38767Y744653D01*
X38643Y744532D01*
X38506Y744425D01*
X38355Y744329D01*
X38190Y744246D01*
X38009Y744174D01*
X37813Y744113D01*
X37602Y744063D01*
X37133Y743997D01*
X36603Y743975D01*
X36313Y743980D01*
X36043Y743998D01*
X35794Y744026D01*
X35564Y744067D01*
X35355Y744118D01*
X35165Y744182D01*
X34996Y744256D01*
X34847Y744343D01*
X34717Y744440D01*
X34604Y744550D01*
X34508Y744670D01*
X34430Y744802D01*
X34369Y744946D01*
X34326Y745101D01*
X34300Y745268D01*
X34291Y745446D01*
X34315Y745713D01*
X34387Y745954D01*
X34508Y746169D01*
X34676Y746357D01*
X34899Y746525D01*
X35180Y746677D01*
X35520Y746814D01*
X35920Y746935D01*
X37050Y747233D01*
X37680Y747407D01*
X38211Y747580D01*
X38645Y747751D01*
X38981Y747920D01*
X39252Y748098D01*
X39492Y748294D01*
X39701Y748508D01*
X39879Y748739D01*
X40021Y748994D01*
X40122Y749276D01*
X40183Y749585D01*
X40203Y749922D01*
X40188Y750236D01*
X40145Y750531D01*
X40073Y750807D01*
X39972Y751064D01*
X39842Y751301D01*
X39683Y751519D01*
X39495Y751718D01*
X39279Y751897D01*
X39035Y752056D01*
X38764Y752194D01*
X38467Y752310D01*
X38144Y752406D01*
X37794Y752480D01*
X37417Y752533D01*
X37015Y752565D01*
X36586Y752576D01*
X36204Y752567D01*
X35842Y752541D01*
X35500Y752498D01*
X35179Y752438D01*
X34877Y752360D01*
X34596Y752265D01*
X34335Y752153D01*
X34094Y752024D01*
X33873Y751876D01*
X33674Y751706D01*
X33496Y751516D01*
X33340Y751306D01*
X33204Y751074D01*
X33090Y750822D01*
X32996Y750549D01*
X32925Y750255D01*
X34343Y750079D01*
X34383Y750233D01*
X34437Y750376D01*
X34504Y750511D01*
X34585Y750637D01*
X34789Y750860D01*
X35049Y751047D01*
X35360Y751195D01*
X35720Y751300D01*
X36128Y751363D01*
X36586Y751384D01*
X37085Y751364D01*
X37514Y751303D01*
X37702Y751258D01*
X37873Y751202D01*
X38026Y751136D01*
X38162Y751060D01*
X38281Y750974D01*
X38384Y750878D01*
X38472Y750771D01*
X38543Y750653D01*
X38599Y750525D01*
X38638Y750387D01*
X38662Y750238D01*
X38670Y750079D01*
X38657Y749887D01*
X38618Y749712D01*
X38552Y749554D01*
X38460Y749414D01*
X38342Y749287D01*
X38199Y749171D01*
X38031Y749064D01*
X37838Y748967D01*
X37575Y748866D01*
X37199Y748748D01*
X36104Y748459D01*
X35521Y748304D01*
X35027Y748156D01*
X34619Y748013D01*
X34300Y747877D01*
X34038Y747740D01*
X33806Y747595D01*
X33603Y747444D01*
X33428Y747285D01*
X33277Y747117D01*
X33145Y746936D01*
X33030Y746743D01*
X32933Y746537D01*
X32857Y746317D01*
X32802Y746082D01*
X32769Y745833D01*
X32758Y745569D01*
X32774Y745243D01*
X32821Y744937D01*
X32900Y744650D01*
X33011Y744382D01*
X33153Y744133D01*
X33327Y743904D01*
X33533Y743693D01*
X33770Y743502D01*
X34035Y743331D01*
X34326Y743184D01*
X34642Y743059D01*
X34984Y742957D01*
X35351Y742877D01*
X35743Y742820D01*
X36160Y742786D01*
X36603Y742775D01*
X37033Y742784D01*
G37*
G36*
X65939Y742784D02*
X66343Y742811D01*
X66722Y742857D01*
X67076Y742920D01*
X67404Y743002D01*
X67708Y743102D01*
X67985Y743221D01*
X68238Y743357D01*
X68467Y743513D01*
X68675Y743689D01*
X68863Y743886D01*
X69029Y744103D01*
X69175Y744340D01*
X69299Y744598D01*
X69403Y744876D01*
X69486Y745175D01*
X68093Y745446D01*
X68036Y745262D01*
X67966Y745091D01*
X67882Y744932D01*
X67784Y744786D01*
X67674Y744653D01*
X67550Y744532D01*
X67412Y744425D01*
X67261Y744329D01*
X67096Y744246D01*
X66915Y744174D01*
X66719Y744113D01*
X66508Y744063D01*
X66039Y743997D01*
X65509Y743975D01*
X65219Y743980D01*
X64950Y743998D01*
X64700Y744026D01*
X64470Y744067D01*
X64261Y744118D01*
X64072Y744182D01*
X63902Y744256D01*
X63753Y744343D01*
X63623Y744440D01*
X63510Y744550D01*
X63414Y744670D01*
X63336Y744802D01*
X63275Y744946D01*
X63232Y745101D01*
X63206Y745268D01*
X63197Y745446D01*
X63221Y745713D01*
X63294Y745954D01*
X63414Y746169D01*
X63583Y746357D01*
X63805Y746525D01*
X64086Y746677D01*
X64427Y746814D01*
X64826Y746935D01*
X65956Y747233D01*
X66586Y747407D01*
X67118Y747580D01*
X67552Y747751D01*
X67887Y747920D01*
X68159Y748098D01*
X68399Y748294D01*
X68607Y748508D01*
X68785Y748739D01*
X68927Y748994D01*
X69028Y749276D01*
X69089Y749585D01*
X69109Y749922D01*
X69095Y750236D01*
X69051Y750531D01*
X68979Y750807D01*
X68878Y751064D01*
X68748Y751301D01*
X68589Y751519D01*
X68402Y751718D01*
X68185Y751897D01*
X67941Y752056D01*
X67670Y752194D01*
X67373Y752310D01*
X67050Y752406D01*
X66700Y752480D01*
X66324Y752533D01*
X65921Y752565D01*
X65492Y752576D01*
X65110Y752567D01*
X64748Y752541D01*
X64407Y752498D01*
X64085Y752438D01*
X63784Y752360D01*
X63502Y752265D01*
X63241Y752153D01*
X63000Y752024D01*
X62780Y751876D01*
X62581Y751706D01*
X62403Y751516D01*
X62246Y751306D01*
X62110Y751074D01*
X61996Y750822D01*
X61903Y750549D01*
X61831Y750255D01*
X63250Y750079D01*
X63289Y750233D01*
X63343Y750376D01*
X63410Y750511D01*
X63492Y750637D01*
X63696Y750860D01*
X63955Y751047D01*
X64266Y751195D01*
X64626Y751300D01*
X65035Y751363D01*
X65492Y751384D01*
X65991Y751364D01*
X66420Y751303D01*
X66609Y751258D01*
X66779Y751202D01*
X66933Y751136D01*
X67068Y751060D01*
X67187Y750974D01*
X67291Y750878D01*
X67378Y750771D01*
X67449Y750653D01*
X67505Y750525D01*
X67545Y750387D01*
X67568Y750238D01*
X67576Y750079D01*
X67563Y749887D01*
X67524Y749712D01*
X67458Y749554D01*
X67366Y749414D01*
X67249Y749287D01*
X67106Y749171D01*
X66938Y749064D01*
X66744Y748967D01*
X66482Y748866D01*
X66105Y748748D01*
X65010Y748459D01*
X64428Y748304D01*
X63933Y748156D01*
X63526Y748013D01*
X63206Y747877D01*
X62945Y747740D01*
X62712Y747595D01*
X62509Y747444D01*
X62334Y747285D01*
X62184Y747117D01*
X62051Y746936D01*
X61936Y746743D01*
X61840Y746537D01*
X61763Y746317D01*
X61708Y746082D01*
X61675Y745833D01*
X61664Y745569D01*
X61680Y745243D01*
X61728Y744937D01*
X61807Y744650D01*
X61917Y744382D01*
X62060Y744133D01*
X62233Y743904D01*
X62439Y743693D01*
X62676Y743502D01*
X62942Y743331D01*
X63232Y743184D01*
X63549Y743059D01*
X63890Y742957D01*
X64257Y742877D01*
X64649Y742820D01*
X65067Y742786D01*
X65509Y742775D01*
X65939Y742784D01*
G37*
G36*
X117752Y742784D02*
X118156Y742811D01*
X118535Y742857D01*
X118889Y742920D01*
X119217Y743002D01*
X119520Y743102D01*
X119798Y743221D01*
X120050Y743357D01*
X120279Y743513D01*
X120488Y743689D01*
X120675Y743886D01*
X120842Y744103D01*
X120987Y744340D01*
X121112Y744598D01*
X121216Y744876D01*
X121298Y745175D01*
X119906Y745446D01*
X119849Y745262D01*
X119778Y745091D01*
X119694Y744932D01*
X119597Y744786D01*
X119486Y744653D01*
X119362Y744532D01*
X119225Y744425D01*
X119074Y744329D01*
X118908Y744246D01*
X118728Y744174D01*
X118532Y744113D01*
X118320Y744063D01*
X117852Y743997D01*
X117322Y743975D01*
X117032Y743980D01*
X116762Y743998D01*
X116513Y744026D01*
X116283Y744067D01*
X116073Y744118D01*
X115884Y744182D01*
X115715Y744256D01*
X115566Y744343D01*
X115435Y744440D01*
X115323Y744550D01*
X115227Y744670D01*
X115149Y744802D01*
X115088Y744946D01*
X115044Y745101D01*
X115018Y745268D01*
X115010Y745446D01*
X115034Y745713D01*
X115106Y745954D01*
X115226Y746169D01*
X115395Y746357D01*
X115617Y746525D01*
X115899Y746677D01*
X116239Y746814D01*
X116639Y746935D01*
X117769Y747233D01*
X118398Y747407D01*
X118930Y747580D01*
X119364Y747751D01*
X119700Y747920D01*
X119971Y748098D01*
X120211Y748294D01*
X120420Y748508D01*
X120598Y748739D01*
X120739Y748994D01*
X120841Y749276D01*
X120901Y749585D01*
X120922Y749922D01*
X120907Y750236D01*
X120864Y750531D01*
X120792Y750807D01*
X120691Y751064D01*
X120561Y751301D01*
X120402Y751519D01*
X120214Y751718D01*
X119998Y751897D01*
X119753Y752056D01*
X119483Y752194D01*
X119186Y752310D01*
X118862Y752406D01*
X118512Y752480D01*
X118136Y752533D01*
X117733Y752565D01*
X117304Y752576D01*
X116923Y752567D01*
X116561Y752541D01*
X116219Y752498D01*
X115898Y752438D01*
X115596Y752360D01*
X115315Y752265D01*
X115054Y752153D01*
X114813Y752024D01*
X114592Y751876D01*
X114393Y751706D01*
X114215Y751516D01*
X114058Y751306D01*
X113923Y751074D01*
X113808Y750822D01*
X113715Y750549D01*
X113643Y750255D01*
X115062Y750079D01*
X115102Y750233D01*
X115156Y750376D01*
X115223Y750511D01*
X115304Y750637D01*
X115508Y750860D01*
X115767Y751047D01*
X116078Y751195D01*
X116438Y751300D01*
X116847Y751363D01*
X117304Y751384D01*
X117804Y751364D01*
X118233Y751303D01*
X118421Y751258D01*
X118592Y751202D01*
X118745Y751136D01*
X118881Y751060D01*
X119000Y750974D01*
X119103Y750878D01*
X119190Y750771D01*
X119262Y750653D01*
X119317Y750525D01*
X119357Y750387D01*
X119381Y750238D01*
X119389Y750079D01*
X119376Y749887D01*
X119336Y749712D01*
X119271Y749554D01*
X119179Y749414D01*
X119061Y749287D01*
X118918Y749171D01*
X118750Y749064D01*
X118557Y748967D01*
X118294Y748866D01*
X117917Y748748D01*
X116823Y748459D01*
X116240Y748304D01*
X115745Y748156D01*
X115338Y748013D01*
X115018Y747877D01*
X114757Y747740D01*
X114525Y747595D01*
X114321Y747444D01*
X114147Y747285D01*
X113996Y747117D01*
X113863Y746936D01*
X113749Y746743D01*
X113652Y746537D01*
X113575Y746317D01*
X113521Y746082D01*
X113488Y745833D01*
X113477Y745569D01*
X113493Y745243D01*
X113540Y744937D01*
X113619Y744650D01*
X113730Y744382D01*
X113872Y744133D01*
X114046Y743904D01*
X114251Y743693D01*
X114489Y743502D01*
X114754Y743331D01*
X115045Y743184D01*
X115361Y743059D01*
X115703Y742957D01*
X116070Y742877D01*
X116462Y742820D01*
X116879Y742786D01*
X117322Y742775D01*
X117752Y742784D01*
G37*
G36*
X126720Y742784D02*
X127125Y742811D01*
X127504Y742857D01*
X127857Y742920D01*
X128186Y743002D01*
X128489Y743102D01*
X128767Y743221D01*
X129019Y743357D01*
X129248Y743513D01*
X129457Y743689D01*
X129644Y743886D01*
X129811Y744103D01*
X129956Y744340D01*
X130081Y744598D01*
X130184Y744876D01*
X130267Y745175D01*
X128874Y745446D01*
X128817Y745262D01*
X128747Y745091D01*
X128663Y744932D01*
X128566Y744786D01*
X128455Y744653D01*
X128331Y744532D01*
X128193Y744425D01*
X128042Y744329D01*
X127877Y744246D01*
X127696Y744174D01*
X127500Y744113D01*
X127289Y744063D01*
X126821Y743997D01*
X126291Y743975D01*
X126001Y743980D01*
X125731Y743998D01*
X125481Y744026D01*
X125252Y744067D01*
X125042Y744118D01*
X124853Y744182D01*
X124684Y744256D01*
X124535Y744343D01*
X124404Y744440D01*
X124291Y744550D01*
X124196Y744670D01*
X124117Y744802D01*
X124057Y744946D01*
X124013Y745101D01*
X123987Y745268D01*
X123978Y745446D01*
X124002Y745713D01*
X124075Y745954D01*
X124195Y746169D01*
X124364Y746357D01*
X124586Y746525D01*
X124867Y746677D01*
X125208Y746814D01*
X125607Y746935D01*
X126737Y747233D01*
X127367Y747407D01*
X127899Y747580D01*
X128333Y747751D01*
X128669Y747920D01*
X128940Y748098D01*
X129180Y748294D01*
X129389Y748508D01*
X129566Y748739D01*
X129708Y748994D01*
X129809Y749276D01*
X129870Y749585D01*
X129890Y749922D01*
X129876Y750236D01*
X129833Y750531D01*
X129760Y750807D01*
X129659Y751064D01*
X129529Y751301D01*
X129371Y751519D01*
X129183Y751718D01*
X128966Y751897D01*
X128722Y752056D01*
X128452Y752194D01*
X128155Y752310D01*
X127831Y752406D01*
X127481Y752480D01*
X127105Y752533D01*
X126702Y752565D01*
X126273Y752576D01*
X125891Y752567D01*
X125529Y752541D01*
X125188Y752498D01*
X124866Y752438D01*
X124565Y752360D01*
X124284Y752265D01*
X124022Y752153D01*
X123781Y752024D01*
X123561Y751876D01*
X123362Y751706D01*
X123184Y751516D01*
X123027Y751306D01*
X122891Y751074D01*
X122777Y750822D01*
X122684Y750549D01*
X122612Y750255D01*
X124031Y750079D01*
X124071Y750233D01*
X124124Y750376D01*
X124192Y750511D01*
X124273Y750637D01*
X124477Y750860D01*
X124736Y751047D01*
X125047Y751195D01*
X125407Y751300D01*
X125816Y751363D01*
X126273Y751384D01*
X126772Y751364D01*
X127202Y751303D01*
X127390Y751258D01*
X127561Y751202D01*
X127714Y751136D01*
X127850Y751060D01*
X127969Y750974D01*
X128072Y750878D01*
X128159Y750771D01*
X128231Y750653D01*
X128286Y750525D01*
X128326Y750387D01*
X128350Y750238D01*
X128358Y750079D01*
X128345Y749887D01*
X128305Y749712D01*
X128239Y749554D01*
X128147Y749414D01*
X128030Y749287D01*
X127887Y749171D01*
X127719Y749064D01*
X127526Y748967D01*
X127263Y748866D01*
X126886Y748748D01*
X125791Y748459D01*
X125209Y748304D01*
X124714Y748156D01*
X124307Y748013D01*
X123987Y747877D01*
X123726Y747740D01*
X123493Y747595D01*
X123290Y747444D01*
X123116Y747285D01*
X122965Y747117D01*
X122832Y746936D01*
X122717Y746743D01*
X122621Y746537D01*
X122544Y746317D01*
X122489Y746082D01*
X122457Y745833D01*
X122446Y745569D01*
X122461Y745243D01*
X122509Y744937D01*
X122588Y744650D01*
X122699Y744382D01*
X122841Y744133D01*
X123015Y743904D01*
X123220Y743693D01*
X123457Y743502D01*
X123723Y743331D01*
X124014Y743184D01*
X124330Y743059D01*
X124671Y742957D01*
X125038Y742877D01*
X125430Y742820D01*
X125848Y742786D01*
X126291Y742775D01*
X126720Y742784D01*
G37*
%LPC*%
G36*
X26837Y743954D02*
X26520Y743997D01*
X26229Y744068D01*
X25963Y744167D01*
X25722Y744296D01*
X25506Y744452D01*
X25316Y744637D01*
X25151Y744851D01*
X25009Y745094D01*
X24885Y745370D01*
X24780Y745678D01*
X24695Y746018D01*
X24628Y746390D01*
X24581Y746793D01*
X24552Y747229D01*
X24543Y747697D01*
X24552Y748171D01*
X24579Y748611D01*
X24625Y749018D01*
X24688Y749391D01*
X24770Y749730D01*
X24870Y750036D01*
X24989Y750309D01*
X25125Y750548D01*
X25283Y750756D01*
X25466Y750937D01*
X25673Y751090D01*
X25906Y751215D01*
X26163Y751312D01*
X26445Y751381D01*
X26751Y751423D01*
X27083Y751437D01*
X27417Y751423D01*
X27727Y751380D01*
X28013Y751310D01*
X28275Y751210D01*
X28513Y751083D01*
X28727Y750927D01*
X28918Y750743D01*
X29084Y750531D01*
X29229Y750288D01*
X29354Y750013D01*
X29460Y749707D01*
X29547Y749369D01*
X29615Y748999D01*
X29663Y748597D01*
X29692Y748163D01*
X29701Y747697D01*
X29692Y747243D01*
X29663Y746818D01*
X29616Y746423D01*
X29549Y746056D01*
X29464Y745719D01*
X29359Y745410D01*
X29235Y745131D01*
X29093Y744881D01*
X28930Y744661D01*
X28745Y744469D01*
X28538Y744308D01*
X28310Y744175D01*
X28060Y744072D01*
X27788Y743999D01*
X27494Y743954D01*
X27179Y743940D01*
X26837Y743954D01*
G37*
%LPD*%
G36*
X75925Y742818D02*
X76139Y742843D01*
X76339Y742885D01*
X76523Y742944D01*
X76693Y743019D01*
X76848Y743112D01*
X76989Y743221D01*
X77114Y743346D01*
X77225Y743489D01*
X77321Y743648D01*
X77403Y743824D01*
X77469Y744017D01*
X77521Y744226D01*
X77558Y744453D01*
X77580Y744696D01*
X77587Y744956D01*
X77587Y751279D01*
X78682Y751279D01*
X78682Y752427D01*
X77526Y752427D01*
X77062Y754546D01*
X76011Y754546D01*
X76011Y752427D01*
X74259Y752427D01*
X74259Y751279D01*
X76011Y751279D01*
X76011Y745297D01*
X75997Y744981D01*
X75955Y744716D01*
X75885Y744502D01*
X75788Y744338D01*
X75655Y744218D01*
X75482Y744131D01*
X75268Y744080D01*
X75012Y744062D01*
X74627Y744093D01*
X74102Y744185D01*
X74102Y743020D01*
X74493Y742928D01*
X74890Y742862D01*
X75291Y742823D01*
X75696Y742810D01*
X75925Y742818D01*
G37*
G36*
X81745Y755948D02*
X80169Y755948D01*
X80169Y742950D01*
X81745Y742950D01*
X81745Y755948D01*
G37*
G36*
X143526Y755948D02*
X141950Y755948D01*
X141950Y742950D01*
X143526Y742950D01*
X143526Y755948D01*
G37*
G36*
X20898Y750220D02*
X20911Y751271D01*
X20950Y752427D01*
X19461Y752427D01*
X19391Y750491D01*
X19356Y750491D01*
X19161Y751052D01*
X18951Y751516D01*
X18727Y751884D01*
X18610Y752032D01*
X18489Y752155D01*
X18360Y752260D01*
X18219Y752351D01*
X18064Y752427D01*
X17898Y752490D01*
X17718Y752539D01*
X17527Y752574D01*
X17322Y752595D01*
X17105Y752602D01*
X16788Y752580D01*
X16466Y752514D01*
X16466Y751069D01*
X16637Y751107D01*
X16834Y751135D01*
X17307Y751157D01*
X17545Y751144D01*
X17768Y751104D01*
X17977Y751038D01*
X18171Y750945D01*
X18351Y750827D01*
X18517Y750681D01*
X18668Y750510D01*
X18804Y750312D01*
X18925Y750089D01*
X19030Y749843D01*
X19119Y749575D01*
X19192Y749284D01*
X19248Y748969D01*
X19289Y748632D01*
X19313Y748273D01*
X19321Y747890D01*
X19321Y742950D01*
X20898Y742950D01*
X20898Y750220D01*
G37*
G36*
X159429Y750220D02*
X159442Y751271D01*
X159481Y752427D01*
X157992Y752427D01*
X157922Y750491D01*
X157887Y750491D01*
X157692Y751052D01*
X157482Y751516D01*
X157258Y751884D01*
X157141Y752032D01*
X157020Y752155D01*
X156891Y752260D01*
X156750Y752351D01*
X156596Y752427D01*
X156429Y752490D01*
X156250Y752539D01*
X156058Y752574D01*
X155853Y752595D01*
X155636Y752602D01*
X155319Y752580D01*
X154997Y752514D01*
X154997Y751069D01*
X155168Y751107D01*
X155365Y751135D01*
X155838Y751157D01*
X156076Y751144D01*
X156299Y751104D01*
X156508Y751038D01*
X156703Y750945D01*
X156883Y750827D01*
X157048Y750681D01*
X157199Y750510D01*
X157336Y750312D01*
X157457Y750089D01*
X157562Y749843D01*
X157650Y749575D01*
X157723Y749284D01*
X157780Y748969D01*
X157820Y748632D01*
X157844Y748273D01*
X157852Y747890D01*
X157852Y742950D01*
X159429Y742950D01*
X159429Y750220D01*
G37*
G36*
X72785Y752427D02*
X71209Y752427D01*
X71209Y742950D01*
X72785Y742950D01*
X72785Y752427D01*
G37*
G36*
X163473Y752427D02*
X161896Y752427D01*
X161896Y742950D01*
X163473Y742950D01*
X163473Y752427D01*
G37*
%LPC*%
G36*
X53466Y748564D02*
X53507Y748926D01*
X53563Y749262D01*
X53635Y749574D01*
X53723Y749859D01*
X53826Y750120D01*
X53944Y750355D01*
X54079Y750565D01*
X54228Y750749D01*
X54395Y750911D01*
X54578Y751050D01*
X54779Y751168D01*
X54997Y751265D01*
X55232Y751340D01*
X55485Y751394D01*
X55754Y751426D01*
X56041Y751437D01*
X56321Y751425D01*
X56585Y751389D01*
X56835Y751329D01*
X57069Y751245D01*
X57289Y751138D01*
X57494Y751006D01*
X57684Y750850D01*
X57859Y750671D01*
X58017Y750470D01*
X58155Y750252D01*
X58275Y750015D01*
X58374Y749761D01*
X58455Y749489D01*
X58517Y749198D01*
X58559Y748890D01*
X58581Y748564D01*
X53466Y748564D01*
G37*
G36*
X133185Y748564D02*
X133226Y748926D01*
X133282Y749262D01*
X133354Y749574D01*
X133441Y749859D01*
X133544Y750120D01*
X133663Y750355D01*
X133797Y750565D01*
X133947Y750749D01*
X134113Y750911D01*
X134297Y751050D01*
X134498Y751168D01*
X134716Y751265D01*
X134951Y751340D01*
X135203Y751394D01*
X135473Y751426D01*
X135760Y751437D01*
X136040Y751425D01*
X136304Y751389D01*
X136554Y751329D01*
X136788Y751245D01*
X137008Y751138D01*
X137213Y751006D01*
X137403Y750850D01*
X137578Y750671D01*
X137735Y750470D01*
X137874Y750252D01*
X137993Y750015D01*
X138093Y749761D01*
X138174Y749489D01*
X138235Y749198D01*
X138277Y748890D01*
X138300Y748564D01*
X133185Y748564D01*
G37*
G36*
X147154Y748564D02*
X147195Y748926D01*
X147251Y749262D01*
X147323Y749574D01*
X147410Y749859D01*
X147513Y750120D01*
X147632Y750355D01*
X147766Y750565D01*
X147916Y750749D01*
X148082Y750911D01*
X148266Y751050D01*
X148466Y751168D01*
X148684Y751265D01*
X148920Y751340D01*
X149172Y751394D01*
X149442Y751426D01*
X149729Y751437D01*
X150008Y751425D01*
X150273Y751389D01*
X150522Y751329D01*
X150757Y751245D01*
X150977Y751138D01*
X151181Y751006D01*
X151371Y750850D01*
X151546Y750671D01*
X151704Y750470D01*
X151843Y750252D01*
X151962Y750015D01*
X152062Y749761D01*
X152143Y749489D01*
X152204Y749198D01*
X152246Y748890D01*
X152269Y748564D01*
X147154Y748564D01*
G37*
%LPD*%
G36*
X72785Y755948D02*
X71209Y755948D01*
X71209Y754441D01*
X72785Y754441D01*
X72785Y755948D01*
G37*
G36*
X163473Y755948D02*
X161896Y755948D01*
X161896Y754441D01*
X163473Y754441D01*
X163473Y755948D01*
G37*
G36*
X180669Y738140D02*
X177802Y738140D01*
X177466Y738133D01*
X177151Y738110D01*
X176858Y738073D01*
X176587Y738021D01*
X176337Y737953D01*
X176109Y737871D01*
X175903Y737774D01*
X175719Y737662D01*
X175556Y737534D01*
X175415Y737392D01*
X175296Y737235D01*
X175198Y737063D01*
X175122Y736876D01*
X175068Y736674D01*
X175035Y736457D01*
X175024Y736225D01*
X175031Y736054D01*
X175049Y735889D01*
X175122Y735581D01*
X175245Y735301D01*
X175416Y735049D01*
X175584Y734880D01*
X175633Y734831D01*
X175890Y734652D01*
X176187Y734512D01*
X176525Y734411D01*
X176297Y734376D01*
X176082Y734329D01*
X175880Y734270D01*
X175692Y734197D01*
X175518Y734112D01*
X175357Y734014D01*
X175209Y733904D01*
X175147Y733847D01*
X175075Y733781D01*
X174955Y733647D01*
X174852Y733505D01*
X174764Y733354D01*
X174693Y733195D01*
X174637Y733027D01*
X174597Y732851D01*
X174573Y732666D01*
X174565Y732473D01*
X174577Y732217D01*
X174613Y731976D01*
X174673Y731749D01*
X174757Y731537D01*
X174865Y731340D01*
X174997Y731157D01*
X175153Y730989D01*
X175332Y730835D01*
X175534Y730698D01*
X175754Y730579D01*
X175992Y730479D01*
X176249Y730396D01*
X176526Y730332D01*
X176820Y730287D01*
X177134Y730259D01*
X177466Y730250D01*
X180669Y730250D01*
X180669Y738140D01*
G37*
G36*
X43595Y727876D02*
X43824Y727894D01*
X44040Y727925D01*
X44244Y727967D01*
X44435Y728022D01*
X44614Y728089D01*
X44780Y728168D01*
X44933Y728259D01*
X45201Y728474D01*
X45315Y728597D01*
X45416Y728730D01*
X45504Y728874D01*
X45579Y729027D01*
X45640Y729191D01*
X45689Y729365D01*
X44675Y729511D01*
X44610Y729313D01*
X44514Y729139D01*
X44387Y728990D01*
X44230Y728864D01*
X44044Y728765D01*
X43832Y728694D01*
X43592Y728651D01*
X43326Y728637D01*
X43143Y728644D01*
X43134Y728645D01*
X42973Y728665D01*
X42814Y728699D01*
X42667Y728747D01*
X42531Y728810D01*
X42408Y728885D01*
X42296Y728975D01*
X42196Y729078D01*
X42108Y729195D01*
X42031Y729326D01*
X41966Y729471D01*
X41914Y729629D01*
X41872Y729802D01*
X41843Y729988D01*
X41825Y730188D01*
X41819Y730401D01*
X41819Y731376D01*
X41831Y731376D01*
X41987Y731102D01*
X42169Y730865D01*
X42379Y730664D01*
X42606Y730505D01*
X42615Y730499D01*
X42874Y730371D01*
X43155Y730279D01*
X43457Y730224D01*
X43779Y730205D01*
X44049Y730217D01*
X44300Y730251D01*
X44532Y730309D01*
X44746Y730390D01*
X44942Y730494D01*
X45119Y730621D01*
X45277Y730771D01*
X45417Y730944D01*
X45540Y731142D01*
X45646Y731367D01*
X45736Y731618D01*
X45810Y731895D01*
X45867Y732199D01*
X45908Y732529D01*
X45933Y732885D01*
X45941Y733268D01*
X45932Y733657D01*
X45906Y734019D01*
X45862Y734355D01*
X45800Y734665D01*
X45721Y734948D01*
X45624Y735205D01*
X45510Y735436D01*
X45378Y735640D01*
X45228Y735819D01*
X45060Y735974D01*
X44874Y736106D01*
X44669Y736213D01*
X44446Y736297D01*
X44205Y736357D01*
X43945Y736392D01*
X43667Y736404D01*
X43356Y736386D01*
X43066Y736331D01*
X42797Y736239D01*
X42550Y736110D01*
X42327Y735948D01*
X42131Y735754D01*
X41962Y735529D01*
X41819Y735273D01*
X41808Y735273D01*
X41786Y735856D01*
X41763Y736176D01*
X41741Y736309D01*
X40783Y736309D01*
X40809Y735844D01*
X40817Y735055D01*
X40817Y730424D01*
X40827Y730114D01*
X40857Y729825D01*
X40906Y729556D01*
X40976Y729306D01*
X41065Y729077D01*
X41174Y728868D01*
X41303Y728678D01*
X41451Y728508D01*
X41620Y728359D01*
X41808Y728229D01*
X42016Y728119D01*
X42244Y728030D01*
X42492Y727960D01*
X42759Y727910D01*
X43047Y727880D01*
X43354Y727870D01*
X43595Y727876D01*
G37*
G36*
X59647Y730154D02*
X59948Y730200D01*
X60220Y730278D01*
X60462Y730387D01*
X60680Y730531D01*
X60876Y730713D01*
X61051Y730933D01*
X61204Y731191D01*
X61215Y731191D01*
X61238Y730662D01*
X61271Y730250D01*
X62246Y730250D01*
X62221Y730713D01*
X62212Y731499D01*
X62212Y738560D01*
X61204Y738560D01*
X61204Y736192D01*
X61227Y735335D01*
X61204Y735335D01*
X61053Y735605D01*
X60879Y735835D01*
X60682Y736023D01*
X60462Y736169D01*
X60217Y736279D01*
X59945Y736358D01*
X59645Y736405D01*
X59317Y736421D01*
X59040Y736409D01*
X58781Y736373D01*
X58541Y736312D01*
X58321Y736228D01*
X58119Y736119D01*
X57937Y735986D01*
X57773Y735830D01*
X57629Y735648D01*
X57502Y735443D01*
X57392Y735212D01*
X57299Y734957D01*
X57223Y734677D01*
X57164Y734372D01*
X57122Y734042D01*
X57097Y733687D01*
X57088Y733308D01*
X57097Y732924D01*
X57123Y732565D01*
X57167Y732230D01*
X57228Y731921D01*
X57306Y731636D01*
X57402Y731376D01*
X57515Y731141D01*
X57645Y730930D01*
X57793Y730745D01*
X57959Y730584D01*
X58142Y730448D01*
X58342Y730336D01*
X58560Y730249D01*
X58795Y730188D01*
X59047Y730150D01*
X59317Y730138D01*
X59647Y730154D01*
G37*
G36*
X156424Y730151D02*
X156725Y730189D01*
X157006Y730252D01*
X157267Y730340D01*
X157508Y730454D01*
X157728Y730593D01*
X157928Y730758D01*
X158107Y730947D01*
X158266Y731161D01*
X158404Y731397D01*
X158520Y731655D01*
X158615Y731936D01*
X158689Y732240D01*
X158742Y732566D01*
X158774Y732914D01*
X158785Y733285D01*
X158774Y733665D01*
X158742Y734020D01*
X158689Y734351D01*
X158615Y734657D01*
X158519Y734939D01*
X158403Y735196D01*
X158265Y735429D01*
X158106Y735637D01*
X157925Y735821D01*
X157724Y735980D01*
X157501Y736115D01*
X157257Y736225D01*
X156992Y736311D01*
X156705Y736372D01*
X156398Y736409D01*
X156069Y736421D01*
X155733Y736409D01*
X155420Y736373D01*
X155130Y736314D01*
X154863Y736230D01*
X154619Y736123D01*
X154398Y735991D01*
X154200Y735836D01*
X154025Y735657D01*
X153871Y735453D01*
X153738Y735222D01*
X153625Y734965D01*
X153533Y734682D01*
X153462Y734372D01*
X153410Y734036D01*
X153380Y733674D01*
X153370Y733285D01*
X153380Y732900D01*
X153413Y732541D01*
X153468Y732207D01*
X153545Y731898D01*
X153643Y731614D01*
X153763Y731356D01*
X153905Y731124D01*
X154070Y730916D01*
X154254Y730734D01*
X154459Y730576D01*
X154683Y730442D01*
X154928Y730333D01*
X155192Y730247D01*
X155475Y730187D01*
X155779Y730150D01*
X156102Y730138D01*
X156424Y730151D01*
G37*
G36*
X86388Y730146D02*
X86595Y730168D01*
X86787Y730206D01*
X86966Y730258D01*
X87130Y730326D01*
X87281Y730409D01*
X87417Y730507D01*
X87539Y730620D01*
X87646Y730746D01*
X87740Y730883D01*
X87818Y731031D01*
X87883Y731191D01*
X87933Y731362D01*
X87969Y731544D01*
X87991Y731737D01*
X87998Y731941D01*
X87988Y732170D01*
X87959Y732384D01*
X87911Y732585D01*
X87843Y732773D01*
X87756Y732947D01*
X87650Y733107D01*
X87524Y733253D01*
X87379Y733386D01*
X87212Y733505D01*
X87022Y733609D01*
X86808Y733698D01*
X86571Y733772D01*
X86309Y733832D01*
X86024Y733877D01*
X85715Y733908D01*
X85383Y733924D01*
X84022Y733946D01*
X84022Y734276D01*
X84041Y734620D01*
X84100Y734911D01*
X84198Y735149D01*
X84335Y735335D01*
X84515Y735474D01*
X84739Y735574D01*
X85007Y735634D01*
X85321Y735654D01*
X85637Y735640D01*
X85906Y735597D01*
X86130Y735525D01*
X86307Y735424D01*
X86445Y735292D01*
X86553Y735126D01*
X86630Y734926D01*
X86676Y734691D01*
X87729Y734786D01*
X87689Y734984D01*
X87635Y735169D01*
X87565Y735342D01*
X87481Y735501D01*
X87381Y735648D01*
X87267Y735782D01*
X87137Y735904D01*
X86993Y736012D01*
X86833Y736108D01*
X86659Y736191D01*
X86470Y736261D01*
X86265Y736319D01*
X86046Y736364D01*
X85812Y736396D01*
X85563Y736415D01*
X85299Y736421D01*
X85022Y736413D01*
X84763Y736388D01*
X84521Y736348D01*
X84298Y736290D01*
X84092Y736217D01*
X83903Y736127D01*
X83732Y736020D01*
X83579Y735898D01*
X83444Y735759D01*
X83327Y735607D01*
X83228Y735439D01*
X83147Y735257D01*
X83084Y735060D01*
X83039Y734849D01*
X83012Y734623D01*
X83003Y734383D01*
X83003Y731773D01*
X82995Y731563D01*
X82973Y731380D01*
X82937Y731226D01*
X82885Y731098D01*
X82813Y730999D01*
X82714Y730928D01*
X82589Y730886D01*
X82437Y730872D01*
X82282Y730881D01*
X82107Y730911D01*
X82107Y730284D01*
X82492Y730216D01*
X82885Y730194D01*
X83146Y730212D01*
X83369Y730267D01*
X83553Y730359D01*
X83700Y730488D01*
X83813Y730656D01*
X83899Y730865D01*
X83958Y731116D01*
X83988Y731409D01*
X84022Y731409D01*
X84223Y731087D01*
X84440Y730816D01*
X84672Y730596D01*
X84921Y730426D01*
X85191Y730300D01*
X85488Y730210D01*
X85814Y730156D01*
X86167Y730138D01*
X86388Y730146D01*
G37*
G36*
X113794Y730146D02*
X114001Y730168D01*
X114194Y730206D01*
X114372Y730258D01*
X114537Y730326D01*
X114687Y730409D01*
X114823Y730507D01*
X114945Y730620D01*
X115053Y730746D01*
X115146Y730883D01*
X115225Y731031D01*
X115289Y731191D01*
X115340Y731362D01*
X115375Y731544D01*
X115397Y731737D01*
X115404Y731941D01*
X115394Y732170D01*
X115365Y732384D01*
X115317Y732585D01*
X115249Y732773D01*
X115162Y732947D01*
X115056Y733107D01*
X114930Y733253D01*
X114785Y733386D01*
X114619Y733505D01*
X114428Y733609D01*
X114214Y733698D01*
X113977Y733772D01*
X113715Y733832D01*
X113430Y733877D01*
X113121Y733908D01*
X112789Y733924D01*
X111428Y733946D01*
X111428Y734276D01*
X111448Y734620D01*
X111507Y734911D01*
X111604Y735149D01*
X111742Y735335D01*
X111921Y735474D01*
X112145Y735574D01*
X112414Y735634D01*
X112727Y735654D01*
X113043Y735640D01*
X113312Y735597D01*
X113536Y735525D01*
X113713Y735424D01*
X113851Y735292D01*
X113959Y735126D01*
X114036Y734926D01*
X114082Y734691D01*
X115135Y734786D01*
X115096Y734984D01*
X115041Y735169D01*
X114971Y735342D01*
X114887Y735501D01*
X114787Y735648D01*
X114673Y735782D01*
X114543Y735904D01*
X114399Y736012D01*
X114240Y736108D01*
X114065Y736191D01*
X113876Y736261D01*
X113672Y736319D01*
X113452Y736364D01*
X113218Y736396D01*
X112969Y736415D01*
X112705Y736421D01*
X112428Y736413D01*
X112169Y736388D01*
X111928Y736348D01*
X111704Y736290D01*
X111498Y736217D01*
X111309Y736127D01*
X111139Y736020D01*
X110986Y735898D01*
X110851Y735759D01*
X110733Y735607D01*
X110634Y735439D01*
X110553Y735257D01*
X110490Y735060D01*
X110445Y734849D01*
X110418Y734623D01*
X110409Y734383D01*
X110409Y731773D01*
X110402Y731563D01*
X110380Y731380D01*
X110343Y731226D01*
X110291Y731098D01*
X110219Y730999D01*
X110121Y730928D01*
X109995Y730886D01*
X109843Y730872D01*
X109688Y730881D01*
X109513Y730911D01*
X109513Y730284D01*
X109898Y730216D01*
X110291Y730194D01*
X110552Y730212D01*
X110775Y730267D01*
X110960Y730359D01*
X111106Y730488D01*
X111220Y730656D01*
X111306Y730865D01*
X111364Y731116D01*
X111395Y731409D01*
X111428Y731409D01*
X111629Y731087D01*
X111846Y730816D01*
X112079Y730596D01*
X112327Y730426D01*
X112597Y730300D01*
X112895Y730210D01*
X113220Y730156D01*
X113573Y730138D01*
X113794Y730146D01*
G37*
G36*
X126591Y734092D02*
X126606Y734497D01*
X126651Y734835D01*
X126726Y735105D01*
X126831Y735307D01*
X126976Y735454D01*
X127169Y735559D01*
X127410Y735622D01*
X127699Y735643D01*
X127860Y735635D01*
X128011Y735612D01*
X128154Y735574D01*
X128287Y735520D01*
X128410Y735451D01*
X128525Y735367D01*
X128631Y735268D01*
X128727Y735153D01*
X128813Y735024D01*
X128887Y734882D01*
X128950Y734727D01*
X129002Y734560D01*
X129071Y734186D01*
X129094Y733761D01*
X129094Y730250D01*
X130090Y730250D01*
X130090Y734092D01*
X130106Y734497D01*
X130151Y734835D01*
X130226Y735105D01*
X130331Y735307D01*
X130476Y735454D01*
X130669Y735559D01*
X130910Y735622D01*
X131199Y735643D01*
X131356Y735635D01*
X131504Y735612D01*
X131644Y735573D01*
X131776Y735520D01*
X131899Y735450D01*
X132014Y735366D01*
X132120Y735265D01*
X132218Y735150D01*
X132306Y735020D01*
X132383Y734878D01*
X132447Y734724D01*
X132500Y734556D01*
X132541Y734376D01*
X132570Y734184D01*
X132588Y733979D01*
X132594Y733761D01*
X132594Y730250D01*
X133596Y730250D01*
X133596Y735016D01*
X133604Y735868D01*
X133630Y736309D01*
X132678Y736309D01*
X132666Y736158D01*
X132652Y735875D01*
X132633Y735273D01*
X132616Y735273D01*
X132448Y735571D01*
X132267Y735819D01*
X132075Y736019D01*
X131871Y736169D01*
X131650Y736279D01*
X131405Y736358D01*
X131137Y736405D01*
X130846Y736421D01*
X130520Y736404D01*
X130230Y736353D01*
X129976Y736267D01*
X129757Y736147D01*
X129572Y735989D01*
X129418Y735791D01*
X129294Y735552D01*
X129200Y735273D01*
X129183Y735273D01*
X129018Y735557D01*
X128837Y735798D01*
X128639Y735997D01*
X128425Y736152D01*
X128190Y736270D01*
X127932Y736354D01*
X127651Y736404D01*
X127347Y736421D01*
X127125Y736413D01*
X126919Y736390D01*
X126728Y736351D01*
X126553Y736297D01*
X126394Y736226D01*
X126251Y736141D01*
X126123Y736040D01*
X126011Y735923D01*
X125913Y735788D01*
X125828Y735634D01*
X125757Y735459D01*
X125698Y735265D01*
X125652Y735050D01*
X125620Y734816D01*
X125600Y734562D01*
X125594Y734288D01*
X125594Y730250D01*
X126591Y730250D01*
X126591Y734092D01*
G37*
G36*
X72824Y730151D02*
X73130Y730188D01*
X73416Y730251D01*
X73682Y730338D01*
X73928Y730451D01*
X74154Y730588D01*
X74359Y730751D01*
X74545Y730939D01*
X74710Y731151D01*
X74853Y731388D01*
X74973Y731649D01*
X75072Y731934D01*
X75149Y732244D01*
X75204Y732578D01*
X75237Y732936D01*
X75248Y733319D01*
X75237Y733683D01*
X75204Y734025D01*
X75149Y734346D01*
X75072Y734645D01*
X74973Y734921D01*
X74853Y735176D01*
X74710Y735409D01*
X74545Y735620D01*
X74360Y735808D01*
X74156Y735971D01*
X73933Y736108D01*
X73692Y736221D01*
X73431Y736309D01*
X73152Y736371D01*
X72854Y736409D01*
X72537Y736421D01*
X72214Y736409D01*
X71911Y736371D01*
X71630Y736308D01*
X71369Y736220D01*
X71129Y736107D01*
X70910Y735968D01*
X70711Y735805D01*
X70534Y735616D01*
X70378Y735402D01*
X70242Y735163D01*
X70127Y734899D01*
X70033Y734610D01*
X69960Y734295D01*
X69908Y733956D01*
X69877Y733591D01*
X69866Y733201D01*
X69866Y733067D01*
X74189Y733067D01*
X74183Y732814D01*
X74162Y732576D01*
X74129Y732353D01*
X74082Y732144D01*
X74021Y731951D01*
X73947Y731772D01*
X73859Y731608D01*
X73758Y731460D01*
X73644Y731327D01*
X73518Y731212D01*
X73379Y731115D01*
X73228Y731035D01*
X73064Y730974D01*
X72888Y730929D01*
X72699Y730903D01*
X72498Y730894D01*
X72187Y730910D01*
X71908Y730960D01*
X71662Y731042D01*
X71448Y731157D01*
X71267Y731298D01*
X71117Y731455D01*
X70999Y731631D01*
X70913Y731824D01*
X70029Y731572D01*
X70186Y731236D01*
X70387Y730944D01*
X70631Y730698D01*
X70918Y730496D01*
X71248Y730340D01*
X71621Y730228D01*
X72038Y730160D01*
X72498Y730138D01*
X72824Y730151D01*
G37*
G36*
X137855Y730151D02*
X138161Y730188D01*
X138447Y730251D01*
X138713Y730338D01*
X138959Y730451D01*
X139185Y730588D01*
X139391Y730751D01*
X139576Y730939D01*
X139741Y731151D01*
X139884Y731388D01*
X140005Y731649D01*
X140103Y731934D01*
X140180Y732244D01*
X140235Y732578D01*
X140268Y732936D01*
X140279Y733319D01*
X140268Y733683D01*
X140235Y734025D01*
X140180Y734346D01*
X140103Y734645D01*
X140005Y734921D01*
X139884Y735176D01*
X139741Y735409D01*
X139576Y735620D01*
X139391Y735808D01*
X139187Y735971D01*
X138965Y736108D01*
X138723Y736221D01*
X138463Y736309D01*
X138183Y736371D01*
X137885Y736409D01*
X137569Y736421D01*
X137245Y736409D01*
X136943Y736371D01*
X136661Y736308D01*
X136400Y736220D01*
X136160Y736107D01*
X135941Y735968D01*
X135743Y735805D01*
X135565Y735616D01*
X135409Y735402D01*
X135273Y735163D01*
X135158Y734899D01*
X135064Y734610D01*
X134991Y734295D01*
X134939Y733956D01*
X134908Y733591D01*
X134898Y733201D01*
X134898Y733067D01*
X139221Y733067D01*
X139214Y732814D01*
X139194Y732576D01*
X139160Y732353D01*
X139113Y732144D01*
X139052Y731951D01*
X138978Y731772D01*
X138891Y731608D01*
X138789Y731460D01*
X138675Y731327D01*
X138549Y731212D01*
X138410Y731115D01*
X138259Y731035D01*
X138095Y730974D01*
X137919Y730929D01*
X137730Y730903D01*
X137529Y730894D01*
X137218Y730910D01*
X136939Y730960D01*
X136693Y731042D01*
X136479Y731157D01*
X136298Y731298D01*
X136148Y731455D01*
X136031Y731631D01*
X135945Y731824D01*
X135060Y731572D01*
X135217Y731236D01*
X135418Y730944D01*
X135662Y730698D01*
X135949Y730496D01*
X136279Y730340D01*
X136653Y730228D01*
X137070Y730160D01*
X137529Y730138D01*
X137855Y730151D01*
G37*
G36*
X96913Y734058D02*
X97943Y733274D01*
X97943Y730250D01*
X99013Y730250D01*
X99013Y738140D01*
X97943Y738140D01*
X97943Y734187D01*
X94141Y738140D01*
X92881Y738140D01*
X96241Y734713D01*
X92433Y730250D01*
X93760Y730250D01*
X96913Y734058D01*
G37*
G36*
X142521Y734092D02*
X142529Y734390D01*
X142551Y734648D01*
X142587Y734865D01*
X142639Y735041D01*
X142707Y735186D01*
X142794Y735310D01*
X142900Y735414D01*
X143025Y735497D01*
X143173Y735561D01*
X143346Y735606D01*
X143545Y735634D01*
X143770Y735643D01*
X143943Y735635D01*
X144108Y735612D01*
X144264Y735573D01*
X144411Y735520D01*
X144549Y735450D01*
X144678Y735366D01*
X144798Y735265D01*
X144910Y735150D01*
X145010Y735021D01*
X145097Y734882D01*
X145171Y734732D01*
X145231Y734572D01*
X145278Y734401D01*
X145311Y734219D01*
X145331Y734026D01*
X145338Y733823D01*
X145338Y730250D01*
X146346Y730250D01*
X146346Y738560D01*
X145338Y738560D01*
X145338Y736399D01*
X145358Y735693D01*
X145383Y735273D01*
X145366Y735273D01*
X145195Y735550D01*
X145008Y735788D01*
X144805Y735986D01*
X144585Y736144D01*
X144341Y736265D01*
X144068Y736352D01*
X143763Y736404D01*
X143428Y736421D01*
X143190Y736414D01*
X142968Y736391D01*
X142762Y736352D01*
X142572Y736299D01*
X142399Y736230D01*
X142241Y736146D01*
X142100Y736046D01*
X141975Y735931D01*
X141866Y735798D01*
X141771Y735645D01*
X141690Y735470D01*
X141625Y735275D01*
X141573Y735059D01*
X141537Y734823D01*
X141515Y734566D01*
X141508Y734288D01*
X141508Y730250D01*
X142521Y730250D01*
X142521Y734092D01*
G37*
G36*
X173265Y727885D02*
X173579Y727932D01*
X173579Y728688D01*
X173355Y728662D01*
X173108Y728654D01*
X172879Y728676D01*
X172662Y728740D01*
X172458Y728849D01*
X172265Y729000D01*
X172085Y729194D01*
X171917Y729432D01*
X171762Y729713D01*
X171619Y730037D01*
X171523Y730278D01*
X173926Y736309D01*
X172851Y736309D01*
X171574Y732960D01*
X171507Y732773D01*
X171255Y732042D01*
X171025Y731348D01*
X170633Y732451D01*
X169306Y736309D01*
X168242Y736309D01*
X170571Y730250D01*
X170756Y729797D01*
X170934Y729405D01*
X171106Y729076D01*
X171271Y728808D01*
X171438Y728586D01*
X171614Y728395D01*
X171798Y728234D01*
X171991Y728102D01*
X172195Y728001D01*
X172412Y727928D01*
X172641Y727885D01*
X172884Y727870D01*
X173265Y727885D01*
G37*
G36*
X64740Y734092D02*
X64747Y734374D01*
X64769Y734624D01*
X64806Y734839D01*
X64858Y735021D01*
X64925Y735175D01*
X65010Y735305D01*
X65113Y735413D01*
X65233Y735497D01*
X65377Y735561D01*
X65551Y735606D01*
X65755Y735634D01*
X65989Y735643D01*
X66166Y735635D01*
X66334Y735612D01*
X66492Y735573D01*
X66640Y735518D01*
X66779Y735448D01*
X66908Y735362D01*
X67027Y735261D01*
X67137Y735144D01*
X67235Y735014D01*
X67321Y734871D01*
X67393Y734716D01*
X67452Y734549D01*
X67498Y734370D01*
X67531Y734179D01*
X67550Y733976D01*
X67557Y733761D01*
X67557Y730250D01*
X68565Y730250D01*
X68565Y735016D01*
X68573Y735868D01*
X68598Y736309D01*
X67646Y736309D01*
X67635Y736158D01*
X67621Y735875D01*
X67602Y735273D01*
X67585Y735273D01*
X67404Y735564D01*
X67210Y735809D01*
X67003Y736008D01*
X66781Y736161D01*
X66539Y736275D01*
X66270Y736356D01*
X65972Y736405D01*
X65647Y736421D01*
X65406Y736413D01*
X65182Y736390D01*
X64975Y736351D01*
X64784Y736297D01*
X64610Y736228D01*
X64453Y736142D01*
X64312Y736042D01*
X64188Y735926D01*
X64080Y735792D01*
X63986Y735637D01*
X63907Y735463D01*
X63842Y735268D01*
X63791Y735053D01*
X63755Y734818D01*
X63734Y734563D01*
X63726Y734288D01*
X63726Y730250D01*
X64740Y730250D01*
X64740Y734092D01*
G37*
G36*
X77490Y734092D02*
X77497Y734374D01*
X77519Y734624D01*
X77556Y734839D01*
X77608Y735021D01*
X77675Y735175D01*
X77760Y735305D01*
X77863Y735413D01*
X77983Y735497D01*
X78127Y735561D01*
X78301Y735606D01*
X78505Y735634D01*
X78739Y735643D01*
X78916Y735635D01*
X79084Y735612D01*
X79242Y735573D01*
X79390Y735518D01*
X79529Y735448D01*
X79658Y735362D01*
X79777Y735261D01*
X79887Y735144D01*
X79985Y735014D01*
X80071Y734871D01*
X80143Y734716D01*
X80202Y734549D01*
X80248Y734370D01*
X80281Y734179D01*
X80300Y733976D01*
X80307Y733761D01*
X80307Y730250D01*
X81315Y730250D01*
X81315Y735016D01*
X81323Y735868D01*
X81348Y736309D01*
X80396Y736309D01*
X80385Y736158D01*
X80371Y735875D01*
X80352Y735273D01*
X80335Y735273D01*
X80154Y735564D01*
X79960Y735809D01*
X79753Y736008D01*
X79531Y736161D01*
X79289Y736275D01*
X79020Y736356D01*
X78722Y736405D01*
X78397Y736421D01*
X78156Y736413D01*
X77932Y736390D01*
X77725Y736351D01*
X77534Y736297D01*
X77360Y736228D01*
X77203Y736142D01*
X77062Y736042D01*
X76938Y735926D01*
X76830Y735792D01*
X76736Y735637D01*
X76657Y735463D01*
X76592Y735268D01*
X76541Y735053D01*
X76505Y734818D01*
X76484Y734563D01*
X76476Y734288D01*
X76476Y730250D01*
X77490Y730250D01*
X77490Y734092D01*
G37*
G36*
X104896Y734092D02*
X104904Y734374D01*
X104926Y734624D01*
X104962Y734839D01*
X105014Y735021D01*
X105081Y735175D01*
X105167Y735305D01*
X105269Y735413D01*
X105389Y735497D01*
X105533Y735561D01*
X105707Y735606D01*
X105911Y735634D01*
X106145Y735643D01*
X106322Y735635D01*
X106490Y735612D01*
X106648Y735573D01*
X106796Y735518D01*
X106935Y735448D01*
X107064Y735362D01*
X107183Y735261D01*
X107293Y735144D01*
X107392Y735014D01*
X107477Y734871D01*
X107549Y734716D01*
X107608Y734549D01*
X107654Y734370D01*
X107687Y734179D01*
X107707Y733976D01*
X107713Y733761D01*
X107713Y730250D01*
X108721Y730250D01*
X108721Y735016D01*
X108729Y735868D01*
X108755Y736309D01*
X107803Y736309D01*
X107791Y736158D01*
X107777Y735875D01*
X107758Y735273D01*
X107741Y735273D01*
X107561Y735564D01*
X107367Y735809D01*
X107159Y736008D01*
X106937Y736161D01*
X106695Y736275D01*
X106426Y736356D01*
X106128Y736405D01*
X105803Y736421D01*
X105563Y736413D01*
X105339Y736390D01*
X105131Y736351D01*
X104940Y736297D01*
X104766Y736228D01*
X104609Y736142D01*
X104469Y736042D01*
X104345Y735926D01*
X104236Y735792D01*
X104143Y735637D01*
X104063Y735463D01*
X103998Y735268D01*
X103948Y735053D01*
X103912Y734818D01*
X103890Y734563D01*
X103883Y734288D01*
X103883Y730250D01*
X104896Y730250D01*
X104896Y734092D01*
G37*
G36*
X54185Y730146D02*
X54409Y730169D01*
X54617Y730208D01*
X54808Y730262D01*
X54982Y730332D01*
X55139Y730417D01*
X55279Y730517D01*
X55403Y730634D01*
X55512Y730768D01*
X55605Y730922D01*
X55685Y731096D01*
X55750Y731291D01*
X55800Y731506D01*
X55836Y731741D01*
X55858Y731996D01*
X55865Y732272D01*
X55865Y736309D01*
X54852Y736309D01*
X54852Y732468D01*
X54844Y732185D01*
X54822Y731936D01*
X54785Y731720D01*
X54734Y731538D01*
X54666Y731384D01*
X54581Y731254D01*
X54479Y731146D01*
X54359Y731062D01*
X54215Y730998D01*
X54041Y730953D01*
X53837Y730925D01*
X53603Y730916D01*
X53426Y730924D01*
X53258Y730948D01*
X53100Y730986D01*
X52952Y731041D01*
X52813Y731111D01*
X52684Y731197D01*
X52565Y731298D01*
X52455Y731415D01*
X52356Y731545D01*
X52271Y731688D01*
X52199Y731843D01*
X52140Y732010D01*
X52094Y732189D01*
X52061Y732380D01*
X52041Y732583D01*
X52035Y732798D01*
X52035Y736309D01*
X51027Y736309D01*
X51027Y731544D01*
X51018Y730691D01*
X50993Y730250D01*
X51945Y730250D01*
X51956Y730401D01*
X51970Y730684D01*
X51990Y731286D01*
X52007Y731286D01*
X52187Y730995D01*
X52381Y730750D01*
X52589Y730552D01*
X52810Y730398D01*
X53052Y730284D01*
X53322Y730203D01*
X53619Y730154D01*
X53944Y730138D01*
X54185Y730146D01*
G37*
%LPC*%
G36*
X155895Y730892D02*
X155692Y730919D01*
X155506Y730965D01*
X155336Y731028D01*
X155182Y731110D01*
X155044Y731210D01*
X154922Y731329D01*
X154817Y731465D01*
X154726Y731621D01*
X154647Y731797D01*
X154580Y731994D01*
X154525Y732211D01*
X154483Y732449D01*
X154452Y732707D01*
X154434Y732986D01*
X154428Y733285D01*
X154434Y733588D01*
X154451Y733870D01*
X154480Y734130D01*
X154521Y734368D01*
X154573Y734585D01*
X154637Y734781D01*
X154713Y734955D01*
X154800Y735108D01*
X154901Y735241D01*
X155018Y735357D01*
X155151Y735454D01*
X155299Y735534D01*
X155464Y735596D01*
X155644Y735641D01*
X155840Y735667D01*
X156052Y735676D01*
X156265Y735667D01*
X156464Y735640D01*
X156647Y735595D01*
X156814Y735531D01*
X156966Y735450D01*
X157103Y735350D01*
X157225Y735233D01*
X157331Y735097D01*
X157424Y734942D01*
X157504Y734766D01*
X157572Y734570D01*
X157628Y734354D01*
X157671Y734117D01*
X157702Y733860D01*
X157720Y733583D01*
X157726Y733285D01*
X157720Y732995D01*
X157702Y732723D01*
X157672Y732470D01*
X157629Y732236D01*
X157574Y732020D01*
X157507Y731823D01*
X157428Y731645D01*
X157337Y731485D01*
X157233Y731344D01*
X157115Y731221D01*
X156983Y731118D01*
X156837Y731033D01*
X156677Y730967D01*
X156503Y730920D01*
X156315Y730892D01*
X156113Y730883D01*
X155895Y730892D01*
G37*
%LPD*%
G36*
X162701Y730146D02*
X162933Y730170D01*
X163152Y730211D01*
X163358Y730267D01*
X163551Y730340D01*
X163732Y730429D01*
X163899Y730535D01*
X164054Y730656D01*
X164197Y730794D01*
X164327Y730947D01*
X164443Y731117D01*
X164548Y731303D01*
X164639Y731506D01*
X164718Y731724D01*
X164784Y731959D01*
X164837Y732210D01*
X163790Y732384D01*
X163724Y732077D01*
X163626Y731805D01*
X163497Y731570D01*
X163336Y731370D01*
X163149Y731211D01*
X162939Y731097D01*
X162706Y731029D01*
X162451Y731006D01*
X162310Y731012D01*
X162176Y731031D01*
X161931Y731106D01*
X161716Y731231D01*
X161533Y731406D01*
X161386Y731630D01*
X161281Y731900D01*
X161218Y732216D01*
X161197Y732580D01*
X161197Y737267D01*
X162715Y737267D01*
X162715Y738140D01*
X160133Y738140D01*
X160133Y732602D01*
X160143Y732323D01*
X160172Y732059D01*
X160221Y731810D01*
X160289Y731576D01*
X160376Y731358D01*
X160483Y731156D01*
X160609Y730968D01*
X160755Y730796D01*
X160917Y730642D01*
X161094Y730508D01*
X161285Y730395D01*
X161491Y730302D01*
X161711Y730231D01*
X161945Y730179D01*
X162194Y730148D01*
X162457Y730138D01*
X162701Y730146D01*
G37*
%LPC*%
G36*
X59402Y730892D02*
X59231Y730918D01*
X59074Y730962D01*
X58930Y731023D01*
X58799Y731103D01*
X58681Y731199D01*
X58577Y731314D01*
X58485Y731446D01*
X58406Y731597D01*
X58337Y731771D01*
X58279Y731967D01*
X58231Y732184D01*
X58194Y732424D01*
X58168Y732685D01*
X58147Y733274D01*
X58168Y733864D01*
X58194Y734126D01*
X58231Y734365D01*
X58278Y734581D01*
X58336Y734774D01*
X58404Y734945D01*
X58483Y735094D01*
X58573Y735223D01*
X58677Y735334D01*
X58794Y735428D01*
X58924Y735506D01*
X59067Y735566D01*
X59223Y735608D01*
X59392Y735634D01*
X59575Y735643D01*
X59780Y735634D01*
X59971Y735606D01*
X60148Y735561D01*
X60310Y735497D01*
X60458Y735415D01*
X60592Y735315D01*
X60711Y735197D01*
X60815Y735060D01*
X60906Y734904D01*
X60985Y734726D01*
X61052Y734528D01*
X61107Y734307D01*
X61150Y734066D01*
X61180Y733802D01*
X61198Y733518D01*
X61204Y733212D01*
X61198Y732924D01*
X61180Y732655D01*
X61151Y732406D01*
X61109Y732176D01*
X61055Y731965D01*
X60990Y731774D01*
X60913Y731603D01*
X60823Y731451D01*
X60721Y731318D01*
X60603Y731203D01*
X60471Y731105D01*
X60324Y731025D01*
X60162Y730963D01*
X59984Y730918D01*
X59793Y730892D01*
X59586Y730883D01*
X59402Y730892D01*
G37*
%LPD*%
G36*
X150103Y730151D02*
X150392Y730188D01*
X150663Y730251D01*
X150915Y730339D01*
X151148Y730452D01*
X151363Y730590D01*
X151558Y730753D01*
X151735Y730942D01*
X151892Y731154D01*
X152028Y731389D01*
X152143Y731648D01*
X152237Y731929D01*
X152310Y732234D01*
X152362Y732561D01*
X152394Y732912D01*
X152404Y733285D01*
X152394Y733656D01*
X152362Y734004D01*
X152310Y734330D01*
X152236Y734633D01*
X152142Y734913D01*
X152026Y735170D01*
X151890Y735405D01*
X151732Y735618D01*
X151555Y735806D01*
X151360Y735969D01*
X151146Y736107D01*
X150914Y736220D01*
X150665Y736308D01*
X150396Y736371D01*
X150110Y736409D01*
X149806Y736421D01*
X149578Y736414D01*
X149361Y736391D01*
X149153Y736353D01*
X148955Y736301D01*
X148767Y736233D01*
X148589Y736150D01*
X148421Y736052D01*
X148263Y735940D01*
X148117Y735813D01*
X147985Y735676D01*
X147867Y735527D01*
X147764Y735367D01*
X147675Y735195D01*
X147600Y735012D01*
X147539Y734818D01*
X147493Y734612D01*
X148529Y734534D01*
X148583Y734773D01*
X148667Y734986D01*
X148782Y735173D01*
X148926Y735335D01*
X149103Y735465D01*
X149313Y735557D01*
X149556Y735613D01*
X149834Y735632D01*
X150027Y735623D01*
X150206Y735598D01*
X150372Y735557D01*
X150524Y735499D01*
X150662Y735424D01*
X150786Y735332D01*
X150896Y735224D01*
X150993Y735100D01*
X151077Y734955D01*
X151150Y734788D01*
X151211Y734598D01*
X151262Y734386D01*
X151301Y734150D01*
X151329Y733892D01*
X151351Y733308D01*
X151345Y733015D01*
X151327Y732742D01*
X151298Y732489D01*
X151256Y732255D01*
X151203Y732041D01*
X151137Y731846D01*
X151060Y731671D01*
X150970Y731516D01*
X150869Y731379D01*
X150756Y731261D01*
X150631Y731161D01*
X150493Y731079D01*
X150344Y731015D01*
X150182Y730970D01*
X150008Y730942D01*
X149822Y730933D01*
X149565Y730951D01*
X149329Y731006D01*
X149115Y731097D01*
X148924Y731224D01*
X148760Y731390D01*
X148632Y731594D01*
X148538Y731838D01*
X148479Y732120D01*
X147459Y732053D01*
X147497Y731840D01*
X147550Y731638D01*
X147619Y731448D01*
X147704Y731268D01*
X147805Y731099D01*
X147922Y730941D01*
X148055Y730795D01*
X148204Y730659D01*
X148366Y730537D01*
X148539Y730431D01*
X148722Y730341D01*
X148915Y730268D01*
X149119Y730211D01*
X149334Y730171D01*
X149559Y730146D01*
X149794Y730138D01*
X150103Y730151D01*
G37*
%LPC*%
G36*
X43206Y730967D02*
X42988Y731020D01*
X42784Y731107D01*
X42592Y731230D01*
X42418Y731385D01*
X42325Y731498D01*
X42265Y731571D01*
X42132Y731787D01*
X42021Y732034D01*
X41933Y732308D01*
X41870Y732607D01*
X41832Y732931D01*
X41819Y733280D01*
X41832Y733636D01*
X41870Y733968D01*
X41933Y734273D01*
X42021Y734554D01*
X42132Y734805D01*
X42264Y735025D01*
X42416Y735214D01*
X42589Y735371D01*
X42779Y735495D01*
X42981Y735583D01*
X43195Y735636D01*
X43421Y735654D01*
X43608Y735645D01*
X43781Y735619D01*
X43941Y735575D01*
X44089Y735514D01*
X44223Y735435D01*
X44344Y735339D01*
X44452Y735225D01*
X44547Y735094D01*
X44629Y734943D01*
X44701Y734771D01*
X44762Y734576D01*
X44811Y734360D01*
X44850Y734123D01*
X44877Y733863D01*
X44899Y733280D01*
X44879Y732702D01*
X44817Y732211D01*
X44770Y731999D01*
X44713Y731809D01*
X44646Y731640D01*
X44569Y731493D01*
X44479Y731366D01*
X44374Y731256D01*
X44255Y731162D01*
X44121Y731086D01*
X43972Y731026D01*
X43809Y730984D01*
X43631Y730958D01*
X43438Y730950D01*
X43206Y730967D01*
G37*
%LPD*%
G36*
X121602Y736309D02*
X120527Y736309D01*
X119194Y732367D01*
X118808Y731040D01*
X118612Y731695D01*
X118393Y732356D01*
X117016Y736309D01*
X115946Y736309D01*
X118208Y730250D01*
X119401Y730250D01*
X121602Y736309D01*
G37*
%LPC*%
G36*
X177522Y731107D02*
X177065Y731130D01*
X176862Y731158D01*
X176675Y731198D01*
X176505Y731249D01*
X176351Y731312D01*
X176214Y731385D01*
X176094Y731471D01*
X175989Y731567D01*
X175898Y731675D01*
X175821Y731794D01*
X175758Y731924D01*
X175709Y732066D01*
X175674Y732218D01*
X175653Y732382D01*
X175646Y732557D01*
X175654Y732726D01*
X175677Y732884D01*
X175715Y733031D01*
X175769Y733167D01*
X175837Y733293D01*
X175922Y733407D01*
X176021Y733510D01*
X176136Y733603D01*
X176266Y733685D01*
X176412Y733755D01*
X176572Y733815D01*
X176749Y733864D01*
X177147Y733930D01*
X177606Y733952D01*
X179600Y733952D01*
X179600Y731107D01*
X177522Y731107D01*
G37*
G36*
X177802Y734786D02*
X177401Y734806D01*
X177054Y734866D01*
X176761Y734967D01*
X176522Y735108D01*
X176423Y735194D01*
X176337Y735291D01*
X176265Y735398D01*
X176205Y735516D01*
X176159Y735645D01*
X176126Y735785D01*
X176106Y735935D01*
X176100Y736096D01*
X176106Y736250D01*
X176127Y736393D01*
X176161Y736524D01*
X176209Y736644D01*
X176270Y736752D01*
X176345Y736849D01*
X176434Y736935D01*
X176536Y737009D01*
X176779Y737129D01*
X177071Y737215D01*
X177412Y737266D01*
X177802Y737284D01*
X179600Y737284D01*
X179600Y734786D01*
X177802Y734786D01*
G37*
%LPD*%
G36*
X49440Y734898D02*
X49448Y735570D01*
X49473Y736309D01*
X48521Y736309D01*
X48477Y735072D01*
X48454Y735072D01*
X48329Y735430D01*
X48195Y735727D01*
X48052Y735962D01*
X47900Y736136D01*
X47727Y736261D01*
X47522Y736350D01*
X47285Y736403D01*
X47015Y736421D01*
X46812Y736407D01*
X46606Y736365D01*
X46606Y735441D01*
X46841Y735483D01*
X47144Y735497D01*
X47296Y735489D01*
X47439Y735463D01*
X47573Y735421D01*
X47697Y735362D01*
X47812Y735286D01*
X47918Y735193D01*
X48014Y735083D01*
X48101Y734957D01*
X48179Y734814D01*
X48246Y734657D01*
X48349Y734299D01*
X48411Y733883D01*
X48432Y733408D01*
X48432Y730250D01*
X49440Y730250D01*
X49440Y734898D01*
G37*
G36*
X91502Y734898D02*
X91511Y735570D01*
X91536Y736309D01*
X90584Y736309D01*
X90539Y735072D01*
X90517Y735072D01*
X90392Y735430D01*
X90258Y735727D01*
X90115Y735962D01*
X89962Y736136D01*
X89789Y736261D01*
X89584Y736350D01*
X89347Y736403D01*
X89078Y736421D01*
X88875Y736407D01*
X88669Y736365D01*
X88669Y735441D01*
X88904Y735483D01*
X89206Y735497D01*
X89359Y735489D01*
X89501Y735463D01*
X89635Y735421D01*
X89759Y735362D01*
X89874Y735286D01*
X89980Y735193D01*
X90077Y735083D01*
X90164Y734957D01*
X90241Y734814D01*
X90308Y734657D01*
X90412Y734299D01*
X90474Y733883D01*
X90494Y733408D01*
X90494Y730250D01*
X91502Y730250D01*
X91502Y734898D01*
G37*
%LPC*%
G36*
X85668Y730910D02*
X85413Y730957D01*
X85175Y731036D01*
X84951Y731146D01*
X84747Y731284D01*
X84566Y731445D01*
X84407Y731630D01*
X84271Y731838D01*
X84162Y732059D01*
X84084Y732283D01*
X84037Y732511D01*
X84022Y732742D01*
X84022Y733240D01*
X85125Y733218D01*
X85459Y733205D01*
X85750Y733176D01*
X85998Y733132D01*
X86203Y733072D01*
X86376Y732996D01*
X86527Y732902D01*
X86657Y732789D01*
X86766Y732658D01*
X86852Y732507D01*
X86913Y732335D01*
X86950Y732140D01*
X86962Y731924D01*
X86945Y731692D01*
X86895Y731488D01*
X86812Y731311D01*
X86696Y731163D01*
X86549Y731045D01*
X86373Y730961D01*
X86169Y730911D01*
X85937Y730894D01*
X85668Y730910D01*
G37*
G36*
X113074Y730910D02*
X112820Y730957D01*
X112581Y731036D01*
X112358Y731146D01*
X112153Y731284D01*
X111972Y731445D01*
X111813Y731630D01*
X111677Y731838D01*
X111568Y732059D01*
X111490Y732283D01*
X111444Y732511D01*
X111428Y732742D01*
X111428Y733240D01*
X112531Y733218D01*
X112865Y733205D01*
X113156Y733176D01*
X113404Y733132D01*
X113609Y733072D01*
X113782Y732996D01*
X113933Y732902D01*
X114063Y732789D01*
X114172Y732658D01*
X114258Y732507D01*
X114319Y732335D01*
X114356Y732140D01*
X114368Y731924D01*
X114351Y731692D01*
X114302Y731488D01*
X114218Y731311D01*
X114102Y731163D01*
X113955Y731045D01*
X113779Y730961D01*
X113576Y730911D01*
X113343Y730894D01*
X113074Y730910D01*
G37*
G36*
X70908Y733840D02*
X70970Y734286D01*
X71072Y734668D01*
X71138Y734834D01*
X71213Y734985D01*
X71299Y735119D01*
X71395Y735237D01*
X71501Y735340D01*
X71619Y735429D01*
X71747Y735505D01*
X71886Y735566D01*
X72037Y735615D01*
X72198Y735649D01*
X72371Y735670D01*
X72554Y735676D01*
X72733Y735669D01*
X72902Y735646D01*
X73062Y735607D01*
X73212Y735554D01*
X73352Y735485D01*
X73483Y735401D01*
X73604Y735301D01*
X73716Y735186D01*
X73817Y735058D01*
X73906Y734918D01*
X73982Y734767D01*
X74046Y734605D01*
X74098Y734431D01*
X74137Y734245D01*
X74164Y734048D01*
X74178Y733840D01*
X70908Y733840D01*
G37*
G36*
X135939Y733840D02*
X136001Y734286D01*
X136103Y734668D01*
X136169Y734834D01*
X136245Y734985D01*
X136330Y735119D01*
X136426Y735237D01*
X136533Y735340D01*
X136650Y735429D01*
X136778Y735505D01*
X136918Y735566D01*
X137068Y735615D01*
X137230Y735649D01*
X137402Y735670D01*
X137585Y735676D01*
X137764Y735669D01*
X137933Y735646D01*
X138093Y735607D01*
X138243Y735554D01*
X138383Y735485D01*
X138514Y735401D01*
X138636Y735301D01*
X138747Y735186D01*
X138848Y735058D01*
X138937Y734918D01*
X139013Y734767D01*
X139077Y734605D01*
X139129Y734431D01*
X139168Y734245D01*
X139195Y734048D01*
X139209Y733840D01*
X135939Y733840D01*
G37*
%LPD*%
G36*
X298924Y889044D02*
X302769Y889044D01*
X302769Y883920D01*
X304442Y883920D01*
X304442Y896261D01*
X298635Y896261D01*
X298129Y896246D01*
X297652Y896202D01*
X297205Y896130D01*
X296788Y896028D01*
X296400Y895896D01*
X296043Y895736D01*
X295714Y895547D01*
X295416Y895328D01*
X295150Y895083D01*
X294920Y894816D01*
X294725Y894526D01*
X294565Y894212D01*
X294441Y893876D01*
X294353Y893517D01*
X294300Y893136D01*
X294282Y892731D01*
X294294Y892394D01*
X294332Y892071D01*
X294395Y891761D01*
X294482Y891465D01*
X294595Y891183D01*
X294733Y890915D01*
X294895Y890660D01*
X295083Y890419D01*
X295293Y890195D01*
X295522Y889994D01*
X295770Y889813D01*
X295881Y889747D01*
X296037Y889655D01*
X296323Y889518D01*
X296628Y889402D01*
X296952Y889309D01*
X297295Y889236D01*
X295803Y886973D01*
X293791Y883920D01*
X295718Y883920D01*
X298924Y889044D01*
G37*
G36*
X312412Y883757D02*
X312855Y883793D01*
X313282Y883854D01*
X313694Y883939D01*
X314089Y884048D01*
X314469Y884181D01*
X314833Y884338D01*
X315181Y884520D01*
X315512Y884724D01*
X315822Y884949D01*
X316112Y885195D01*
X316381Y885462D01*
X316631Y885749D01*
X316860Y886057D01*
X317069Y886386D01*
X317257Y886736D01*
X317424Y887104D01*
X317569Y887489D01*
X317692Y887891D01*
X317793Y888309D01*
X317871Y888744D01*
X317926Y889195D01*
X317960Y889663D01*
X317971Y890147D01*
X317965Y890511D01*
X317946Y890865D01*
X317915Y891209D01*
X317871Y891543D01*
X317815Y891867D01*
X317747Y892181D01*
X317666Y892485D01*
X317573Y892779D01*
X317467Y893063D01*
X317348Y893337D01*
X317074Y893855D01*
X316751Y894334D01*
X316377Y894772D01*
X315959Y895164D01*
X315503Y895504D01*
X315261Y895654D01*
X315009Y895791D01*
X314747Y895915D01*
X314476Y896026D01*
X314196Y896125D01*
X313905Y896209D01*
X313606Y896281D01*
X313296Y896340D01*
X312977Y896386D01*
X312649Y896419D01*
X312310Y896438D01*
X311963Y896445D01*
X311480Y896433D01*
X311018Y896397D01*
X310576Y896336D01*
X310154Y896252D01*
X309752Y896144D01*
X309371Y896011D01*
X309010Y895855D01*
X308669Y895674D01*
X308350Y895470D01*
X308052Y895242D01*
X307776Y894991D01*
X307522Y894717D01*
X307290Y894420D01*
X307080Y894099D01*
X306891Y893755D01*
X306725Y893388D01*
X308310Y892862D01*
X308426Y893124D01*
X308557Y893369D01*
X308706Y893599D01*
X308870Y893813D01*
X309050Y894011D01*
X309247Y894193D01*
X309460Y894359D01*
X309690Y894509D01*
X309933Y894643D01*
X310187Y894758D01*
X310452Y894856D01*
X310729Y894936D01*
X311016Y894998D01*
X311315Y895043D01*
X311624Y895069D01*
X311945Y895078D01*
X312443Y895058D01*
X312913Y894996D01*
X313354Y894893D01*
X313767Y894749D01*
X314151Y894563D01*
X314507Y894337D01*
X314834Y894069D01*
X315133Y893760D01*
X315400Y893415D01*
X315631Y893040D01*
X315827Y892634D01*
X315987Y892198D01*
X316112Y891731D01*
X316201Y891234D01*
X316254Y890706D01*
X316272Y890147D01*
X316253Y889594D01*
X316198Y889069D01*
X316105Y888571D01*
X315975Y888101D01*
X315808Y887659D01*
X315604Y887245D01*
X315363Y886858D01*
X315085Y886499D01*
X314775Y886176D01*
X314439Y885896D01*
X314077Y885659D01*
X313689Y885465D01*
X313275Y885314D01*
X312834Y885206D01*
X312368Y885141D01*
X311875Y885120D01*
X311556Y885130D01*
X311247Y885160D01*
X310948Y885210D01*
X310659Y885280D01*
X310380Y885371D01*
X310112Y885481D01*
X309853Y885611D01*
X309604Y885761D01*
X309366Y885932D01*
X309137Y886122D01*
X308919Y886333D01*
X308710Y886563D01*
X308512Y886814D01*
X308324Y887085D01*
X308146Y887375D01*
X307978Y887686D01*
X306611Y887003D01*
X306811Y886616D01*
X307031Y886254D01*
X307270Y885915D01*
X307528Y885599D01*
X307805Y885308D01*
X308102Y885041D01*
X308417Y884797D01*
X308753Y884577D01*
X309104Y884382D01*
X309470Y884213D01*
X309849Y884070D01*
X310243Y883953D01*
X310650Y883862D01*
X311071Y883797D01*
X311505Y883758D01*
X311954Y883745D01*
X312412Y883757D01*
G37*
G36*
X268463Y883758D02*
X268896Y883798D01*
X269305Y883864D01*
X269691Y883956D01*
X270053Y884075D01*
X270391Y884220D01*
X270706Y884392D01*
X270997Y884590D01*
X271262Y884814D01*
X271499Y885063D01*
X271707Y885338D01*
X271887Y885638D01*
X272039Y885963D01*
X272162Y886314D01*
X272257Y886689D01*
X272324Y887091D01*
X270695Y887239D01*
X270647Y886974D01*
X270584Y886726D01*
X270504Y886495D01*
X270408Y886282D01*
X270297Y886085D01*
X270169Y885905D01*
X270025Y885743D01*
X269865Y885597D01*
X269689Y885469D01*
X269497Y885358D01*
X269288Y885264D01*
X269064Y885187D01*
X268824Y885127D01*
X268567Y885084D01*
X268294Y885058D01*
X268006Y885050D01*
X267716Y885059D01*
X267442Y885087D01*
X267184Y885132D01*
X266943Y885197D01*
X266717Y885279D01*
X266507Y885380D01*
X266314Y885499D01*
X266136Y885637D01*
X265977Y885792D01*
X265839Y885966D01*
X265722Y886157D01*
X265627Y886366D01*
X265552Y886593D01*
X265499Y886837D01*
X265468Y887099D01*
X265457Y887380D01*
X265469Y887625D01*
X265505Y887856D01*
X265566Y888073D01*
X265651Y888276D01*
X265760Y888466D01*
X265893Y888642D01*
X266051Y888804D01*
X266232Y888952D01*
X266437Y889084D01*
X266663Y889199D01*
X266910Y889296D01*
X267179Y889375D01*
X267470Y889437D01*
X267782Y889481D01*
X268115Y889508D01*
X268470Y889517D01*
X269363Y889517D01*
X269363Y890883D01*
X268505Y890883D01*
X268190Y890892D01*
X267893Y890918D01*
X267615Y890962D01*
X267354Y891024D01*
X267112Y891104D01*
X266888Y891201D01*
X266682Y891316D01*
X266495Y891448D01*
X266328Y891596D01*
X266183Y891758D01*
X266060Y891933D01*
X265960Y892121D01*
X265881Y892323D01*
X265826Y892539D01*
X265792Y892769D01*
X265781Y893011D01*
X265790Y893252D01*
X265818Y893480D01*
X265863Y893695D01*
X265927Y893897D01*
X266009Y894086D01*
X266109Y894262D01*
X266227Y894425D01*
X266364Y894575D01*
X266518Y894709D01*
X266690Y894826D01*
X266880Y894924D01*
X267087Y895005D01*
X267312Y895068D01*
X267555Y895113D01*
X267815Y895139D01*
X268093Y895148D01*
X268348Y895140D01*
X268590Y895115D01*
X268819Y895073D01*
X269036Y895015D01*
X269241Y894940D01*
X269433Y894848D01*
X269612Y894739D01*
X269779Y894614D01*
X269932Y894474D01*
X270068Y894320D01*
X270186Y894152D01*
X270288Y893970D01*
X270374Y893775D01*
X270442Y893566D01*
X270494Y893344D01*
X270528Y893108D01*
X272114Y893230D01*
X272056Y893599D01*
X271969Y893946D01*
X271855Y894273D01*
X271712Y894579D01*
X271540Y894864D01*
X271341Y895129D01*
X271113Y895372D01*
X270857Y895595D01*
X270577Y895794D01*
X270277Y895967D01*
X269959Y896113D01*
X269621Y896232D01*
X269263Y896325D01*
X268887Y896392D01*
X268491Y896431D01*
X268076Y896445D01*
X267625Y896431D01*
X267199Y896391D01*
X266800Y896323D01*
X266426Y896229D01*
X266078Y896108D01*
X265756Y895959D01*
X265460Y895784D01*
X265190Y895582D01*
X264949Y895356D01*
X264740Y895108D01*
X264563Y894840D01*
X264418Y894550D01*
X264305Y894238D01*
X264225Y893906D01*
X264177Y893553D01*
X264161Y893178D01*
X264171Y892889D01*
X264202Y892614D01*
X264254Y892353D01*
X264326Y892106D01*
X264419Y891873D01*
X264533Y891653D01*
X264667Y891447D01*
X264822Y891255D01*
X264997Y891078D01*
X265190Y890915D01*
X265402Y890767D01*
X265633Y890635D01*
X265883Y890517D01*
X266151Y890414D01*
X266439Y890326D01*
X266745Y890252D01*
X266745Y890217D01*
X266408Y890170D01*
X266091Y890104D01*
X265793Y890017D01*
X265514Y889911D01*
X265254Y889785D01*
X265014Y889639D01*
X264792Y889474D01*
X264590Y889289D01*
X264409Y889088D01*
X264253Y888874D01*
X264120Y888648D01*
X264012Y888409D01*
X263928Y888157D01*
X263867Y887893D01*
X263831Y887616D01*
X263819Y887327D01*
X263836Y886912D01*
X263887Y886521D01*
X263972Y886155D01*
X264091Y885812D01*
X264243Y885493D01*
X264430Y885199D01*
X264651Y884928D01*
X264905Y884682D01*
X265191Y884462D01*
X265506Y884272D01*
X265850Y884111D01*
X266223Y883979D01*
X266625Y883877D01*
X267057Y883803D01*
X267517Y883760D01*
X268006Y883745D01*
X268463Y883758D01*
G37*
G36*
X282074Y885032D02*
X281838Y885530D01*
X281578Y885997D01*
X281293Y886434D01*
X280983Y886841D01*
X280657Y887224D01*
X280323Y887588D01*
X279981Y887933D01*
X279630Y888260D01*
X278924Y888872D01*
X278224Y889438D01*
X277562Y889981D01*
X276967Y890524D01*
X276700Y890799D01*
X276460Y891080D01*
X276247Y891368D01*
X276061Y891663D01*
X275909Y891970D01*
X275801Y892298D01*
X275736Y892645D01*
X275715Y893011D01*
X275724Y893258D01*
X275752Y893491D01*
X275799Y893709D01*
X275864Y893913D01*
X275947Y894103D01*
X276050Y894279D01*
X276171Y894441D01*
X276310Y894588D01*
X276467Y894719D01*
X276637Y894833D01*
X276822Y894929D01*
X277022Y895008D01*
X277236Y895070D01*
X277465Y895113D01*
X277708Y895140D01*
X277966Y895148D01*
X278212Y895140D01*
X278447Y895114D01*
X278671Y895071D01*
X278884Y895012D01*
X279086Y894935D01*
X279277Y894841D01*
X279457Y894729D01*
X279626Y894601D01*
X279780Y894457D01*
X279918Y894300D01*
X280039Y894128D01*
X280143Y893943D01*
X280231Y893744D01*
X280301Y893531D01*
X280355Y893304D01*
X280392Y893064D01*
X282003Y893213D01*
X281946Y893573D01*
X281859Y893915D01*
X281745Y894238D01*
X281602Y894542D01*
X281430Y894827D01*
X281231Y895093D01*
X281003Y895340D01*
X280747Y895569D01*
X280467Y895774D01*
X280167Y895952D01*
X279849Y896103D01*
X279511Y896226D01*
X279153Y896322D01*
X278777Y896390D01*
X278381Y896431D01*
X277966Y896445D01*
X277513Y896431D01*
X277087Y896390D01*
X276688Y896321D01*
X276316Y896225D01*
X275971Y896101D01*
X275653Y895950D01*
X275362Y895771D01*
X275097Y895564D01*
X274862Y895333D01*
X274659Y895078D01*
X274486Y894800D01*
X274345Y894499D01*
X274236Y894175D01*
X274157Y893828D01*
X274110Y893457D01*
X274094Y893064D01*
X274115Y892705D01*
X274177Y892348D01*
X274279Y891992D01*
X274423Y891636D01*
X274607Y891282D01*
X274831Y890927D01*
X275095Y890572D01*
X275400Y890217D01*
X275797Y889814D01*
X276343Y889313D01*
X277037Y888715D01*
X277878Y888019D01*
X278356Y887617D01*
X278783Y887236D01*
X279157Y886875D01*
X279481Y886534D01*
X279758Y886207D01*
X279993Y885885D01*
X280187Y885570D01*
X280339Y885260D01*
X273902Y885260D01*
X273902Y883920D01*
X282074Y883920D01*
X282074Y885032D01*
G37*
G36*
X291578Y885260D02*
X288434Y885260D01*
X288434Y894754D01*
X291219Y892766D01*
X291219Y894255D01*
X288302Y896261D01*
X286848Y896261D01*
X286848Y885260D01*
X283844Y885260D01*
X283844Y883920D01*
X291578Y883920D01*
X291578Y885260D01*
G37*
%LPC*%
G36*
X298731Y890366D02*
X298410Y890376D01*
X298107Y890405D01*
X297824Y890453D01*
X297559Y890521D01*
X297312Y890607D01*
X297085Y890714D01*
X296876Y890839D01*
X296686Y890984D01*
X296517Y891146D01*
X296370Y891323D01*
X296246Y891516D01*
X296144Y891725D01*
X296065Y891949D01*
X296009Y892188D01*
X295975Y892443D01*
X295963Y892714D01*
X295975Y892975D01*
X296009Y893220D01*
X296066Y893450D01*
X296146Y893663D01*
X296249Y893860D01*
X296375Y894041D01*
X296523Y894207D01*
X296695Y894356D01*
X296888Y894488D01*
X297101Y894603D01*
X297334Y894700D01*
X297587Y894780D01*
X297860Y894841D01*
X298154Y894885D01*
X298468Y894912D01*
X298801Y894921D01*
X302769Y894921D01*
X302769Y890366D01*
X298731Y890366D01*
G37*
%LPD*%
D10*
X414020Y745490D02*
X414020Y732790D01*
X414020Y758190D02*
X414020Y770890D01*
X420370Y764540D02*
X407670Y764540D01*
X363740Y751840D02*
X363750Y752638D01*
X363779Y753435D01*
X363828Y754231D01*
X363896Y755026D01*
X363984Y755818D01*
X364092Y756609D01*
X364218Y757396D01*
X364364Y758180D01*
X364530Y758961D01*
X364714Y759737D01*
X364917Y760508D01*
X365139Y761274D01*
X365380Y762035D01*
X365640Y762789D01*
X365918Y763537D01*
X366214Y764277D01*
X366528Y765010D01*
X366860Y765736D01*
X367210Y766452D01*
X367578Y767160D01*
X367962Y767859D01*
X368364Y768548D01*
X368782Y769227D01*
X369217Y769896D01*
X369668Y770554D01*
X370136Y771200D01*
X370619Y771835D01*
X371117Y772458D01*
X371631Y773068D01*
X372159Y773666D01*
X372702Y774250D01*
X373259Y774821D01*
X373830Y775378D01*
X374414Y775921D01*
X375012Y776449D01*
X375622Y776963D01*
X376245Y777461D01*
X376880Y777944D01*
X377526Y778412D01*
X378184Y778863D01*
X378853Y779298D01*
X379532Y779716D01*
X380221Y780118D01*
X380920Y780502D01*
X381628Y780870D01*
X382344Y781220D01*
X383070Y781552D01*
X383803Y781866D01*
X384543Y782162D01*
X385291Y782440D01*
X386045Y782700D01*
X386806Y782941D01*
X387572Y783163D01*
X388343Y783366D01*
X389119Y783550D01*
X389900Y783716D01*
X390684Y783862D01*
X391471Y783988D01*
X392262Y784096D01*
X393054Y784184D01*
X393849Y784252D01*
X394645Y784301D01*
X395442Y784330D01*
X396240Y784340D01*
X397038Y784330D01*
X397835Y784301D01*
X398631Y784252D01*
X399426Y784184D01*
X400218Y784096D01*
X401009Y783988D01*
X401796Y783862D01*
X402580Y783716D01*
X403361Y783550D01*
X404137Y783366D01*
X404908Y783163D01*
X405674Y782941D01*
X406435Y782700D01*
X407189Y782440D01*
X407937Y782162D01*
X408677Y781866D01*
X409410Y781552D01*
X410136Y781220D01*
X410852Y780870D01*
X411560Y780502D01*
X412259Y780118D01*
X412948Y779716D01*
X413627Y779298D01*
X414296Y778863D01*
X414954Y778412D01*
X415600Y777944D01*
X416235Y777461D01*
X416858Y776963D01*
X417468Y776449D01*
X418066Y775921D01*
X418650Y775378D01*
X419221Y774821D01*
X419778Y774250D01*
X420321Y773666D01*
X420849Y773068D01*
X421363Y772458D01*
X421861Y771835D01*
X422344Y771200D01*
X422812Y770554D01*
X423263Y769896D01*
X423698Y769227D01*
X424116Y768548D01*
X424518Y767859D01*
X424902Y767160D01*
X425270Y766452D01*
X425620Y765736D01*
X425952Y765010D01*
X426266Y764277D01*
X426562Y763537D01*
X426840Y762789D01*
X427100Y762035D01*
X427341Y761274D01*
X427563Y760508D01*
X427766Y759737D01*
X427950Y758961D01*
X428116Y758180D01*
X428262Y757396D01*
X428388Y756609D01*
X428496Y755818D01*
X428584Y755026D01*
X428652Y754231D01*
X428701Y753435D01*
X428730Y752638D01*
X428740Y751840D01*
X428730Y751042D01*
X428701Y750245D01*
X428652Y749449D01*
X428584Y748654D01*
X428496Y747862D01*
X428388Y747071D01*
X428262Y746284D01*
X428116Y745500D01*
X427950Y744719D01*
X427766Y743943D01*
X427563Y743172D01*
X427341Y742406D01*
X427100Y741645D01*
X426840Y740891D01*
X426562Y740143D01*
X426266Y739403D01*
X425952Y738670D01*
X425620Y737944D01*
X425270Y737228D01*
X424902Y736520D01*
X424518Y735821D01*
X424116Y735132D01*
X423698Y734453D01*
X423263Y733784D01*
X422812Y733126D01*
X422344Y732480D01*
X421861Y731845D01*
X421363Y731222D01*
X420849Y730612D01*
X420321Y730014D01*
X419778Y729430D01*
X419221Y728859D01*
X418650Y728302D01*
X418066Y727759D01*
X417468Y727231D01*
X416858Y726717D01*
X416235Y726219D01*
X415600Y725736D01*
X414954Y725268D01*
X414296Y724817D01*
X413627Y724382D01*
X412948Y723964D01*
X412259Y723562D01*
X411560Y723178D01*
X410852Y722810D01*
X410136Y722460D01*
X409410Y722128D01*
X408677Y721814D01*
X407937Y721518D01*
X407189Y721240D01*
X406435Y720980D01*
X405674Y720739D01*
X404908Y720517D01*
X404137Y720314D01*
X403361Y720130D01*
X402580Y719964D01*
X401796Y719818D01*
X401009Y719692D01*
X400218Y719584D01*
X399426Y719496D01*
X398631Y719428D01*
X397835Y719379D01*
X397038Y719350D01*
X396240Y719340D01*
X395442Y719350D01*
X394645Y719379D01*
X393849Y719428D01*
X393054Y719496D01*
X392262Y719584D01*
X391471Y719692D01*
X390684Y719818D01*
X389900Y719964D01*
X389119Y720130D01*
X388343Y720314D01*
X387572Y720517D01*
X386806Y720739D01*
X386045Y720980D01*
X385291Y721240D01*
X384543Y721518D01*
X383803Y721814D01*
X383070Y722128D01*
X382344Y722460D01*
X381628Y722810D01*
X380920Y723178D01*
X380221Y723562D01*
X379532Y723964D01*
X378853Y724382D01*
X378184Y724817D01*
X377526Y725268D01*
X376880Y725736D01*
X376245Y726219D01*
X375622Y726717D01*
X375012Y727231D01*
X374414Y727759D01*
X373830Y728302D01*
X373259Y728859D01*
X372702Y729430D01*
X372159Y730014D01*
X371631Y730612D01*
X371117Y731222D01*
X370619Y731845D01*
X370136Y732480D01*
X369668Y733126D01*
X369217Y733784D01*
X368782Y734453D01*
X368364Y735132D01*
X367962Y735821D01*
X367578Y736520D01*
X367210Y737228D01*
X366860Y737944D01*
X366528Y738670D01*
X366214Y739403D01*
X365918Y740143D01*
X365640Y740891D01*
X365380Y741645D01*
X365139Y742406D01*
X364917Y743172D01*
X364714Y743943D01*
X364530Y744719D01*
X364364Y745500D01*
X364218Y746284D01*
X364092Y747071D01*
X363984Y747862D01*
X363896Y748654D01*
X363828Y749449D01*
X363779Y750245D01*
X363750Y751042D01*
X363740Y751840D01*
D11*
X431165Y750344D02*
X431165Y749272D01*
X431167Y749207D01*
X431173Y749143D01*
X431183Y749079D01*
X431196Y749015D01*
X431214Y748953D01*
X431235Y748892D01*
X431259Y748832D01*
X431288Y748774D01*
X431320Y748717D01*
X431355Y748663D01*
X431393Y748611D01*
X431435Y748561D01*
X431479Y748514D01*
X431526Y748470D01*
X431576Y748428D01*
X431628Y748390D01*
X431682Y748355D01*
X431739Y748323D01*
X431797Y748294D01*
X431857Y748270D01*
X431918Y748249D01*
X431980Y748231D01*
X432044Y748218D01*
X432108Y748208D01*
X432172Y748202D01*
X432237Y748200D01*
X432237Y748199D02*
X434919Y748199D01*
X434919Y748200D02*
X434984Y748202D01*
X435048Y748208D01*
X435112Y748218D01*
X435176Y748231D01*
X435238Y748249D01*
X435299Y748270D01*
X435359Y748294D01*
X435417Y748323D01*
X435474Y748355D01*
X435528Y748390D01*
X435580Y748428D01*
X435630Y748470D01*
X435677Y748514D01*
X435721Y748561D01*
X435763Y748611D01*
X435801Y748663D01*
X435836Y748717D01*
X435868Y748774D01*
X435897Y748832D01*
X435921Y748892D01*
X435942Y748953D01*
X435960Y749015D01*
X435973Y749079D01*
X435983Y749143D01*
X435989Y749207D01*
X435991Y749272D01*
X435991Y750344D01*
X435991Y753872D02*
X432237Y752800D01*
X432237Y755481D01*
X433310Y754677D02*
X431165Y754677D01*
D12*
X445900Y980450D02*
X457350Y980450D01*
X457350Y797550D01*
X28050Y797550D01*
X28050Y980450D01*
X420500Y980450D01*
D11*
X307991Y711205D02*
X307991Y706379D01*
X307991Y711205D02*
X306651Y711205D01*
X306580Y711203D01*
X306508Y711197D01*
X306438Y711188D01*
X306368Y711175D01*
X306298Y711158D01*
X306230Y711137D01*
X306163Y711113D01*
X306097Y711085D01*
X306033Y711054D01*
X305970Y711019D01*
X305910Y710981D01*
X305851Y710940D01*
X305795Y710896D01*
X305741Y710849D01*
X305690Y710800D01*
X305642Y710747D01*
X305596Y710692D01*
X305554Y710635D01*
X305514Y710575D01*
X305478Y710514D01*
X305445Y710450D01*
X305416Y710385D01*
X305390Y710319D01*
X305367Y710251D01*
X305348Y710182D01*
X305333Y710112D01*
X305322Y710042D01*
X305314Y709971D01*
X305310Y709900D01*
X305310Y709828D01*
X305314Y709757D01*
X305322Y709686D01*
X305333Y709616D01*
X305348Y709546D01*
X305367Y709477D01*
X305390Y709409D01*
X305416Y709343D01*
X305445Y709278D01*
X305478Y709214D01*
X305514Y709153D01*
X305554Y709093D01*
X305596Y709036D01*
X305642Y708981D01*
X305690Y708928D01*
X305741Y708879D01*
X305795Y708832D01*
X305851Y708788D01*
X305910Y708747D01*
X305970Y708709D01*
X306033Y708674D01*
X306097Y708643D01*
X306163Y708615D01*
X306230Y708591D01*
X306298Y708570D01*
X306368Y708553D01*
X306438Y708540D01*
X306508Y708531D01*
X306580Y708525D01*
X306651Y708523D01*
X306651Y708524D02*
X307991Y708524D01*
X306383Y708524D02*
X305310Y706379D01*
X302366Y706379D02*
X300221Y706379D01*
X302366Y706379D02*
X302366Y711205D01*
X300221Y711205D01*
X300758Y709060D02*
X302366Y709060D01*
X297611Y706379D02*
X295467Y706379D01*
X297611Y706379D02*
X297611Y711205D01*
X295467Y711205D01*
X296003Y709060D02*
X297611Y709060D01*
X292876Y711205D02*
X292876Y706379D01*
X292876Y711205D02*
X291536Y711205D01*
X291466Y711203D01*
X291396Y711198D01*
X291326Y711188D01*
X291257Y711176D01*
X291189Y711159D01*
X291122Y711139D01*
X291055Y711116D01*
X290991Y711089D01*
X290927Y711059D01*
X290866Y711025D01*
X290806Y710989D01*
X290748Y710949D01*
X290692Y710906D01*
X290639Y710861D01*
X290588Y710812D01*
X290539Y710761D01*
X290494Y710708D01*
X290451Y710652D01*
X290411Y710594D01*
X290375Y710535D01*
X290341Y710473D01*
X290311Y710409D01*
X290284Y710345D01*
X290261Y710278D01*
X290241Y710211D01*
X290224Y710143D01*
X290212Y710074D01*
X290202Y710004D01*
X290197Y709934D01*
X290195Y709864D01*
X290195Y707720D01*
X290197Y707650D01*
X290202Y707580D01*
X290212Y707510D01*
X290224Y707441D01*
X290241Y707373D01*
X290261Y707306D01*
X290284Y707239D01*
X290311Y707175D01*
X290341Y707111D01*
X290375Y707050D01*
X290411Y706990D01*
X290451Y706932D01*
X290494Y706876D01*
X290539Y706823D01*
X290588Y706772D01*
X290639Y706723D01*
X290692Y706678D01*
X290748Y706635D01*
X290806Y706595D01*
X290866Y706559D01*
X290927Y706525D01*
X290991Y706495D01*
X291055Y706468D01*
X291122Y706445D01*
X291189Y706425D01*
X291257Y706408D01*
X291326Y706396D01*
X291396Y706386D01*
X291466Y706381D01*
X291536Y706379D01*
X292876Y706379D01*
M02*
