G04 EAGLE Gerber RS-274X export*
G75*
%MOMM*%
%FSLAX34Y34*%
%LPD*%
%INSoldermask Top*%
%IPPOS*%
%AMOC8*
5,1,8,0,0,1.08239X$1,22.5*%
G01*
%ADD10C,2.743200*%
%ADD11C,2.082800*%
%ADD12C,1.524000*%
%ADD13R,1.711200X1.711200*%
%ADD14C,1.711200*%
%ADD15C,3.203200*%
%ADD16R,1.367800X1.668500*%
%ADD17C,1.854200*%
%ADD18R,1.854200X1.854200*%
%ADD19C,1.988200*%
%ADD20C,2.183200*%
%ADD21R,1.234400X1.623400*%
%ADD22C,1.803200*%
%ADD23C,0.959600*%
D10*
X457200Y762000D03*
X133350Y774700D03*
X304800Y946150D03*
D11*
X43307Y784617D03*
X68707Y784617D03*
X94107Y784617D03*
D12*
X257556Y845820D03*
X232156Y845820D03*
X232156Y769620D03*
X257556Y769620D03*
X206756Y845820D03*
X181356Y845820D03*
X206756Y769620D03*
X181356Y769620D03*
D13*
X38100Y974090D03*
D14*
X63500Y974090D03*
X88900Y974090D03*
X114300Y974090D03*
D15*
X133350Y834390D03*
D14*
X139700Y974090D03*
D15*
X44450Y834390D03*
D13*
X256540Y979170D03*
D14*
X231140Y979170D03*
X205740Y979170D03*
X180340Y979170D03*
D15*
X243840Y890270D03*
D16*
X199254Y736600D03*
X181746Y736600D03*
X430857Y787694D03*
X413349Y787694D03*
D17*
X396240Y739340D03*
D18*
X396240Y764340D03*
D16*
X331606Y787400D03*
X349114Y787400D03*
X123054Y736600D03*
X105546Y736600D03*
D19*
X431800Y889000D03*
X53600Y889000D03*
D20*
X431800Y970000D03*
D14*
X374588Y982300D03*
D13*
X349188Y982300D03*
D14*
X399988Y982300D03*
X292038Y823550D03*
D21*
X28905Y736600D03*
X47295Y736600D03*
X414130Y736600D03*
X432520Y736600D03*
X257505Y736600D03*
X275895Y736600D03*
X350099Y734604D03*
X331709Y734604D03*
D22*
X292260Y764540D03*
X312260Y764540D03*
D23*
X442982Y738541D03*
X430558Y754380D03*
X323088Y746280D03*
M02*
